<?xml version="1.0" standalone="no"?>
<!DOCTYPE svg PUBLIC "-//W3C//DTD SVG 20010904//EN"
 "http://www.w3.org/TR/2001/REC-SVG-20010904/DTD/svg10.dtd">
<svg version="1.0" xmlns="http://www.w3.org/2000/svg"
 width="300.000000pt" height="492.000000pt" viewBox="0 0 300.000000 492.000000"
 preserveAspectRatio="xMidYMid meet">
<metadata>
Created by potrace 1.10, written by Peter Selinger 2001-2011
</metadata>
<g transform="translate(0.000000,492.000000) scale(0.100000,-0.100000)"
fill="#f3f3f3" stroke="none">
<path d="M1605 3959 c-67 -13 -175 -49 -175 -59 0 -4 -23 -15 -52 -25 -66 -21
-137 -57 -208 -104 -30 -21 -76 -49 -101 -64 -25 -14 -52 -34 -60 -43 -16 -20
-9 -17 41 16 14 9 39 22 55 29 l30 13 -30 -34 c-22 -24 -24 -27 -5 -12 42 36
94 64 119 64 20 0 21 -2 11 -15 -7 -8 -18 -15 -25 -15 -24 0 -71 -30 -125 -80
-55 -51 -45 -54 19 -6 18 14 47 28 64 32 22 4 26 8 16 15 -11 7 -9 9 6 9 11 0
37 14 58 31 20 17 42 27 49 24 7 -4 5 0 -5 8 -14 11 -15 16 -5 20 30 12 -20 6
-66 -8 -27 -8 -51 -13 -54 -11 -2 3 9 8 24 12 28 7 57 28 50 35 -2 2 18 5 45
6 26 1 56 6 66 12 14 9 10 10 -22 6 -36 -5 -34 -3 24 20 35 14 70 24 78 21 8
-3 12 -2 8 3 -3 5 8 12 25 16 42 9 48 26 8 20 -18 -3 1 4 42 15 41 10 93 17
115 15 32 -4 35 -3 15 4 -25 9 -25 9 5 10 79 2 269 -21 331 -40 38 -12 78 -22
89 -24 11 -1 29 -6 40 -9 13 -5 11 -2 -5 7 -24 14 -203 61 -265 70 -22 3 -18
4 16 6 58 1 196 -33 278 -70 35 -16 69 -29 75 -29 7 0 27 -16 46 -35 18 -18
36 -33 40 -32 10 3 70 -72 70 -86 0 -6 3 -8 6 -5 9 9 -14 48 -64 107 -28 33
-38 49 -25 43 27 -15 93 -92 93 -109 0 -7 8 -21 18 -31 37 -37 52 -72 53 -124
l2 -53 7 55 c5 44 3 63 -13 95 -11 22 -23 42 -27 45 -4 3 -14 19 -23 35 -25
50 -168 177 -183 163 -3 -3 14 -17 38 -32 l43 -27 -35 7 c-19 3 -42 12 -50 19
-18 15 -121 49 -213 70 -76 17 -298 19 -382 4z"/>
<path d="M1748 3913 c12 -2 32 -2 45 0 12 2 2 4 -23 4 -25 0 -35 -2 -22 -4z"/>
<path d="M1605 3891 c-19 -5 3 -7 60 -8 75 0 107 -5 190 -33 55 -18 122 -44
148 -57 27 -13 51 -22 53 -20 9 9 -53 41 -121 64 -56 18 -62 22 -30 19 l40 -5
-45 15 c-86 28 -229 40 -295 25z"/>
<path d="M1932 3881 c31 -10 78 -31 105 -46 26 -15 56 -28 67 -31 23 -4 57
-34 51 -44 -3 -4 3 -14 12 -21 9 -8 29 -32 45 -53 15 -21 28 -36 28 -32 0 18
-32 66 -56 85 -15 12 -21 21 -14 21 23 0 -22 41 -75 67 -70 36 -172 73 -198
72 -12 0 3 -8 35 -18z"/>
<path d="M1502 3858 c-30 -5 -51 -12 -48 -15 8 -8 106 8 106 18 0 5 -1 8 -2 8
-2 -1 -27 -6 -56 -11z"/>
<path d="M2517 3786 c-5 -65 -12 -96 -29 -123 -14 -24 -23 -55 -24 -91 -3 -61
12 -59 19 3 2 22 3 2 1 -45 -2 -47 -1 -79 2 -72 4 8 27 12 67 12 73 0 61 -19
-13 -21 l-45 -1 51 -13 c28 -7 58 -16 65 -21 11 -6 10 -3 -1 11 -14 17 -13 18
5 11 39 -15 150 -45 154 -41 5 5 -11 12 -85 35 -55 16 -56 17 -25 23 17 4 36
5 43 3 7 -3 38 -7 68 -11 43 -5 52 -4 43 6 -7 7 -47 13 -100 15 -104 3 -104 3
-78 14 11 5 49 9 85 10 36 0 76 7 90 15 20 11 21 14 7 15 -10 0 -26 -4 -35 -9
-23 -12 -297 -22 -285 -10 5 5 26 12 45 14 36 5 166 75 139 75 -8 0 -33 -11
-56 -25 -24 -13 -62 -27 -86 -31 l-44 -6 37 35 c35 33 112 75 168 92 l25 7
-25 -28 -25 -28 33 23 c34 23 34 41 2 41 -30 0 -100 -30 -155 -66 l-50 -33 -3
34 c-2 19 4 53 13 77 l16 43 -6 -40 c-3 -22 -7 -51 -10 -65 -3 -14 3 -5 13 20
13 32 16 52 10 70 -5 13 -6 45 -3 70 3 25 2 56 -3 69 -7 19 -10 5 -15 -63z"/>
<path d="M1710 3849 c30 -4 68 -13 84 -19 16 -6 31 -9 33 -6 9 9 -93 36 -131
35 -38 -1 -37 -2 14 -10z"/>
<path d="M2195 3803 c37 -32 74 -71 82 -86 8 -16 17 -26 20 -23 16 16 -127
166 -159 166 -5 0 20 -26 57 -57z"/>
<path d="M1477 3819 c-37 -9 -117 -45 -117 -54 0 -2 16 3 35 11 19 8 70 14
117 15 82 1 82 1 38 12 -38 9 -41 12 -19 15 15 2 44 -4 64 -12 21 -9 56 -16
79 -16 51 -1 149 -22 199 -44 45 -20 49 -13 5 10 -39 20 -152 47 -193 46 -16
-1 -39 5 -52 13 -24 16 -96 18 -156 4z"/>
<path d="M1910 3790 c77 -41 91 -47 75 -31 -17 16 -123 71 -137 71 -7 0 21
-18 62 -40z"/>
<path d="M1715 3766 c17 -8 32 -12 34 -10 7 6 -2 11 -34 17 l-30 6 30 -13z"/>
<path d="M1615 3761 c11 -5 -27 -7 -85 -5 l-105 3 90 -9 c50 -5 106 -6 125 -4
27 4 32 3 20 -6 -12 -8 -9 -9 13 -4 21 5 40 -2 82 -27 30 -18 52 -36 49 -40
-2 -4 1 -11 7 -15 8 -5 9 -3 5 5 -5 8 -2 11 9 9 32 -6 87 -62 111 -113 13 -27
24 -44 24 -37 0 7 -7 27 -16 43 -8 17 -13 33 -10 36 3 4 15 -15 26 -40 22 -48
27 -51 70 -36 21 7 19 8 -10 4 -33 -4 -36 -2 -54 38 -23 50 -25 63 -8 60 20
-5 14 11 -15 39 -33 32 -80 51 -88 38 -5 -9 7 -14 27 -11 14 2 57 -60 52 -74
-5 -11 -18 -3 -51 30 -25 25 -48 43 -52 41 -4 -3 -25 7 -46 21 -39 26 -142 64
-173 62 -13 0 -13 -2 3 -8z"/>
<path d="M2126 3740 c11 -14 28 -36 37 -50 10 -13 17 -19 17 -12 0 7 -17 30
-37 50 -21 21 -29 26 -17 12z"/>
<path d="M2455 3744 c5 -16 8 -45 8 -64 -1 -31 0 -33 9 -13 12 25 3 89 -14 99
-8 5 -8 -2 -3 -22z"/>
<path d="M1314 3741 c21 -23 26 -26 26 -11 0 5 -10 15 -22 21 -23 12 -23 12
-4 -10z"/>
<path d="M1513 3725 c43 -8 87 -20 99 -26 11 -6 22 -9 24 -6 10 10 -81 38
-139 42 l-62 5 78 -15z"/>
<path d="M1395 3700 c-83 -7 -125 -25 -125 -53 0 -12 21 -40 46 -64 26 -24 42
-43 36 -43 -6 0 -14 5 -17 10 -3 6 -12 10 -18 10 -7 0 2 -11 18 -25 33 -26 51
-32 38 -12 -4 6 -8 17 -8 22 0 6 -19 28 -42 49 -24 21 -43 45 -43 54 0 13 2
13 18 -1 25 -23 39 -21 18 2 -16 18 -16 19 15 30 18 6 53 11 78 12 25 0 55 4
66 9 22 10 20 10 -80 0z"/>
<path d="M1510 3707 c0 -3 15 -10 32 -16 18 -6 28 -7 23 -2 -12 10 -55 25 -55
18z"/>
<path d="M2020 3706 c0 -10 64 -96 68 -92 5 5 -44 82 -58 91 -5 3 -10 4 -10 1z"/>
<path d="M1970 3673 c0 -10 10 -29 21 -43 l21 -25 -16 27 c-28 47 -17 54 15
10 17 -23 33 -42 35 -42 7 0 -4 18 -33 58 -27 35 -43 41 -43 15z"/>
<path d="M1190 3652 c-25 -15 -56 -37 -68 -49 -12 -13 -29 -23 -37 -23 -18 0
-95 -33 -95 -40 0 -8 84 1 94 10 5 5 -2 7 -15 4 -17 -3 -15 -1 6 7 17 7 47 27
68 45 54 49 56 42 4 -16 -26 -29 -47 -64 -51 -84 -4 -19 -13 -39 -21 -46 -8
-7 -15 -17 -15 -22 0 -21 71 50 85 86 9 21 18 36 21 33 4 -3 -2 -26 -11 -51
-14 -36 -29 -53 -66 -76 -27 -16 -49 -33 -49 -36 0 -3 11 1 25 10 14 9 29 15
34 12 4 -3 25 13 46 34 22 22 34 40 29 40 -14 0 30 133 45 138 6 2 19 -2 27
-9 14 -12 16 -11 12 6 -2 15 -10 19 -28 17 l-25 -3 25 20 c35 29 13 25 -40 -7z
m-10 -79 c0 -9 -3 -13 -7 -10 -10 10 -43 -24 -43 -44 0 -10 -4 -21 -10 -24
-21 -13 -9 35 16 64 29 35 44 39 44 14z"/>
<path d="M2321 3670 c0 -8 4 -24 9 -35 9 -20 9 -20 9 0 0 11 -4 27 -9 35 -9
13 -10 13 -9 0z"/>
<path d="M1764 3662 c3 -5 2 -12 -3 -14 -5 -1 19 -30 52 -63 46 -46 53 -51 30
-20 -17 22 -40 48 -52 59 -11 10 -18 22 -16 27 3 4 0 11 -6 15 -7 4 -9 3 -5
-4z"/>
<path d="M1497 3640 c7 -8 16 -27 22 -40 6 -17 10 -19 10 -8 1 9 -9 27 -21 40
-13 13 -18 17 -11 8z"/>
<path d="M2292 3629 c6 -16 13 -28 15 -25 8 8 -6 56 -17 56 -5 0 -5 -13 2 -31z"/>
<path d="M1362 3638 c5 -14 48 -30 48 -18 0 10 -19 24 -38 26 -7 2 -12 -2 -10
-8z"/>
<path d="M1533 3620 c6 -16 13 -27 15 -25 7 7 -8 55 -17 55 -5 0 -4 -13 2 -30z"/>
<path d="M1650 3643 c0 -15 38 -46 49 -39 5 3 12 1 14 -4 4 -7 5 -6 3 0 -1 7
-4 10 -8 8 -3 -2 -18 8 -32 21 -14 14 -26 20 -26 14z"/>
<path d="M1830 3648 c0 -3 14 -17 30 -33 17 -16 30 -24 30 -18 0 7 -13 21 -30
33 -16 12 -30 20 -30 18z"/>
<path d="M2166 3615 c6 -31 11 -41 18 -34 2 2 -2 18 -10 34 l-14 30 6 -30z"/>
<path d="M2210 3627 c0 -4 7 -22 16 -38 12 -25 18 -28 30 -18 8 6 13 19 13 28
-1 13 -2 13 -6 -1 -4 -18 -23 -25 -23 -10 0 11 -29 49 -30 39z"/>
<path d="M1214 3585 c-9 -29 -8 -40 7 -65 10 -16 24 -30 30 -30 6 0 1 12 -10
26 -12 15 -21 34 -21 43 1 10 6 6 16 -11 8 -16 17 -28 20 -28 2 0 -1 10 -7 23
-7 12 -15 34 -18 50 l-6 28 -11 -36z"/>
<path d="M2324 3589 c-19 -22 -19 -22 3 -10 24 12 39 31 25 31 -5 0 -17 -10
-28 -21z"/>
<path d="M2371 3559 c-13 -18 -18 -28 -11 -24 7 4 16 2 20 -5 4 -7 10 1 15 22
7 33 7 33 16 8 l8 -25 -2 24 c-3 36 -20 36 -46 0z"/>
<path d="M1252 3568 c3 -7 15 -15 28 -16 21 -3 22 -2 11 12 -16 19 -44 21 -39
4z"/>
<path d="M1900 3562 c0 -5 10 -17 22 -28 l21 -19 -18 28 c-18 28 -25 33 -25
19z"/>
<path d="M1746 3546 c21 -15 30 -14 19 3 -3 6 -14 11 -23 11 -13 0 -13 -2 4
-14z"/>
<path d="M1790 3553 c0 -13 29 -38 35 -31 3 3 -4 13 -15 23 -11 10 -20 13 -20
8z"/>
<path d="M1594 3525 c11 -8 25 -15 30 -15 6 0 2 7 -8 15 -11 8 -25 15 -30 15
-6 0 -2 -7 8 -15z"/>
<path d="M1316 3515 c10 -8 24 -14 29 -14 6 0 1 6 -9 14 -11 8 -24 15 -30 15
-5 0 -1 -7 10 -15z"/>
<path d="M1650 3522 c0 -5 17 -12 38 -15 20 -2 62 -12 92 -20 71 -21 76 -14 8
11 -67 25 -138 37 -138 24z"/>
<path d="M2335 3513 c11 -3 23 -10 27 -16 4 -6 29 -18 56 -27 40 -13 49 -14
45 -3 -3 7 -17 16 -32 19 -14 3 -38 12 -53 20 -14 8 -34 13 -45 13 -16 -1 -16
-2 2 -6z"/>
<path d="M1850 3501 c0 -5 7 -12 16 -15 24 -9 28 -7 14 9 -14 17 -30 20 -30 6z"/>
<path d="M2105 3501 c-42 -4 -80 -13 -95 -23 -30 -22 -6 -24 30 -3 14 8 52 15
85 15 33 1 69 5 80 10 18 8 18 9 -5 8 -14 -1 -56 -4 -95 -7z"/>
<path d="M1384 3494 c-12 -3 -56 -40 -98 -83 -59 -61 -75 -83 -69 -97 7 -18 8
-18 11 1 5 24 33 67 40 61 5 -5 -21 -68 -39 -96 -5 -8 -17 -27 -27 -42 -24
-39 -38 -35 -45 14 -7 56 41 154 87 174 l31 14 -30 -2 c-23 -2 -35 -12 -52
-43 -23 -40 -33 -33 -12 8 12 22 11 22 -9 4 -11 -10 -23 -14 -26 -9 -7 11 28
45 37 36 5 -6 27 36 27 52 0 2 -34 -29 -75 -69 -41 -40 -75 -79 -75 -87 0 -9
17 3 40 27 39 42 70 41 32 0 -25 -28 -45 -67 -38 -74 3 -3 10 6 15 20 12 30
47 68 55 60 10 -10 7 -25 -4 -18 -6 4 -17 -9 -24 -27 -13 -29 -13 -36 1 -56
12 -20 13 -29 3 -53 -7 -16 -16 -29 -21 -29 -5 0 -9 -5 -9 -10 0 -6 3 -9 8 -9
4 1 14 1 22 0 11 -1 11 -4 2 -13 -14 -14 -16 -87 -2 -108 7 -11 10 0 10 38 0
29 5 62 10 73 8 14 8 19 -1 17 -6 -2 -13 2 -16 9 -3 7 3 10 16 6 14 -4 23 3
35 24 15 31 46 62 46 47 0 -5 -14 -29 -30 -53 -17 -24 -30 -54 -30 -67 0 -13
-4 -26 -10 -29 -5 -3 -10 -13 -10 -21 0 -26 18 -5 25 29 7 30 51 117 60 117 3
0 0 -11 -5 -25 -6 -15 -6 -34 0 -47 8 -21 9 -20 9 9 1 17 5 43 11 58 7 17 7
24 0 20 -34 -21 38 148 86 202 24 27 38 33 84 38 30 3 47 2 37 -3 -9 -4 43 -8
115 -8 106 -1 121 0 73 6 -84 12 -246 20 -271 14z"/>
<path d="M1914 3484 c9 -8 16 -20 16 -26 0 -6 3 -9 6 -5 10 10 -7 47 -22 47
-13 0 -13 -2 0 -16z"/>
<path d="M2220 3481 c-14 -4 -41 -6 -61 -3 -22 3 -39 0 -44 -8 -6 -9 1 -10 26
-5 27 5 31 4 19 -5 -17 -13 -11 -12 95 10 61 12 115 3 115 -19 0 -5 -12 -3
-27 5 -16 7 -35 14 -43 14 -8 -1 -1 -7 16 -14 18 -8 35 -19 39 -26 6 -9 9 -9
15 0 6 9 12 6 21 -11 7 -13 18 -28 25 -34 20 -16 64 -106 64 -130 0 -25 27
-95 36 -95 3 0 3 8 -1 18 -4 9 -11 44 -16 77 -6 33 -17 66 -25 75 -29 30 -74
93 -74 103 0 6 14 -2 30 -18 23 -22 30 -25 30 -12 0 18 -47 54 -57 44 -3 -4
-19 5 -35 18 -31 26 -91 32 -148 16z"/>
<path d="M1373 3444 c-15 -15 -19 -20 -9 -13 10 8 31 19 45 26 18 8 21 12 9
12 -9 1 -30 -11 -45 -25z"/>
<path d="M1870 3403 c0 -28 3 -34 10 -23 13 20 13 47 0 55 -6 4 -10 -9 -10
-32z"/>
<path d="M2503 3410 c14 -11 33 -20 43 -20 9 0 15 -3 11 -6 -3 -4 1 -21 10
-38 9 -17 19 -44 23 -61 4 -16 11 -39 15 -50 4 -11 -4 -5 -18 14 -15 19 -32
50 -38 70 -11 32 -49 85 -49 68 0 -8 49 -101 85 -163 21 -34 23 -47 17 -85
l-8 -44 -7 44 c-4 24 -10 42 -12 39 -3 -3 -1 -27 4 -54 10 -53 9 -105 -4 -199
-7 -54 -6 -59 8 -47 18 15 42 105 33 127 -3 8 -2 15 3 15 15 0 19 190 6 275
-4 28 -17 60 -28 72 l-20 23 44 -5 c32 -4 40 -3 28 4 -9 6 -36 12 -61 15 -25
2 -54 9 -66 15 -34 18 -47 12 -19 -9z"/>
<path d="M1222 3383 c-46 -66 -72 -143 -32 -94 11 12 17 27 14 33 -3 5 1 17 9
26 17 20 40 62 33 62 -3 0 -13 -12 -24 -27z"/>
<path d="M2481 3375 c0 -11 4 -27 9 -35 9 -13 10 -13 9 0 0 8 -4 24 -9 35 -9
20 -9 20 -9 0z"/>
<path d="M2400 3348 c0 -15 24 -58 32 -58 8 0 1 17 -22 50 -5 8 -10 12 -10 8z"/>
<path d="M2531 3249 c-1 -15 8 -34 21 -45 17 -14 19 -15 10 -2 -8 9 -17 29
-22 45 l-8 28 -1 -26z"/>
<path d="M1110 3248 c0 -7 -3 -24 -7 -38 -6 -22 -5 -24 10 -11 19 15 23 46 7
56 -5 3 -10 0 -10 -7z"/>
<path d="M2525 3190 c11 -38 33 -90 39 -90 7 0 -24 94 -35 105 -8 7 -9 3 -4
-15z"/>
<path d="M1207 3154 c-4 -4 -7 -22 -7 -40 0 -18 -4 -36 -10 -39 -5 -3 -10 -16
-10 -28 0 -18 -2 -19 -11 -7 -8 12 -9 10 -4 -9 5 -16 4 -21 -4 -17 -6 4 -11 0
-11 -10 0 -13 3 -14 13 -5 8 6 16 8 19 5 3 -3 9 0 14 7 4 8 3 10 -4 5 -17 -10
-15 -1 13 54 17 34 22 55 17 70 -4 11 -11 18 -15 14z"/>
<path d="M2490 3129 c0 -8 16 -31 36 -50 19 -19 32 -26 29 -16 -4 9 -11 17
-16 17 -4 0 -6 6 -3 14 3 8 1 17 -5 21 -7 3 -8 0 -5 -9 10 -26 -4 -18 -20 12
-9 16 -15 21 -16 11z"/>
<path d="M785 3119 c8 -11 142 -12 149 0 3 5 -30 9 -74 9 -48 0 -78 -3 -75 -9z"/>
<path d="M1235 3100 c-4 -6 1 -20 11 -31 23 -25 28 -19 10 15 -9 17 -16 23
-21 16z"/>
<path d="M2460 3094 c0 -11 13 -38 29 -60 18 -24 31 -57 36 -89 5 -42 29 -117
43 -135 1 -2 7 2 11 9 6 9 10 3 13 -18 5 -36 -20 -54 -29 -21 -31 119 -129
180 -289 180 -40 0 -75 4 -78 9 -3 5 -35 8 -71 8 -78 -1 -77 -7 2 -16 58 -7
48 -8 -507 -27 -91 -3 -166 -7 -168 -8 -1 -2 49 -6 111 -9 166 -8 217 -35 219
-118 0 -42 -14 -124 -24 -134 -3 -3 -4 14 -4 37 1 42 1 43 -39 49 -127 21
-201 29 -298 32 -59 2 -110 6 -112 9 -3 3 15 12 40 19 25 7 45 17 45 21 0 11
-7 10 -39 -7 -33 -17 -45 -10 -30 17 6 10 9 24 6 31 -5 17 -27 -28 -30 -62 -3
-39 -28 -54 -56 -35 -28 20 -27 45 3 73 28 27 114 61 159 62 l32 1 -30 7 c-25
6 -18 9 40 15 144 14 162 18 140 27 -17 8 -16 9 8 6 15 -3 27 0 27 6 0 6 -15
7 -37 3 -21 -3 -65 -7 -98 -8 l-60 -1 65 -7 65 -7 -85 0 c-76 0 -89 -3 -124
-26 -21 -15 -45 -27 -52 -27 -23 0 -77 -54 -96 -97 -11 -25 -26 -43 -35 -43
-14 0 -13 4 5 23 23 24 28 37 14 37 -15 0 -63 -83 -57 -98 3 -7 14 -16 24 -19
15 -4 20 -18 26 -71 13 -121 65 -202 153 -239 48 -20 128 -19 190 1 55 19 146
91 135 108 -3 6 -1 8 4 5 6 -4 16 0 23 8 7 8 16 13 20 10 4 -2 16 6 27 18 19
21 113 175 113 184 0 17 -36 -29 -60 -76 -32 -64 -59 -102 -60 -84 0 6 5 15
10 18 6 3 10 11 10 16 0 6 -5 7 -11 3 -8 -5 -8 -1 0 14 14 27 14 32 -2 32 -9
0 -13 -12 -12 -35 0 -22 -7 -45 -20 -60 l-20 -26 -2 48 c-2 52 -27 83 -66 83
-25 0 -12 -16 18 -23 11 -3 -7 -5 -40 -5 -52 -1 -115 7 -240 32 -16 3 -3 -3
30 -15 37 -12 101 -22 168 -26 59 -3 107 -7 107 -7 0 -1 4 -16 9 -34 9 -30 7
-37 -27 -74 -35 -39 -88 -77 -123 -90 -13 -5 -16 -2 -13 15 l5 22 -12 -22
c-18 -34 -104 -42 -163 -14 -83 41 -93 56 -101 162 -4 52 -5 116 -3 142 l3 49
23 -31 c17 -24 23 -46 25 -92 1 -54 3 -58 15 -42 13 16 13 16 7 -7 -4 -14 -14
-34 -21 -45 -8 -11 -14 -24 -14 -30 1 -5 7 1 15 15 14 24 15 22 10 -30 -4 -40
-3 -49 4 -33 13 29 16 135 7 198 -8 46 -7 48 7 30 8 -11 19 -17 23 -12 4 4 2
7 -4 7 -7 0 -12 4 -12 10 0 6 9 6 26 0 35 -14 38 -13 23 8 -8 10 -4 9 11 -5
14 -11 34 -24 45 -27 11 -3 -1 -3 -27 -1 -63 6 -61 -1 4 -14 40 -9 53 -9 60 1
10 17 10 39 -1 35 -5 -1 -10 3 -10 8 -1 6 7 10 17 11 10 1 27 7 38 13 17 11
17 12 -6 7 -14 -3 -35 -6 -46 -6 -14 0 -24 -8 -28 -22 l-7 -23 -9 23 c-7 16
-18 22 -42 23 -18 1 -44 4 -57 8 -20 5 -21 8 -9 18 9 8 25 9 53 3 22 -5 81
-10 130 -11 122 -1 139 -7 143 -47 3 -25 8 -32 24 -32 17 0 20 5 16 35 -3 28
-1 34 12 31 8 -3 30 -7 48 -11 28 -6 32 -10 26 -28 -14 -46 -44 -47 -44 -1 0
13 -5 24 -10 24 -6 0 -8 -11 -4 -27 10 -40 14 -45 34 -40 21 5 32 -14 25 -40
-3 -10 6 7 21 37 14 30 28 76 31 103 l6 48 56 -3 56 -3 7 -45 c19 -111 133
-267 236 -323 141 -77 307 -42 378 79 23 38 28 63 33 138 5 76 9 91 24 94 12
2 17 -3 17 -18 0 -13 -4 -19 -12 -14 -8 5 -9 0 -4 -17 17 -57 19 -159 3 -202
-9 -23 -15 -58 -14 -77 2 -33 0 -35 -33 -40 l-34 -5 -13 -105 c-15 -127 -28
-179 -61 -245 -22 -43 -24 -57 -18 -120 8 -85 56 -233 73 -228 10 4 9 12 -3
35 -27 51 -44 110 -54 177 -8 60 -7 70 20 130 36 84 46 123 61 244 11 89 13
97 33 97 39 0 61 25 62 72 1 24 5 104 9 179 9 160 -3 235 -40 249 -27 10 -35
29 -35 81 0 40 -45 157 -57 145 -4 -3 -1 -12 5 -18 7 -7 12 -17 12 -22 0 -6
-12 7 -25 29 -19 30 -25 35 -25 19z m-19 -185 c31 -15 65 -39 76 -55 29 -42
57 -194 33 -179 -6 4 -10 -17 -10 -57 0 -45 -6 -72 -20 -95 -43 -72 -157 -122
-242 -109 -55 9 -136 49 -178 89 -49 46 -113 138 -103 147 4 5 39 1 77 -9 67
-16 70 -19 83 -56 21 -59 26 -108 11 -99 -9 5 -8 2 1 -10 8 -9 20 -15 28 -12
7 3 13 -1 13 -8 0 -8 7 -16 15 -20 11 -4 9 7 -9 42 -13 26 -32 73 -41 105 -15
53 -18 57 -53 62 -50 8 -134 26 -152 33 -12 4 -12 6 2 9 12 3 20 18 24 43 7
41 12 44 82 34 27 -4 32 -9 32 -31 0 -23 -3 -24 -27 -18 -36 9 -41 14 -23 25
9 6 10 10 3 10 -6 0 -15 -5 -18 -10 -4 -6 -10 -8 -15 -5 -4 3 -11 -2 -14 -11
-9 -24 -7 -31 10 -38 15 -6 15 -4 3 10 -15 18 -6 18 89 -2 30 -6 32 -5 32 24
0 20 -6 32 -17 36 -11 3 -7 4 7 3 20 -2 26 -8 30 -37 6 -44 33 -94 76 -143 34
-37 38 -45 35 -82 -1 -19 -1 -19 10 -2 15 25 3 66 -27 89 -38 31 -30 45 34 56
l57 11 -72 -5 c-44 -3 -74 -1 -78 5 -4 7 8 11 33 11 43 0 53 11 51 58 -1 23
-3 22 -11 -10 -9 -33 -14 -38 -40 -38 -24 0 -28 3 -23 19 4 13 0 23 -12 31
-14 8 -8 9 27 4 57 -8 48 4 -10 14 -24 4 -45 13 -48 20 -3 10 5 12 34 7 99
-16 94 -13 96 -58 1 -37 2 -38 5 -9 5 36 17 41 33 13 13 -26 13 -29 -7 -34
-10 -3 -5 -4 10 -4 25 1 27 4 22 27 -9 36 -31 57 -68 64 -62 13 -253 23 -309
17 l-58 -7 0 37 c0 92 94 130 315 126 127 -2 145 -4 196 -28z m-463 4 c-24
-10 -42 -27 -53 -49 -15 -32 -19 -34 -68 -34 -48 1 -54 4 -72 33 -12 19 -35
37 -55 44 -31 10 -20 12 95 15 72 2 144 4 160 5 30 1 30 1 -7 -14z m-771 -240
l1 -108 -10 75 c-8 62 -5 140 5 140 2 0 3 -48 4 -107z m773 85 c0 -7 -5 -20
-10 -28 -9 -13 -11 -13 -19 0 -6 9 -6 19 1 27 13 17 28 17 28 1z m-337 -48
c-7 -28 -13 -25 -13 6 0 14 4 23 9 20 5 -3 7 -15 4 -26z"/>
<path d="M2082 2908 c-7 -7 -12 -19 -12 -27 0 -12 6 -9 19 8 12 16 24 22 35
18 33 -13 17 -24 -98 -71 -22 -9 -37 -19 -34 -22 5 -4 72 17 129 41 11 4 29
-4 52 -24 19 -17 43 -31 53 -31 16 0 17 2 4 10 -46 29 -80 66 -80 87 0 19 -5
23 -28 23 -15 0 -33 -5 -40 -12z"/>
<path d="M1996 2882 c-4 -7 -11 -10 -16 -7 -16 10 -31 -22 -21 -46 9 -22 10
-22 11 11 1 22 4 29 8 19 10 -24 41 -9 32 15 -4 14 -9 16 -14 8z"/>
<path d="M2380 2696 c0 -16 3 -26 7 -23 3 4 18 0 31 -9 23 -15 25 -15 19 1 -4
9 -7 19 -7 21 0 2 -5 4 -11 4 -7 0 -18 8 -25 18 -12 15 -13 14 -14 -12z"/>
<path d="M2467 2700 c4 -16 7 -17 19 -5 19 18 18 25 -5 25 -14 0 -18 -5 -14
-20z"/>
<path d="M2066 2681 c5 -5 20 -12 34 -15 l25 -7 -25 15 c-28 17 -50 21 -34 7z"/>
<path d="M2101 2565 c49 -68 69 -79 23 -13 -21 32 -43 57 -47 58 -5 0 6 -20
24 -45z"/>
<path d="M2388 2585 c-28 -10 -38 -11 -42 -2 -9 23 -27 -17 -22 -51 3 -19 1
-30 -5 -27 -5 4 -9 1 -9 -4 0 -10 6 -12 28 -10 4 0 6 7 4 14 -2 12 3 12 33 -1
28 -11 44 -12 75 -4 22 6 40 15 40 21 0 6 -7 6 -19 -1 -44 -23 -145 0 -127 29
4 6 25 15 46 21 22 6 40 15 40 20 0 6 -1 10 -2 9 -2 0 -20 -7 -40 -14z"/>
<path d="M2215 2540 c-3 -5 3 -10 14 -10 12 0 21 5 21 10 0 6 -6 10 -14 10 -8
0 -18 -4 -21 -10z"/>
<path d="M2110 3091 c8 -5 35 -12 60 -15 29 -4 38 -3 25 3 -30 12 -103 23 -85
12z"/>
<path d="M1214 3055 c-4 -9 -4 -19 0 -22 3 -4 6 -1 6 6 0 7 4 10 9 7 5 -3 0
-23 -10 -43 -10 -21 -21 -54 -24 -73 l-5 -35 19 40 c10 22 16 44 13 49 -3 5 0
6 5 3 19 -12 34 18 24 46 -13 32 -29 43 -37 22z"/>
<path d="M2285 3000 c-30 -8 -30 -8 8 -9 21 0 50 -9 65 -18 l27 -17 -24 27
c-26 28 -29 29 -76 17z"/>
<path d="M1207 2897 c-11 -29 -9 -43 4 -30 6 6 9 19 7 29 -3 18 -4 18 -11 1z"/>
<path d="M1425 2863 c-11 -21 -21 -42 -23 -46 -3 -5 6 -3 19 3 12 7 34 16 48
21 24 7 24 7 -8 8 -28 1 -32 3 -21 16 6 8 10 19 8 25 -2 7 -12 -6 -23 -27z"/>
<path d="M1547 2882 c-25 -27 -20 -39 6 -15 12 11 29 23 37 26 10 4 9 6 -6 6
-11 1 -28 -7 -37 -17z"/>
<path d="M1611 2883 c-1 -15 -57 -41 -126 -58 -46 -12 -47 -13 -16 -14 19 -1
58 6 87 16 l53 16 40 -36 c23 -21 46 -37 52 -37 7 0 -9 18 -34 40 -25 22 -48
51 -50 63 -2 12 -5 16 -6 10z"/>
<path d="M330 2850 c-12 -8 -11 -10 8 -10 12 0 22 5 22 10 0 13 -11 13 -30 0z"/>
<path d="M1553 2803 c9 -2 25 -2 35 0 9 3 1 5 -18 5 -19 0 -27 -2 -17 -5z"/>
<path d="M1512 2720 c-18 -29 -17 -30 38 -30 28 0 50 5 50 10 0 6 -19 10 -42
10 -44 0 -43 15 2 23 23 4 22 4 -5 6 -20 1 -34 -6 -43 -19z"/>
<path d="M103 2713 c9 -2 25 -2 35 0 9 3 1 5 -18 5 -19 0 -27 -2 -17 -5z"/>
<path d="M645 2690 c-4 -6 15 -10 52 -9 48 1 53 3 28 9 -44 11 -73 11 -80 0z"/>
<path d="M2698 2693 c12 -2 30 -2 40 0 9 3 -1 5 -23 4 -22 0 -30 -2 -17 -4z"/>
<path d="M935 2680 c3 -5 18 -10 33 -10 21 0 24 2 12 10 -20 13 -53 13 -45 0z"/>
<path d="M1910 2672 c0 -20 58 -117 65 -110 6 5 -52 128 -60 128 -3 0 -5 -8
-5 -18z"/>
<path d="M1470 2670 c0 -14 26 -23 41 -15 8 6 7 10 -2 16 -19 12 -39 11 -39
-1z"/>
<path d="M2935 2670 c-4 -6 9 -10 31 -10 42 0 42 4 2 14 -15 3 -30 2 -33 -4z"/>
<path d="M0 2662 c0 -5 14 -7 30 -4 39 6 39 12 0 12 -17 0 -30 -4 -30 -8z"/>
<path d="M1530 2660 c0 -5 11 -10 25 -10 14 0 25 5 25 10 0 6 -11 10 -25 10
-14 0 -25 -4 -25 -10z"/>
<path d="M690 2639 c0 -5 11 -9 25 -9 14 0 25 2 25 4 0 2 -11 6 -25 8 -14 3
-25 1 -25 -3z"/>
<path d="M430 2630 c-22 -7 -20 -8 15 -9 22 0 47 4 55 9 11 7 8 9 -15 9 -16
-1 -41 -5 -55 -9z"/>
<path d="M155 2620 c-4 -6 11 -10 37 -10 31 0 39 3 28 10 -20 13 -57 13 -65 0z"/>
<path d="M947 2623 c18 -2 50 -2 70 0 21 2 7 4 -32 4 -38 0 -55 -2 -38 -4z"/>
<path d="M1375 2602 c6 -5 21 -13 35 -17 17 -5 22 -4 15 3 -5 5 -21 13 -35 17
-17 5 -22 4 -15 -3z"/>
<path d="M1527 2604 c-4 -4 -7 -15 -7 -25 0 -10 -12 -32 -27 -50 -26 -30 -26
-31 -4 -20 12 7 29 28 37 48 15 34 15 61 1 47z"/>
<path d="M1341 2576 c-1 -10 16 -34 37 -51 l37 -33 -24 -26 c-14 -14 -34 -26
-45 -26 -17 0 -18 -2 -6 -10 20 -12 69 19 77 49 5 20 -1 31 -29 55 -19 17 -38
38 -41 46 -4 11 -6 10 -6 -4z"/>
<path d="M195 2570 c28 -4 54 -3 59 1 6 5 -15 8 -50 8 l-59 -2 50 -7z"/>
<path d="M1562 2540 c-18 -22 -29 -40 -24 -40 7 0 36 34 56 68 13 23 1 12 -32
-28z"/>
<path d="M1050 2550 c8 -5 29 -9 45 -9 29 1 29 1 5 9 -14 4 -34 8 -45 9 -16 1
-17 -1 -5 -9z"/>
<path d="M265 2540 c3 -5 17 -10 31 -10 14 0 22 4 19 10 -3 6 -17 10 -31 10
-14 0 -22 -4 -19 -10z"/>
<path d="M820 2540 c8 -5 24 -10 35 -10 17 0 17 2 5 10 -8 5 -24 10 -35 10
-17 0 -17 -2 -5 -10z"/>
<path d="M960 2521 c-18 -6 -2 -9 60 -13 47 -2 93 -8 103 -12 10 -5 17 -4 17
2 0 5 -7 12 -15 16 -28 10 -140 15 -165 7z"/>
<path d="M2550 2521 c0 -5 -3 -17 -7 -27 -6 -15 -4 -15 14 2 20 19 21 34 2 34
-5 0 -9 -4 -9 -9z"/>
<path d="M975 2480 c3 -5 13 -10 21 -10 8 0 12 5 9 10 -3 6 -13 10 -21 10 -8
0 -12 -4 -9 -10z"/>
<path d="M1200 2459 c0 -28 13 -59 21 -53 14 8 10 40 -6 54 -12 10 -15 10 -15
-1z"/>
<path d="M34 2451 c5 -8 56 -3 56 5 0 2 -14 4 -31 4 -16 0 -28 -4 -25 -9z"/>
<path d="M960 2450 c19 -13 30 -13 30 0 0 6 -10 10 -22 10 -19 0 -20 -2 -8
-10z"/>
<path d="M2835 2440 c3 -5 13 -10 21 -10 8 0 12 5 9 10 -3 6 -13 10 -21 10 -8
0 -12 -4 -9 -10z"/>
<path d="M685 2425 c37 -8 75 -10 100 -5 48 9 45 10 -70 15 l-90 3 60 -13z"/>
<path d="M1130 2426 c14 -9 34 -15 45 -16 30 0 5 17 -35 24 -35 7 -35 7 -10
-8z"/>
<path d="M135 2423 c-33 -2 -64 -9 -70 -15 -7 -8 -5 -9 8 -4 10 3 45 6 78 6
33 0 59 4 59 10 0 6 -3 9 -7 8 -5 -1 -35 -3 -68 -5z"/>
<path d="M530 2426 c0 -2 14 -6 30 -8 17 -3 30 -1 30 4 0 4 -13 8 -30 8 -16 0
-30 -2 -30 -4z"/>
<path d="M929 2415 c32 -12 50 -14 65 -7 20 10 20 11 -4 11 -14 1 -43 4 -65 7
l-40 5 44 -16z"/>
<path d="M1221 2384 c-26 -33 -26 -39 1 -58 32 -22 38 -20 38 14 0 34 -7 38
-26 13 -10 -14 -13 -15 -14 -4 0 8 7 23 17 33 9 10 14 21 11 24 -3 3 -15 -7
-27 -22z"/>
<path d="M2043 2378 c15 -19 27 -47 27 -62 0 -22 -8 -30 -42 -46 -37 -17 -40
-20 -17 -20 35 0 79 36 79 64 0 26 -38 87 -59 94 -8 3 -2 -11 12 -30z"/>
<path d="M2880 2400 c0 -8 34 -20 59 -20 21 0 8 9 -28 20 -17 5 -31 5 -31 0z"/>
<path d="M1011 2396 c12 -10 60 -16 54 -6 -3 5 -18 10 -32 10 -15 0 -24 -2
-22 -4z"/>
<path d="M1956 2385 c4 -8 16 -15 27 -15 20 0 20 0 1 15 -25 19 -35 19 -28 0z"/>
<path d="M613 2383 c9 -2 25 -2 35 0 9 3 1 5 -18 5 -19 0 -27 -2 -17 -5z"/>
<path d="M1100 2368 c0 -4 14 -8 30 -8 17 0 30 2 30 4 0 2 -13 6 -30 8 -16 3
-30 1 -30 -4z"/>
<path d="M1654 2345 c-18 -44 -18 -47 7 -79 15 -19 29 -26 52 -25 l32 1 -28 8
c-58 18 -73 56 -41 105 11 17 12 25 5 25 -7 0 -19 -16 -27 -35z"/>
<path d="M353 2363 c9 -2 25 -2 35 0 9 3 1 5 -18 5 -19 0 -27 -2 -17 -5z"/>
<path d="M860 2361 c8 -5 56 -11 105 -14 50 -3 81 -2 70 2 -28 11 -193 22
-175 12z"/>
<path d="M2655 2350 c11 -5 29 -9 40 -9 20 0 20 0 0 9 -11 5 -29 9 -40 9 -20
0 -20 0 0 -9z"/>
<path d="M210 2338 c0 -4 42 -7 93 -7 101 2 93 6 -20 11 -40 2 -73 0 -73 -4z"/>
<path d="M2795 2340 c3 -5 16 -10 28 -10 18 0 19 2 7 10 -20 13 -43 13 -35 0z"/>
<path d="M30 2324 l-25 -14 33 0 c22 0 31 4 26 11 -5 9 9 10 50 7 31 -3 56 -1
56 4 0 13 -113 7 -140 -8z"/>
<path d="M625 2333 c14 -15 95 -26 95 -13 0 5 -8 10 -19 10 -10 0 -34 3 -52 6
-23 5 -31 3 -24 -3z"/>
<path d="M835 2329 c22 -5 87 -13 145 -19 237 -23 249 -22 95 5 -94 16 -304
29 -240 14z"/>
<path d="M1061 2336 c10 -9 79 -14 74 -5 -4 5 -22 9 -42 9 -20 0 -34 -2 -32
-4z"/>
<path d="M577 2299 c-32 -5 -65 -13 -75 -19 -13 -9 -8 -10 23 -5 22 3 61 8 88
12 26 3 47 10 47 14 0 10 -2 10 -83 -2z"/>
<path d="M1370 2300 c-12 -8 -11 -10 8 -10 12 0 22 5 22 10 0 13 -11 13 -30 0z"/>
<path d="M1718 2303 c-9 -2 -18 -10 -21 -16 -3 -8 8 -11 38 -9 24 2 53 -1 65
-8 12 -6 24 -9 27 -7 5 6 -71 48 -84 46 -4 -1 -15 -3 -25 -6z"/>
<path d="M1912 2284 c-54 -32 -49 -43 7 -15 22 12 56 21 76 21 19 0 35 5 35
10 0 20 -75 10 -118 -16z"/>
<path d="M198 2293 c12 -2 30 -2 40 0 9 3 -1 5 -23 4 -22 0 -30 -2 -17 -4z"/>
<path d="M1005 2290 c11 -5 29 -9 40 -9 20 0 20 0 0 9 -11 5 -29 9 -40 9 -20
0 -20 0 0 -9z"/>
<path d="M680 2280 c0 -6 23 -10 52 -10 62 0 60 5 -4 13 -29 4 -48 3 -48 -3z"/>
<path d="M195 2269 c-25 -5 -3 -6 57 -4 53 2 112 0 132 -5 20 -4 36 -4 36 0 0
19 -140 24 -225 9z"/>
<path d="M825 2264 l-40 -14 40 5 c22 3 54 5 70 6 26 0 27 2 10 9 -26 11 -33
11 -80 -6z"/>
<path d="M60 2250 c-12 -8 -9 -10 12 -10 15 0 30 5 33 10 8 13 -25 13 -45 0z"/>
<path d="M564 2244 c-18 -15 -18 -15 11 -9 37 8 57 25 29 25 -11 0 -29 -7 -40
-16z"/>
<path d="M934 2252 c4 -7 16 -12 27 -12 11 0 31 -7 45 -16 13 -9 27 -14 30
-12 8 8 -44 38 -78 45 -22 4 -29 3 -24 -5z"/>
<path d="M285 2240 c28 -12 57 -12 50 0 -3 6 -21 10 -38 9 -27 0 -29 -2 -12
-9z"/>
<path d="M1155 2240 c3 -5 15 -10 26 -10 11 0 17 5 14 10 -3 6 -15 10 -26 10
-11 0 -17 -4 -14 -10z"/>
<path d="M365 2220 c3 -5 13 -10 21 -10 8 0 12 5 9 10 -3 6 -13 10 -21 10 -8
0 -12 -4 -9 -10z"/>
<path d="M231 2206 c11 -9 69 -14 69 -6 0 6 -16 10 -37 10 -20 0 -34 -2 -32
-4z"/>
<path d="M650 2200 c-10 -7 13 -9 73 -8 51 0 83 5 75 9 -18 12 -130 11 -148
-1z"/>
<path d="M915 2200 c3 -5 18 -10 32 -10 32 0 28 5 -10 14 -19 4 -26 3 -22 -4z"/>
<path d="M2635 2200 c3 -5 15 -10 26 -10 11 0 17 5 14 10 -3 6 -15 10 -26 10
-11 0 -17 -4 -14 -10z"/>
<path d="M5 2190 c-3 -5 1 -10 9 -10 8 0 18 5 21 10 3 6 -1 10 -9 10 -8 0 -18
-4 -21 -10z"/>
<path d="M546 2191 c-3 -5 12 -9 34 -9 23 -1 38 3 35 9 -8 12 -62 12 -69 0z"/>
<path d="M450 2182 c0 -11 147 -42 200 -42 33 0 41 3 30 10 -8 5 -43 10 -76
10 -34 0 -81 7 -104 15 -49 17 -50 18 -50 7z"/>
<path d="M1013 2178 c21 -7 32 -7 40 1 8 8 0 11 -28 10 -40 -1 -40 -1 -12 -11z"/>
<path d="M2702 2185 c10 -11 68 -23 68 -15 0 4 -10 10 -22 14 -29 7 -53 8 -46
1z"/>
<path d="M255 2170 c11 -5 49 -9 85 -10 36 0 76 -7 90 -15 14 -8 43 -14 65
-14 l40 1 -35 10 c-19 5 -55 16 -80 23 -48 15 -201 19 -165 5z"/>
<path d="M1145 2170 c28 -12 55 -12 55 0 0 6 -17 10 -37 9 -31 0 -34 -2 -18
-9z"/>
<path d="M1225 2150 c-20 -9 -20 -9 0 -9 11 0 27 4 35 9 13 9 13 10 0 9 -8 0
-24 -4 -35 -9z"/>
<path d="M722 2136 c-66 -14 -57 -26 17 -25 47 1 51 3 26 9 l-30 8 27 1 c15 0
30 6 33 11 7 12 -3 11 -73 -4z"/>
<path d="M930 2141 c0 -4 34 -19 75 -33 41 -14 75 -22 75 -18 0 5 -34 20 -75
33 -41 14 -75 22 -75 18z"/>
<path d="M38 2133 c-21 -2 -38 -8 -38 -14 0 -9 12 -8 125 10 l50 9 -50 -1
c-27 0 -67 -2 -87 -4z"/>
<path d="M837 2129 c8 -8 16 -8 30 0 16 9 14 10 -11 11 -22 0 -27 -3 -19 -11z"/>
<path d="M1235 2130 c-16 -7 -13 -9 17 -9 24 -1 40 -7 47 -18 13 -24 21 -13
10 15 -9 23 -37 28 -74 12z"/>
<path d="M2925 2130 c22 -4 49 -10 60 -14 20 -8 20 -7 1 8 -12 9 -37 15 -60
15 l-41 -2 40 -7z"/>
<path d="M224 2121 c3 -5 -31 -13 -77 -17 l-82 -8 120 -7 c91 -5 144 -14 219
-37 55 -17 106 -27 115 -24 12 4 8 8 -14 14 -131 32 -171 43 -175 49 -3 4 -23
9 -45 11 -25 2 -39 8 -37 16 1 6 -5 12 -14 12 -8 0 -13 -4 -10 -9z"/>
<path d="M334 2115 c11 -8 34 -14 50 -14 20 1 24 3 11 6 -11 2 -33 8 -50 13
-28 9 -29 9 -11 -5z"/>
<path d="M1115 2110 c-3 -5 1 -10 9 -10 8 0 18 5 21 10 3 6 -1 10 -9 10 -8 0
-18 -4 -21 -10z"/>
<path d="M1360 2098 c0 -15 5 -30 10 -33 13 -8 13 25 0 45 -8 12 -10 9 -10
-12z"/>
<path d="M503 2090 c36 -20 137 -29 137 -12 0 4 -17 6 -38 4 -21 -2 -56 3 -76
12 -54 22 -68 20 -23 -4z"/>
<path d="M1814 2100 c-27 -4 -63 -15 -80 -23 -36 -20 -22 -21 31 -2 22 8 57
14 77 15 20 0 40 5 43 10 7 11 3 11 -71 0z"/>
<path d="M1910 2103 c0 -4 10 -8 23 -8 12 -1 40 -4 62 -9 26 -5 37 -4 30 2
-13 13 -115 26 -115 15z"/>
<path d="M2849 2101 c15 -10 155 -12 146 -3 -3 3 -40 7 -83 8 -46 2 -71 0 -63
-5z"/>
<path d="M830 2089 c-11 -8 -1 -9 39 -5 32 3 60 1 67 -5 7 -6 32 -8 56 -6 l43
4 -47 1 c-27 1 -48 7 -48 12 0 13 -91 13 -110 -1z"/>
<path d="M698 2083 c12 -2 30 -2 40 0 9 3 -1 5 -23 4 -22 0 -30 -2 -17 -4z"/>
<path d="M765 2071 c-16 -8 -56 -17 -88 -19 -31 -2 -60 -9 -64 -15 -4 -7 5 -8
25 -4 19 4 32 2 32 -3 0 -6 10 -10 23 -10 14 0 18 3 10 8 -8 5 3 12 30 20 44
12 75 28 67 35 -3 2 -18 -3 -35 -12z"/>
<path d="M1105 2069 c4 -5 54 -10 113 -10 59 -1 97 -4 85 -6 -33 -6 -28 -23 7
-23 32 0 38 11 17 29 -17 13 -230 24 -222 10z"/>
<path d="M0 2062 c0 -4 17 -6 38 -4 58 5 62 10 10 11 -27 1 -48 -3 -48 -7z"/>
<path d="M1975 2059 c-38 -5 -128 -10 -200 -12 -91 -2 -138 -7 -155 -17 l-25
-15 24 -3 c13 -2 42 1 65 7 23 6 59 11 81 11 164 1 195 3 195 12 0 5 15 9 33
7 76 -5 162 1 147 11 -17 11 -67 11 -165 -1z"/>
<path d="M2735 2060 c-3 -5 1 -10 9 -10 8 0 18 5 21 10 3 6 -1 10 -9 10 -8 0
-18 -4 -21 -10z"/>
<path d="M2840 2060 c8 -5 25 -10 38 -10 12 0 22 -4 22 -10 0 -5 23 -10 50
-10 63 0 66 15 4 16 -25 1 -51 7 -57 13 -6 6 -25 11 -41 11 -24 0 -27 -3 -16
-10z"/>
<path d="M905 2044 c32 -8 66 -11 75 -8 16 8 -53 23 -105 22 -20 0 -10 -5 30
-14z"/>
<path d="M773 2020 c27 -15 47 -19 68 -15 18 4 50 -1 86 -14 55 -19 182 -49
248 -57 46 -6 -84 35 -135 42 -25 4 -49 10 -55 14 -14 11 -112 33 -154 34 -20
1 -49 5 -66 10 -27 6 -27 5 8 -14z"/>
<path d="M1380 2021 c0 -21 55 -137 84 -176 13 -18 12 -21 -7 -33 -22 -13 -21
-13 4 -8 20 4 34 -3 70 -40 50 -51 158 -130 206 -150 37 -16 163 -18 267 -4
57 7 80 16 135 54 76 52 184 146 177 154 -3 2 -22 -10 -43 -27 -176 -150 -209
-166 -378 -176 l-100 -7 -70 36 c-143 72 -261 198 -315 336 -25 65 -30 71 -30
41z"/>
<path d="M2685 2031 c-4 -7 4 -11 19 -11 14 0 28 -4 31 -10 3 -5 27 -10 53 -9
l47 1 -55 13 c-30 7 -62 16 -71 19 -10 4 -20 3 -24 -3z"/>
<path d="M1185 2020 c45 -11 87 -11 80 0 -3 6 -30 9 -58 9 -45 -1 -48 -2 -22
-9z"/>
<path d="M365 2010 c-4 -6 -17 -15 -29 -20 -20 -8 -19 -9 5 -9 16 -1 29 6 33
15 8 20 1 30 -9 14z"/>
<path d="M133 1995 c-68 -6 -126 -15 -130 -20 -5 -4 10 -5 32 -2 22 4 89 10
148 13 64 4 103 10 95 15 -7 5 -15 8 -18 8 -3 -1 -60 -7 -127 -14z"/>
<path d="M415 2000 c-20 -9 -20 -9 0 -9 11 0 38 4 60 8 l40 9 -40 0 c-22 0
-49 -3 -60 -8z"/>
<path d="M680 2000 c0 -5 17 -10 38 -10 27 0 33 3 22 10 -20 13 -60 13 -60 0z"/>
<path d="M1050 2000 c20 -13 53 -13 45 0 -3 6 -18 10 -33 10 -21 0 -24 -2 -12
-10z"/>
<path d="M1980 1990 c-12 -8 -11 -10 7 -10 12 0 25 5 28 10 8 13 -15 13 -35 0z"/>
<path d="M2775 1991 l-70 -6 49 -8 c28 -4 65 -3 87 3 40 11 52 21 22 18 -10
-1 -49 -4 -88 -7z"/>
<path d="M535 1981 c-13 -5 26 -9 104 -10 67 0 127 -4 132 -7 5 -3 9 0 9 5 0
6 -17 11 -38 11 -22 0 -72 2 -113 5 -41 3 -83 1 -94 -4z"/>
<path d="M1110 1986 c0 -9 107 -34 168 -40 56 -5 63 -4 60 11 -2 9 -9 18 -17
21 -8 3 -11 0 -7 -7 10 -16 -51 -14 -110 4 -47 14 -94 20 -94 11z"/>
<path d="M226 1972 c-2 -4 12 -6 32 -4 56 5 62 10 15 11 -23 1 -44 -3 -47 -7z"/>
<path d="M2665 1969 c4 -5 22 -9 42 -9 45 0 40 5 -10 13 -22 3 -35 2 -32 -4z"/>
<path d="M2955 1970 c3 -5 15 -10 26 -10 10 0 19 5 19 10 0 6 -12 10 -26 10
-14 0 -23 -4 -19 -10z"/>
<path d="M333 1963 c9 -2 25 -2 35 0 9 3 1 5 -18 5 -19 0 -27 -2 -17 -5z"/>
<path d="M920 1960 c25 -5 56 -12 70 -15 18 -5 22 -3 14 5 -6 6 -38 13 -70 15
-58 4 -58 4 -14 -5z"/>
<path d="M52 1948 c-28 -5 -52 -13 -52 -18 0 -8 119 16 129 25 6 6 -13 5 -77
-7z"/>
<path d="M457 1953 c-9 -2 -15 -8 -12 -13 6 -10 45 -1 45 11 0 9 -4 10 -33 2z"/>
<path d="M630 1940 c-31 -7 -29 -8 22 -9 31 0 60 4 63 9 7 11 -31 11 -85 0z"/>
<path d="M835 1940 c3 -5 15 -10 25 -10 10 0 22 5 25 10 4 6 -7 10 -25 10 -18
0 -29 -4 -25 -10z"/>
<path d="M2530 1939 c62 -18 84 -21 110 -10 24 9 23 10 -11 10 -20 1 -58 3
-85 6 -47 4 -47 4 -14 -6z"/>
<path d="M2730 1940 c-12 -8 -9 -10 13 -10 15 0 27 5 27 10 0 13 -20 13 -40 0z"/>
<path d="M2366 1890 c-20 -27 -32 -50 -26 -50 11 0 74 89 67 96 -2 3 -21 -18
-41 -46z"/>
<path d="M2803 1933 c9 -2 25 -2 35 0 9 3 1 5 -18 5 -19 0 -27 -2 -17 -5z"/>
<path d="M2965 1930 l-30 -8 33 -1 c17 0 32 4 32 9 0 6 -1 9 -2 9 -2 -1 -16
-5 -33 -9z"/>
<path d="M70 1919 c-30 -5 -58 -13 -63 -18 -16 -16 94 -1 178 24 22 7 -64 2
-115 -6z"/>
<path d="M327 1918 c21 -7 44 -7 70 0 36 9 34 10 -32 10 -62 0 -66 -1 -38 -10z"/>
<path d="M505 1923 c-11 -3 -24 -10 -30 -15 -13 -13 46 -1 60 13 10 10 4 10
-30 2z"/>
<path d="M1854 1918 c-7 -11 22 -21 36 -13 6 4 17 1 25 -5 10 -8 15 -9 15 -2
0 23 -64 39 -76 20z"/>
<path d="M2470 1920 c0 -5 21 -10 48 -9 38 1 42 2 22 9 -36 12 -70 12 -70 0z"/>
<path d="M544 1903 c-7 -7 -19 -13 -26 -13 -8 0 -19 -5 -24 -10 -7 -7 -26 -5
-60 5 -58 18 -54 17 -54 6 0 -11 54 -31 82 -31 10 0 38 9 60 20 23 11 58 21
77 21 20 1 50 5 66 9 21 5 9 7 -39 6 -41 -1 -75 -6 -82 -13z"/>
<path d="M944 1910 c17 -6 36 -5 45 0 11 7 3 9 -29 9 -42 -1 -43 -1 -16 -9z"/>
<path d="M1320 1910 c-24 -8 -23 -8 8 -9 17 -1 32 4 32 9 0 11 -5 11 -40 0z"/>
<path d="M2653 1913 c9 -2 25 -2 35 0 9 3 1 5 -18 5 -19 0 -27 -2 -17 -5z"/>
<path d="M1142 1904 c13 -12 114 -30 138 -24 19 5 10 9 -41 18 -72 13 -106 15
-97 6z"/>
<path d="M2706 1901 c-5 -7 3 -11 21 -11 15 0 48 -6 73 -14 54 -16 154 -30
125 -17 -11 5 -54 16 -95 25 -41 9 -85 19 -96 22 -12 3 -25 1 -28 -5z"/>
<path d="M180 1889 c0 -19 139 -24 163 -6 14 10 2 12 -73 12 -49 0 -90 -2 -90
-6z"/>
<path d="M735 1890 c27 -12 35 -12 35 0 0 6 -12 10 -27 9 -25 0 -26 -1 -8 -9z"/>
<path d="M1020 1887 c30 -17 134 -32 126 -19 -3 6 -27 13 -53 17 -27 3 -59 9
-73 11 l-25 5 25 -14z"/>
<path d="M2563 1890 c-13 -5 -23 -12 -23 -14 0 -3 7 -3 15 0 8 4 39 10 68 14
l52 8 -45 0 c-25 0 -55 -3 -67 -8z"/>
<path d="M833 1883 c9 -2 25 -2 35 0 9 3 1 5 -18 5 -19 0 -27 -2 -17 -5z"/>
<path d="M558 1873 c-28 -7 -21 -22 10 -21 15 1 52 -2 82 -5 l55 -6 -57 11
c-32 5 -58 14 -58 19 0 9 -4 10 -32 2z"/>
<path d="M796 1870 c11 -10 82 -25 72 -15 -3 4 -23 11 -43 15 -21 5 -34 5 -29
0z"/>
<path d="M2663 1873 c9 -2 25 -2 35 0 9 3 1 5 -18 5 -19 0 -27 -2 -17 -5z"/>
<path d="M65 1860 l-30 -8 33 -1 c17 0 32 4 32 9 0 6 -1 9 -2 9 -2 -1 -16 -5
-33 -9z"/>
<path d="M746 1855 c10 -8 30 -14 44 -14 24 1 24 1 -5 14 -41 19 -65 19 -39 0z"/>
<path d="M2550 1863 c-14 -3 -29 -9 -35 -15 -7 -7 -2 -8 15 -2 14 4 52 8 85 7
42 0 52 2 35 7 -28 9 -62 10 -100 3z"/>
<path d="M940 1850 c-21 -7 -19 -8 18 -9 23 -1 42 4 42 9 0 12 -24 12 -60 0z"/>
<path d="M1267 1847 c-7 -4 -25 -7 -42 -6 -16 0 -48 0 -70 -1 -35 -3 -32 -4
20 -10 33 -4 68 -3 77 2 9 4 46 8 82 8 36 0 66 4 66 9 0 11 -117 10 -133 -2z"/>
<path d="M2725 1850 c3 -5 19 -10 36 -10 16 0 29 5 29 10 0 6 -16 10 -36 10
-21 0 -33 -4 -29 -10z"/>
<path d="M310 1840 c20 -13 53 -13 45 0 -3 6 -18 10 -33 10 -21 0 -24 -2 -12
-10z"/>
<path d="M2820 1842 c0 -9 70 -23 79 -16 8 7 -4 12 -41 19 -24 5 -38 3 -38 -3z"/>
<path d="M2950 1840 c0 -5 12 -10 28 -10 21 0 24 2 12 10 -20 13 -40 13 -40 0z"/>
<path d="M866 1831 c5 -5 23 -12 39 -16 l30 -6 -25 15 c-28 17 -60 22 -44 7z"/>
<path d="M1040 1829 c-32 -7 -31 -8 13 -5 59 4 60 -16 1 -24 -34 -5 -36 -6
-13 -11 36 -8 71 7 67 28 -4 21 -20 24 -68 12z"/>
<path d="M20 1821 c0 -12 78 -19 110 -11 22 6 21 7 -15 13 -56 9 -95 9 -95 -2z"/>
<path d="M353 1812 c-18 -9 -33 -20 -33 -24 0 -12 28 -9 36 3 3 6 20 17 38 25
22 9 25 13 11 13 -11 0 -35 -8 -52 -17z"/>
<path d="M489 1809 c-21 -18 -21 -20 -4 -14 11 4 48 6 82 6 33 -1 64 2 67 7 3
5 -18 7 -47 5 -38 -2 -47 -1 -32 6 17 8 16 10 -11 10 -19 1 -42 -8 -55 -20z"/>
<path d="M710 1818 c0 -5 9 -8 19 -8 28 0 37 -20 9 -21 -18 -1 -19 -2 -5 -6
10 -3 25 1 33 7 14 12 67 9 111 -6 17 -6 17 -6 1 11 -12 13 -39 20 -92 24 -42
4 -76 3 -76 -1z"/>
<path d="M2480 1820 c-12 -8 -11 -10 7 -10 12 0 25 5 28 10 8 13 -15 13 -35 0z"/>
<path d="M2694 1822 c3 -3 39 -7 78 -9 40 -2 70 -1 67 2 -3 3 -38 7 -78 9 -40
2 -70 2 -67 -2z"/>
<path d="M2926 1820 c5 -5 25 -12 44 -15 l35 -5 -35 14 c-42 18 -58 20 -44 6z"/>
<path d="M400 1800 l-35 -19 35 0 c26 -1 31 2 20 9 -12 8 -11 10 7 10 12 0 25
5 28 10 10 16 -17 11 -55 -10z"/>
<path d="M1150 1810 c8 -5 26 -10 40 -10 20 0 22 2 10 10 -8 5 -26 10 -40 10
-20 0 -22 -2 -10 -10z"/>
<path d="M1355 1810 l-40 -7 45 -1 c25 -1 52 3 60 8 12 8 11 9 -5 8 -11 0 -38
-4 -60 -8z"/>
<path d="M2610 1800 c-24 -8 -23 -8 8 -9 20 -1 31 3 27 9 -3 6 -7 10 -8 9 -1
-1 -13 -5 -27 -9z"/>
<path d="M220 1789 c0 -5 6 -9 14 -9 8 0 22 -3 32 -7 11 -4 15 -3 11 4 -8 13
-57 23 -57 12z"/>
<path d="M0 1780 c0 -5 29 -9 66 -8 39 1 60 4 52 9 -18 12 -118 11 -118 -1z"/>
<path d="M145 1780 c3 -5 17 -10 31 -10 14 0 22 4 19 10 -3 6 -17 10 -31 10
-14 0 -22 -4 -19 -10z"/>
<path d="M560 1775 l-75 -13 70 4 c39 3 80 5 92 6 13 0 20 4 17 9 -6 10 -5 10
-104 -6z"/>
<path d="M953 1779 c21 -5 51 -16 68 -24 16 -9 35 -13 41 -9 6 4 8 3 4 -4 -5
-9 29 -23 69 -28 6 0 17 -4 27 -8 9 -4 29 -6 45 -3 26 4 26 4 -7 7 l-35 3 35
7 c33 7 32 7 -17 9 -58 1 -85 9 -78 22 3 4 -11 11 -32 14 -21 4 -48 10 -61 16
-13 5 -40 9 -60 8 l-37 -1 38 -9z"/>
<path d="M1134 1783 c15 -4 16 -7 5 -14 -17 -10 36 -10 126 0 58 7 59 7 24 15
-21 4 -53 3 -79 -4 -30 -8 -46 -8 -53 -1 -6 6 -18 10 -26 10 -11 -1 -10 -3 3
-6z"/>
<path d="M2501 1786 c2 -2 27 -6 54 -10 36 -5 46 -4 35 3 -13 10 -99 16 -89 7z"/>
<path d="M2660 1781 c0 -9 49 -22 79 -20 12 0 11 2 -4 8 -39 15 -75 21 -75 12z"/>
<path d="M1370 1770 c0 -5 16 -10 36 -10 21 0 33 4 29 10 -3 6 -19 10 -36 10
-16 0 -29 -4 -29 -10z"/>
<path d="M2780 1771 c0 -7 10 -9 28 -5 15 4 23 3 19 -2 -10 -10 82 -33 136
-34 21 0 37 5 37 11 0 6 -7 8 -16 5 -9 -4 -39 -3 -68 0 -38 6 -46 9 -31 15 18
7 17 8 -5 8 -14 1 -42 4 -62 7 -26 5 -38 3 -38 -5z"/>
<path d="M2955 1770 c-4 -6 5 -10 20 -10 15 0 24 4 20 10 -3 6 -12 10 -20 10
-8 0 -17 -4 -20 -10z"/>
<path d="M324 1755 c11 -8 25 -15 30 -15 6 0 2 7 -8 15 -11 8 -25 15 -30 15
-6 0 -2 -7 8 -15z"/>
<path d="M979 1740 c30 -11 57 -18 59 -15 7 6 -68 35 -92 35 -11 -1 3 -10 33
-20z"/>
<path d="M1473 1750 c-32 -13 -29 -15 20 -16 23 0 33 1 23 4 -15 3 -16 6 -5
13 12 7 12 9 -1 8 -8 0 -25 -4 -37 -9z"/>
<path d="M70 1740 c-24 -8 -23 -8 8 -9 20 -1 31 3 27 9 -3 6 -7 10 -8 9 -1 -1
-13 -5 -27 -9z"/>
<path d="M190 1746 c0 -9 36 -22 83 -30 20 -4 37 -3 37 2 0 5 -19 12 -43 15
-24 3 -51 9 -60 13 -9 3 -17 3 -17 0z"/>
<path d="M750 1738 c85 -16 181 -21 193 -9 13 13 21 12 -133 15 -82 2 -95 0
-60 -6z"/>
<path d="M1295 1740 l-50 -7 50 -1 c28 -1 57 3 65 8 17 11 17 11 -65 0z"/>
<path d="M2688 1745 c-3 -3 -36 -6 -74 -7 -45 -1 -61 -4 -47 -9 12 -4 52 -3
89 2 67 9 96 19 57 19 -11 0 -22 -2 -25 -5z"/>
<path d="M2725 1733 c-39 -9 -38 -22 1 -16 49 7 80 23 44 22 -14 -1 -34 -3
-45 -6z"/>
<path d="M150 1716 c14 -8 52 -18 85 -22 33 -3 77 -13 99 -20 43 -16 96 -18
96 -5 0 5 -21 11 -47 14 -27 3 -82 13 -123 21 -41 9 -88 18 -105 21 l-30 6 25
-15z"/>
<path d="M545 1715 c-55 -18 -16 -18 95 -1 l85 14 -70 0 c-38 0 -88 -6 -110
-13z"/>
<path d="M1524 1704 c-13 -16 -33 -27 -55 -29 -19 -2 -56 -11 -84 -20 -29 -10
-91 -19 -145 -20 -52 -2 -105 -7 -117 -10 -13 -4 -23 -3 -23 2 0 5 -52 7 -127
5 -71 -3 -156 -5 -190 -5 -35 -1 -63 -4 -63 -8 0 -12 133 -15 175 -3 41 11
100 10 214 -2 52 -6 63 -5 56 6 -6 10 -2 12 16 7 13 -4 31 -7 39 -8 8 -1 -16
-10 -55 -20 l-70 -18 54 5 c30 3 62 9 72 15 10 5 29 9 43 9 14 0 28 5 31 10 3
6 19 10 34 10 15 0 61 9 102 20 41 12 84 22 97 24 35 5 49 23 32 41 -13 12
-18 11 -36 -11z"/>
<path d="M375 1710 c53 -12 114 -12 97 -1 -7 4 -41 8 -75 9 -58 0 -59 0 -22
-8z"/>
<path d="M2590 1711 l-65 -6 78 -6 c43 -3 83 -11 90 -18 13 -13 53 -13 82 -1
14 7 8 8 -19 3 -25 -4 -37 -2 -33 4 4 6 1 11 -6 10 -6 0 -25 1 -42 2 -23 1
-27 3 -15 11 8 5 11 9 5 8 -5 -1 -39 -4 -75 -7z"/>
<path d="M2776 1711 c-6 -9 124 -4 133 5 2 2 -25 4 -62 4 -36 0 -68 -4 -71 -9z"/>
<path d="M32 1699 c-17 -5 -32 -12 -32 -15 0 -8 63 6 75 17 11 11 1 10 -43 -2z"/>
<path d="M802 1703 c-6 -3 -10 -9 -6 -14 3 -5 -2 -9 -11 -9 -9 0 -13 5 -10 10
3 6 2 10 -3 10 -12 0 -23 -26 -15 -34 13 -13 43 -5 53 15 13 23 11 28 -8 22z"/>
<path d="M1330 1701 c0 -8 90 -3 99 5 2 2 -19 4 -47 4 -29 0 -52 -4 -52 -9z"/>
<path d="M621 1689 c-13 -5 -55 -10 -92 -11 -37 0 -74 -5 -81 -10 -8 -6 23 -7
82 -2 52 4 119 8 148 8 53 1 70 12 30 20 -35 6 -61 5 -87 -5z"/>
<path d="M1015 1692 c15 -14 75 -32 104 -31 24 0 23 2 -9 13 -48 18 -107 28
-95 18z"/>
<path d="M855 1680 c-3 -5 2 -10 12 -10 14 0 15 -2 5 -9 -9 -5 -3 -8 17 -7 38
1 39 9 6 24 -31 14 -32 15 -40 2z"/>
<path d="M2885 1683 c50 -7 53 -23 5 -24 -25 -1 -56 -5 -70 -9 -16 -5 13 -8
77 -7 103 2 129 10 73 22 -16 4 -32 11 -35 16 -4 5 -23 8 -43 8 -34 -2 -34 -2
-7 -6z"/>
<path d="M162 1671 c9 -6 52 -13 95 -16 64 -3 70 -2 33 5 -88 17 -146 22 -128
11z"/>
<path d="M986 1670 c5 -5 25 -12 44 -15 l35 -6 -34 15 c-38 18 -60 21 -45 6z"/>
<path d="M2524 1673 c7 -7 77 -5 85 2 2 3 -17 5 -44 5 -27 0 -45 -3 -41 -7z"/>
<path d="M2795 1670 c-7 -12 12 -12 40 0 18 8 17 9 -7 9 -15 1 -30 -3 -33 -9z"/>
<path d="M80 1648 c62 -20 256 -33 265 -18 2 4 -37 7 -88 9 -56 1 -103 8 -121
17 -16 7 -50 14 -75 13 l-46 0 65 -21z"/>
<path d="M1195 1660 c-19 -8 -19 -9 2 -9 12 -1 25 4 28 9 7 12 -2 12 -30 0z"/>
<path d="M1258 1663 c12 -2 30 -2 40 0 9 3 -1 5 -23 4 -22 0 -30 -2 -17 -4z"/>
<path d="M1517 1640 c-38 -33 -97 -139 -128 -227 -39 -113 -15 -237 57 -305
51 -47 142 -95 205 -107 64 -13 192 -7 219 10 10 7 2 8 -25 3 -62 -10 -175 -5
-230 11 -28 8 -75 31 -105 52 -110 76 -149 180 -115 299 24 86 91 213 133 257
43 44 36 49 -11 7z"/>
<path d="M637 1650 c4 -4 44 -10 88 -13 59 -4 72 -3 50 4 -36 12 -149 19 -138
9z"/>
<path d="M1553 1605 c-37 -73 -73 -186 -73 -229 0 -96 61 -176 165 -216 81
-30 204 -31 340 -1 278 61 415 130 570 285 44 45 83 81 87 81 10 0 22 15 12
15 -5 0 -20 10 -34 21 l-25 21 33 -6 c18 -3 45 -15 61 -27 23 -17 37 -20 68
-14 55 10 120 11 188 3 40 -5 53 -5 38 2 -36 15 -189 24 -197 11 -4 -6 -22
-11 -39 -10 -31 1 -31 1 -7 9 22 7 21 8 -12 9 -41 1 -52 17 -15 23 12 2 -11 7
-51 12 -41 4 -75 6 -77 4 -2 -2 3 -18 12 -35 15 -32 15 -33 -28 -82 -123 -140
-286 -232 -510 -287 -229 -56 -331 -56 -449 4 -78 39 -116 113 -100 198 7 38
7 38 17 14 9 -21 10 -15 9 35 -1 45 6 76 27 127 37 87 29 111 -10 33z"/>
<path d="M2580 1647 c27 -15 153 -30 145 -17 -2 4 -33 10 -67 13 -35 3 -72 8
-83 12 -13 4 -11 1 5 -8z"/>
<path d="M490 1640 c-8 -5 -26 -10 -40 -10 -19 0 -22 -2 -11 -9 9 -6 22 -6 32
0 10 5 29 9 44 9 15 0 24 4 20 10 -8 13 -26 13 -45 0z"/>
<path d="M2865 1625 c22 -8 134 -11 123 -3 -7 4 -40 7 -73 7 -33 0 -55 -2 -50
-4z"/>
<path d="M104 1605 c-10 -8 -14 -14 -9 -15 15 0 40 18 34 24 -3 3 -14 -1 -25
-9z"/>
<path d="M350 1609 c-13 -9 -12 -10 3 -5 9 3 17 1 17 -3 0 -18 -108 -44 -174
-42 -21 0 -47 -6 -58 -13 -18 -13 -16 -14 23 -10 62 7 191 35 211 45 10 5 15
16 12 24 -7 18 -14 18 -34 4z"/>
<path d="M2732 1611 c-9 -5 4 -11 39 -15 35 -5 56 -3 63 5 8 8 3 9 -21 4 -21
-4 -33 -3 -33 4 0 13 -29 14 -48 2z"/>
<path d="M470 1600 c0 -5 10 -10 23 -10 18 0 19 2 7 10 -19 13 -30 13 -30 0z"/>
<path d="M532 1598 c-10 -4 3 -7 31 -7 26 -1 47 2 47 7 0 9 -55 9 -78 0z"/>
<path d="M970 1590 c25 -11 56 -19 70 -18 23 1 23 1 3 5 -38 7 -26 19 15 15
20 -3 34 -1 31 2 -4 4 -42 9 -85 11 l-79 3 45 -18z"/>
<path d="M1320 1600 c-13 -9 -13 -10 0 -10 8 0 22 5 30 10 13 9 13 10 0 10 -8
0 -22 -5 -30 -10z"/>
<path d="M680 1591 c38 -8 119 -5 128 4 3 3 -33 4 -79 4 -60 -1 -74 -3 -49 -8z"/>
<path d="M2880 1591 c-22 -6 -23 -8 -7 -14 10 -4 26 -7 35 -7 15 0 15 2 2 11
-11 8 0 9 40 5 37 -4 50 -2 40 4 -17 11 -73 11 -110 1z"/>
<path d="M114 1579 c-17 -5 -37 -16 -44 -24 -16 -19 -3 -19 30 0 14 8 39 14
57 15 17 0 35 5 38 10 8 12 -38 12 -81 -1z"/>
<path d="M1255 1575 c-16 -7 -23 -14 -14 -14 8 -1 24 6 35 14 24 18 18 18 -21
0z"/>
<path d="M15 1570 c-11 -5 -14 -9 -7 -9 7 -1 10 -5 7 -11 -10 -16 5 -12 32 10
22 17 23 20 7 19 -11 0 -28 -4 -39 -9z"/>
<path d="M435 1567 c15 -8 57 -9 204 -8 131 2 66 14 -79 15 -78 1 -133 -2
-125 -7z"/>
<path d="M750 1550 c28 -22 65 -26 76 -9 5 8 -1 10 -18 6 -15 -4 -32 -1 -44 8
-10 8 -23 14 -29 14 -5 1 1 -8 15 -19z"/>
<path d="M906 1560 c-34 -6 -55 -22 -56 -42 0 -11 6 -10 63 13 98 40 95 38 62
37 -16 0 -47 -4 -69 -8z"/>
<path d="M320 1540 c-13 -9 -13 -10 0 -10 8 0 22 5 30 10 13 9 13 10 0 10 -8
0 -22 -5 -30 -10z"/>
<path d="M660 1529 c11 -8 7 -9 -17 -5 -41 7 -223 -5 -223 -14 0 -4 55 -5 123
-3 131 5 172 -3 172 -33 0 -29 72 -31 105 -3 25 21 20 21 -29 1 -11 -4 -13 0
-9 16 4 12 2 22 -4 22 -6 0 -8 -11 -5 -26 4 -21 1 -25 -17 -22 -13 2 -20 9
-18 20 2 12 -11 24 -40 38 -46 22 -62 26 -38 9z"/>
<path d="M1224 1525 c-10 -8 -14 -15 -8 -15 5 0 19 7 30 15 10 8 14 15 8 15
-5 0 -19 -7 -30 -15z"/>
<path d="M2765 1522 l-40 -7 28 -20 c52 -36 98 -78 93 -83 -3 -3 -14 1 -23 9
-10 7 -5 -1 11 -19 17 -18 34 -32 39 -32 6 0 2 10 -9 21 -22 25 -20 25 63 -19
68 -35 73 -37 73 -22 0 5 -12 13 -27 17 l-28 7 30 6 c27 6 26 7 -20 14 -68 10
-76 13 -105 36 l-25 20 33 -5 c17 -3 46 -7 64 -10 23 -4 29 -2 22 5 -6 6 -36
15 -65 19 -30 4 -67 15 -84 23 l-30 16 29 12 c23 8 42 8 80 -2 l51 -13 -35 -6
c-23 -4 -13 -6 31 -5 52 1 63 3 50 12 -30 21 -146 36 -206 26z"/>
<path d="M25 1505 c34 -16 73 -19 93 -6 9 5 4 8 -15 8 -15 -1 -46 2 -68 6
l-40 7 30 -15z"/>
<path d="M172 1510 c9 -6 38 -12 65 -15 l48 -5 -40 14 c-48 17 -100 21 -73 6z"/>
<path d="M1340 1495 c-7 -9 -11 -18 -8 -20 3 -3 11 1 18 10 7 9 11 18 8 20 -3
3 -11 -1 -18 -10z"/>
<path d="M1367 1478 c-50 -68 -49 -81 2 -17 18 22 31 43 28 45 -3 3 -16 -10
-30 -28z"/>
<path d="M311 1487 c-25 -7 -46 -18 -49 -25 -3 -11 3 -10 26 2 17 9 41 16 54
17 13 0 32 4 43 9 18 8 18 9 -5 8 -14 0 -45 -5 -69 -11z"/>
<path d="M7 1483 c-23 -22 23 -53 78 -53 24 0 63 36 51 48 -4 4 -13 -1 -20
-11 -21 -28 -110 -17 -92 12 8 12 -6 15 -17 4z"/>
<path d="M160 1485 c0 -2 13 -11 29 -19 34 -18 46 -43 29 -63 -12 -15 -46 -14
-111 2 -19 5 -41 2 -68 -10 -66 -30 -51 -39 88 -51 90 -7 133 7 133 45 0 31
-31 82 -57 92 -27 10 -43 12 -43 4z m-67 -107 c-18 -18 -26 -20 -45 -11 l-23
11 25 10 c14 6 34 11 45 11 19 1 19 0 -2 -21z m147 3 c0 -14 -27 -21 -81 -21
-29 0 -49 4 -49 11 0 7 12 9 34 5 18 -4 44 -2 57 3 31 13 39 13 39 2z"/>
<path d="M562 1480 c-47 -4 -78 -12 -89 -23 -23 -23 -12 -29 21 -12 35 19 70
20 59 3 -4 -7 5 -5 20 5 14 9 39 16 54 16 l28 -1 -30 -8 c-28 -7 -28 -8 -5 -8
14 -1 36 5 49 12 l23 13 -23 6 c-13 4 -26 6 -29 5 -3 0 -38 -4 -78 -8z"/>
<path d="M390 1470 c-12 -8 -10 -10 8 -10 13 0 20 -4 17 -10 -10 -16 5 -12 32
10 l26 20 -34 0 c-19 0 -41 -5 -49 -10z"/>
<path d="M2727 1453 c-4 -3 -7 -13 -7 -21 0 -12 3 -12 15 -2 8 7 15 16 15 21
0 11 -14 12 -23 2z"/>
<path d="M2970 1450 c19 -13 30 -13 30 0 0 6 -10 10 -22 10 -19 0 -20 -2 -8
-10z"/>
<path d="M360 1440 c-8 -5 -28 -10 -44 -10 -20 0 -27 -3 -20 -10 7 -7 21 -7
42 1 18 6 40 8 50 3 13 -6 9 -9 -18 -14 -34 -7 -34 -7 -5 -8 17 -1 41 6 55 14
15 9 18 13 6 9 -10 -3 -26 1 -35 9 -11 10 -21 12 -31 6z"/>
<path d="M500 1420 c0 -5 15 -10 34 -10 19 0 38 5 41 10 4 6 -10 10 -34 10
-23 0 -41 -4 -41 -10z"/>
<path d="M740 1420 c-8 -6 -31 -10 -50 -10 -29 -1 -32 -2 -17 -11 9 -5 21 -8
26 -4 5 3 11 0 13 -6 2 -6 13 -3 28 9 26 21 26 38 0 22z"/>
<path d="M1580 1422 c0 -7 11 -34 25 -60 14 -26 25 -60 25 -77 0 -16 5 -37 11
-45 8 -11 9 -3 5 32 -5 44 -64 179 -66 150z"/>
<path d="M2796 1405 c9 -14 21 -25 27 -25 6 0 0 11 -13 25 -13 14 -25 25 -27
25 -2 0 4 -11 13 -25z"/>
<path d="M2918 1413 c12 -2 30 -2 40 0 9 3 -1 5 -23 4 -22 0 -30 -2 -17 -4z"/>
<path d="M450 1400 c-11 -7 -6 -10 20 -10 26 0 31 3 20 10 -8 5 -17 10 -20 10
-3 0 -12 -5 -20 -10z"/>
<path d="M1651 1384 c1 -49 25 -159 32 -148 7 12 -16 160 -27 171 -3 3 -6 -7
-5 -23z"/>
<path d="M2651 1359 c-30 -27 -50 -49 -44 -49 14 0 109 87 103 94 -3 2 -29
-18 -59 -45z"/>
<path d="M561 1391 c-9 -6 2 -11 34 -16 26 -3 54 -9 61 -12 8 -3 14 -1 14 5 0
5 -12 12 -27 16 -16 3 -37 8 -48 11 -11 3 -26 1 -34 -4z"/>
<path d="M1333 1359 c-12 -21 -17 -39 -12 -39 10 0 43 69 37 75 -2 2 -13 -14
-25 -36z"/>
<path d="M324 1354 c-18 -14 -18 -15 6 -8 38 12 178 5 223 -11 23 -8 44 -12
46 -9 8 7 -21 24 -41 24 -9 0 -20 5 -23 10 -11 17 -188 12 -211 -6z"/>
<path d="M756 1352 c-9 -15 -47 -174 -42 -179 2 -2 13 20 24 49 27 74 40 165
18 130z"/>
<path d="M1191 1339 c-16 -13 -18 -19 -8 -19 15 0 43 27 36 34 -2 3 -15 -4
-28 -15z"/>
<path d="M2855 1353 c16 -15 116 -55 123 -49 3 3 -15 14 -39 25 -58 25 -97 36
-84 24z"/>
<path d="M646 1310 c-35 -33 -45 -37 -50 -25 -3 9 -11 13 -16 10 -6 -4 -18 -1
-26 6 -13 10 -17 10 -24 -1 -4 -7 -15 -10 -25 -7 -9 4 -13 11 -10 17 3 5 1 10
-5 10 -6 0 -10 -10 -8 -22 3 -20 10 -24 68 -29 l65 -6 45 44 c56 54 45 57 -14
3z"/>
<path d="M345 1320 c-11 -12 -16 -30 -13 -47 4 -27 2 -28 -32 -26 -30 2 -29 1
10 -7 38 -8 47 -7 65 9 11 11 31 21 45 23 14 1 23 5 21 8 -2 3 1 15 8 28 7 14
8 22 1 22 -5 0 -10 -4 -10 -10 0 -5 -8 -10 -17 -10 -16 -1 -16 -2 1 -15 19
-14 18 -15 -11 -15 -18 0 -38 -7 -46 -15 -13 -12 -15 -12 -20 5 -4 14 0 20 11
20 10 0 24 5 32 10 11 8 7 9 -14 4 -21 -5 -27 -4 -22 5 4 6 17 11 29 11 18 0
19 2 7 10 -21 13 -24 13 -45 -10z"/>
<path d="M5 1320 c-4 -6 11 -10 39 -10 25 0 48 5 51 10 4 6 -11 10 -39 10 -25
0 -48 -4 -51 -10z"/>
<path d="M273 1312 c-24 -4 -32 -22 -10 -22 15 0 43 18 37 22 -3 2 -15 2 -27
0z"/>
<path d="M662 1273 c-54 -66 -152 -212 -152 -226 1 -15 28 20 87 110 50 77 67
90 35 26 -23 -46 -48 -123 -57 -178 -10 -62 8 -31 22 36 6 33 34 109 62 169
27 61 48 110 46 110 -2 0 -21 -21 -43 -47z"/>
<path d="M2525 1309 c-11 -17 -2 -18 19 -3 17 12 17 14 4 14 -9 0 -20 -5 -23
-11z"/>
<path d="M118 1303 c12 -2 30 -2 40 0 9 3 -1 5 -23 4 -22 0 -30 -2 -17 -4z"/>
<path d="M790 1290 c-6 -12 -9 -24 -7 -27 3 -2 11 5 17 17 6 12 9 24 7 27 -3
2 -11 -5 -17 -17z"/>
<path d="M831 1220 c-13 -47 -50 -157 -82 -245 -71 -193 -156 -485 -163 -563
-8 -72 8 -40 18 37 4 30 18 73 32 96 13 23 24 51 24 63 0 12 6 22 14 22 12 0
9 -16 -10 -81 -14 -45 -23 -83 -20 -86 2 -3 16 30 30 74 14 43 37 109 51 146
25 69 33 113 12 67 -7 -14 -16 -32 -22 -40 -5 -8 -9 -24 -10 -35 0 -13 -8 -21
-22 -23 -13 -2 -23 0 -23 5 1 24 54 185 75 228 49 100 131 364 124 400 -2 11
-15 -19 -28 -65z"/>
<path d="M964 1276 c-3 -8 -4 -29 -1 -48 3 -30 4 -30 5 9 1 23 8 44 15 46 9 4
9 6 -1 6 -7 1 -15 -5 -18 -13z"/>
<path d="M1292 1273 c-12 -22 -25 -83 -19 -83 7 0 38 92 33 98 -3 2 -9 -5 -14
-15z"/>
<path d="M1317 1210 c-32 -94 -34 -119 -6 -70 21 38 22 35 3 -47 -5 -21 -4
-25 5 -17 7 6 14 35 16 65 3 30 9 75 13 102 13 71 -1 57 -31 -33z"/>
<path d="M0 1266 c0 -29 83 -56 124 -40 32 12 15 21 -33 16 -30 -2 -51 0 -55
7 -5 7 9 11 44 11 32 0 49 4 45 10 -9 14 -125 10 -125 -4z"/>
<path d="M151 1280 c-1 -3 -4 -27 -6 -55 -3 -37 -2 -46 6 -32 6 9 8 34 6 55
-2 20 -5 35 -6 32z"/>
<path d="M678 1218 c-56 -146 -68 -182 -75 -240 -5 -37 -5 -100 1 -152 10 -96
0 -190 -35 -301 -10 -33 -30 -123 -44 -200 -14 -77 -29 -150 -33 -163 l-7 -23
-35 26 c-33 25 -39 26 -117 19 -136 -11 -162 -24 -37 -19 104 5 113 4 145 -18
36 -25 41 -46 26 -115 -5 -24 -3 -32 5 -30 6 2 26 86 45 189 18 101 49 247 70
324 27 107 38 170 43 265 4 75 17 169 33 235 22 95 43 245 35 245 -2 0 -11
-19 -20 -42z m-3 -85 c-3 -27 -17 -91 -30 -143 -13 -52 -26 -106 -29 -120 -3
-14 -3 15 0 65 4 59 14 117 32 167 14 43 28 78 30 78 2 0 1 -21 -3 -47z"/>
<path d="M189 1215 c-3 -35 -8 -41 -33 -45 -16 -3 -32 -12 -34 -20 -5 -13 -3
-13 12 -1 14 12 19 12 26 2 13 -22 42 32 38 71 -4 33 -4 33 -9 -7z"/>
<path d="M2635 1240 c3 -5 16 -10 28 -10 18 0 19 2 7 10 -20 13 -43 13 -35 0z"/>
<path d="M2955 1241 c-16 -3 -25 -9 -20 -13 6 -3 24 0 40 7 33 15 27 16 -20 6z"/>
<path d="M732 1166 c-42 -99 -58 -163 -78 -303 -17 -127 -15 -163 6 -87 7 27
38 116 67 198 30 81 52 153 50 160 -3 6 -10 -10 -17 -36 -7 -29 -17 -45 -23
-41 -6 4 -8 0 -4 -10 3 -9 -9 -51 -28 -94 -19 -43 -35 -71 -35 -63 0 32 40
179 70 253 17 43 30 83 28 89 -2 6 -18 -24 -36 -66z"/>
<path d="M274 1215 c-4 -8 -12 -15 -19 -15 -7 0 -23 -9 -36 -20 -21 -17 -21
-19 -4 -13 11 3 26 10 33 16 8 7 12 5 12 -6 0 -14 -33 -41 -52 -42 -9 0 -34
-25 -26 -25 24 0 78 34 83 52 4 13 17 33 28 46 18 19 18 22 3 22 -9 0 -19 -7
-22 -15z"/>
<path d="M460 1221 l25 -7 -23 -8 c-12 -4 -36 -4 -53 -1 -20 5 -29 3 -25 -3 3
-5 21 -13 40 -16 27 -5 42 -1 72 19 l37 25 -49 -1 c-38 -1 -43 -3 -24 -8z"/>
<path d="M564 1214 c4 -10 -4 -19 -27 -29 -26 -11 -29 -15 -15 -20 21 -8 32
-2 58 35 l21 30 -21 0 c-16 0 -20 -4 -16 -16z"/>
<path d="M2475 1210 c-4 -6 11 -10 37 -9 36 1 39 2 18 9 -36 11 -48 11 -55 0z"/>
<path d="M77 1193 c-15 -2 -25 -9 -22 -14 9 -13 28 -11 51 6 10 8 15 14 9 13
-5 0 -22 -3 -38 -5z"/>
<path d="M1366 1173 c-6 -20 -25 -156 -26 -186 0 -10 4 -16 9 -13 10 6 36 204
28 212 -3 3 -8 -3 -11 -13z"/>
<path d="M920 1151 c-6 -17 -10 -36 -8 -43 3 -7 10 4 17 25 16 46 9 60 -9 18z"/>
<path d="M369 1156 c10 -12 32 -16 90 -15 85 1 68 11 -38 23 -58 7 -63 6 -52
-8z"/>
<path d="M2235 1160 c-20 -9 -20 -9 0 -9 11 0 27 4 35 9 13 9 13 10 0 9 -8 0
-24 -4 -35 -9z"/>
<path d="M2330 1140 c-19 -11 -43 -19 -52 -20 -9 0 -20 -5 -24 -11 -4 -8 1 -9
17 -5 58 16 109 38 109 47 0 13 -10 11 -50 -11z"/>
<path d="M14 1135 c11 -8 31 -15 45 -15 22 1 19 3 -14 15 -50 18 -55 18 -31 0z"/>
<path d="M2915 1140 c28 -12 37 -12 30 0 -3 6 -16 10 -28 9 -21 0 -21 -1 -2
-9z"/>
<path d="M280 1106 c-17 -10 -30 -11 -42 -5 -15 8 -17 6 -15 -13 1 -14 -4 -23
-15 -26 -12 -2 -18 3 -18 15 0 15 -2 15 -9 3 -23 -36 22 -40 72 -7 19 12 43
27 53 34 26 16 5 15 -26 -1z"/>
<path d="M365 1110 c-4 -6 11 -10 37 -10 31 0 39 3 28 10 -20 13 -57 13 -65 0z"/>
<path d="M0 1101 c0 -4 20 -19 44 -32 25 -13 43 -25 41 -27 -1 -2 -21 6 -44
18 -23 11 -41 16 -41 12 0 -13 140 -73 153 -65 5 3 7 2 4 -3 -3 -6 42 -34 100
-62 84 -42 108 -50 119 -41 8 7 13 15 12 20 -5 13 -362 189 -384 189 -2 0 -4
-4 -4 -9z"/>
<path d="M487 1102 c-4 -6 -34 -14 -67 -18 -43 -5 -65 -13 -81 -30 -20 -21
-20 -24 -5 -24 9 0 15 -4 11 -9 -3 -5 -22 -8 -43 -5 l-37 5 38 -21 c22 -12 40
-20 41 -18 1 2 10 15 19 31 17 27 50 36 62 17 12 -19 34 -10 55 25 12 19 20
40 18 47 -3 9 -6 9 -11 0z m-23 -37 c-7 -17 -30 -20 -39 -6 -3 5 5 12 17 14
13 2 24 5 25 6 1 0 0 -6 -3 -14z"/>
<path d="M949 1063 c-38 -63 -79 -153 -69 -153 5 0 29 41 55 91 47 94 55 129
14 62z"/>
<path d="M2449 1080 c25 -22 61 -27 61 -9 0 6 -6 9 -14 6 -8 -3 -22 1 -33 8
-28 22 -41 17 -14 -5z"/>
<path d="M1212 1060 c-7 -11 -8 -20 -2 -20 5 0 14 9 20 20 6 11 7 20 3 20 -5
0 -14 -9 -21 -20z"/>
<path d="M2230 1069 c0 -5 23 -9 52 -9 28 0 49 2 47 4 -9 8 -99 13 -99 5z"/>
<path d="M1790 1060 c-11 -7 -7 -10 18 -10 20 0 31 4 27 10 -8 13 -26 13 -45
0z"/>
<path d="M255 1045 c-25 -12 -26 -14 -9 -15 12 0 27 7 34 15 15 18 14 18 -25
0z"/>
<path d="M2361 1044 c6 -8 18 -14 26 -14 20 0 8 16 -17 23 -17 4 -19 3 -9 -9z"/>
<path d="M873 1033 c-3 -10 -16 -45 -29 -78 -12 -33 -29 -78 -37 -100 -8 -22
-18 -49 -22 -60 -6 -14 -5 -17 3 -10 11 11 85 193 96 238 7 30 -1 37 -11 10z"/>
<path d="M386 873 c-58 -87 -116 -174 -129 -193 -66 -97 -118 -182 -114 -187
6 -5 48 54 99 138 18 31 43 69 56 85 47 60 204 305 199 310 -3 3 -53 -66 -111
-153z"/>
<path d="M951 969 c-35 -70 -37 -76 -17 -60 16 13 60 111 53 118 -3 2 -19 -24
-36 -58z"/>
<path d="M2039 994 c18 -8 36 -13 39 -10 6 6 -43 26 -61 25 -7 0 3 -7 22 -15z"/>
<path d="M2550 995 c-7 -9 -11 -18 -8 -20 3 -3 11 1 18 10 7 9 11 18 8 20 -3
3 -11 -1 -18 -10z"/>
<path d="M2 969 c3 -20 16 -29 88 -63 24 -11 27 -14 10 -11 -22 5 -23 5 -7 -6
14 -8 22 -8 30 0 14 14 -1 29 -71 70 -50 29 -53 30 -50 10z"/>
<path d="M396 976 c-24 -11 -26 -14 -10 -20 11 -4 25 0 38 14 23 23 15 24 -28
6z"/>
<path d="M2261 971 c-11 -7 -10 -11 7 -20 26 -14 35 -14 27 -1 -4 7 2 9 19 4
16 -4 26 -2 26 5 0 6 -6 11 -12 11 -7 0 -22 3 -33 5 -11 3 -26 1 -34 -4z"/>
<path d="M2480 915 c-11 -26 -18 -50 -15 -53 2 -3 14 16 26 42 11 26 18 50 15
53 -3 3 -15 -16 -26 -42z"/>
<path d="M781 938 c0 -9 -4 -25 -7 -35 -5 -14 -4 -15 5 -7 7 7 11 22 8 35 -2
13 -5 16 -6 7z"/>
<path d="M1924 941 c3 -5 15 -11 26 -14 17 -4 19 -3 9 9 -12 15 -44 20 -35 5z"/>
<path d="M2375 940 c3 -5 16 -10 28 -9 21 0 21 1 2 9 -28 12 -37 12 -30 0z"/>
<path d="M220 921 c0 -9 -8 -11 -22 -8 -22 6 -22 6 -4 -8 11 -8 23 -15 27 -15
15 0 21 22 10 33 -8 8 -11 8 -11 -2z"/>
<path d="M1360 920 c0 -5 9 -10 20 -10 11 0 20 5 20 10 0 6 -9 10 -20 10 -11
0 -20 -4 -20 -10z"/>
<path d="M0 891 c0 -12 16 -29 44 -45 l43 -25 39 20 c39 20 39 21 7 14 -26 -5
-41 -1 -77 24 -52 36 -56 37 -56 12z"/>
<path d="M260 890 c0 -27 24 -35 63 -22 l32 10 -37 -1 c-42 -1 -60 10 -38 23
13 8 12 10 -2 10 -11 0 -18 -8 -18 -20z"/>
<path d="M182 878 c3 -7 20 -18 39 -25 l34 -14 -28 26 c-30 27 -51 33 -45 13z"/>
<path d="M900 863 c-23 -45 -23 -49 -1 -24 12 13 21 29 21 37 0 21 -5 17 -20
-13z"/>
<path d="M2630 880 c8 -5 24 -9 35 -9 20 0 20 0 0 9 -11 5 -27 9 -35 9 -13 1
-13 0 0 -9z"/>
<path d="M747 845 c-10 -21 -16 -40 -13 -42 7 -7 38 56 34 68 -2 6 -11 -6 -21
-26z"/>
<path d="M2275 870 c3 -5 18 -10 33 -9 24 0 25 1 7 9 -28 12 -47 12 -40 0z"/>
<path d="M2562 860 c7 -11 19 -22 28 -25 8 -4 4 5 -9 19 -29 31 -36 33 -19 6z"/>
<path d="M2785 870 c3 -5 17 -10 31 -10 13 0 24 5 24 10 0 6 -14 10 -31 10
-17 0 -28 -4 -24 -10z"/>
<path d="M308 840 c-16 -9 -25 -20 -21 -24 4 -4 0 -4 -10 0 -10 3 -17 1 -17
-5 0 -6 5 -11 10 -11 21 0 9 -17 -30 -43 l-40 -26 0 23 c0 15 9 27 25 34 14 6
25 16 25 21 0 12 -33 31 -52 31 -7 -1 1 -7 17 -15 30 -15 30 -15 3 -12 -28 4
-38 -12 -38 -60 0 -22 -48 -57 -94 -69 -19 -4 -26 -1 -31 15 -3 12 -15 26 -27
32 -30 16 -33 3 -4 -16 14 -10 26 -26 26 -37 0 -17 -4 -19 -28 -13 -26 6 -26
6 -7 -9 18 -14 18 -15 3 -16 -10 0 -18 -7 -18 -16 0 -8 3 -13 8 -11 125 78
162 98 210 116 48 18 62 30 90 72 18 28 32 52 30 54 -2 1 -15 -5 -30 -15z"/>
<path d="M1390 828 c19 -18 34 -38 32 -45 -2 -8 3 -10 13 -7 23 9 19 18 -24
52 -51 41 -66 41 -21 0z"/>
<path d="M0 826 c0 -17 55 -41 71 -30 8 4 0 13 -22 25 -41 22 -49 23 -49 5z"/>
<path d="M2190 832 c0 -19 32 -35 77 -38 32 -2 43 0 33 6 -8 6 -26 10 -40 10
-14 0 -36 7 -48 16 -12 8 -22 11 -22 6z"/>
<path d="M2445 830 c-3 -5 -13 -7 -23 -4 -13 5 -14 4 -4 -4 11 -7 8 -21 -16
-68 -17 -33 -42 -76 -56 -97 -14 -21 -26 -46 -26 -55 0 -9 19 15 41 53 50 85
101 185 95 185 -3 0 -7 -4 -11 -10z"/>
<path d="M135 810 c17 -7 16 -9 -9 -9 -17 -1 -40 -11 -53 -23 -20 -19 -27 -20
-43 -10 -24 15 -30 15 -30 2 0 -5 11 -12 25 -16 14 -3 25 -10 25 -15 0 -5 11
-16 25 -25 25 -16 27 -16 54 10 18 17 31 41 33 62 4 31 2 34 -22 33 -23 0 -23
-1 -5 -9z m-1 -39 c7 -11 -42 -56 -51 -47 -5 4 0 14 11 21 10 8 15 18 11 24
-3 6 1 11 9 11 8 0 17 -4 20 -9z"/>
<path d="M1780 810 c20 -13 43 -13 35 0 -3 6 -16 10 -28 10 -18 0 -19 -2 -7
-10z"/>
<path d="M1970 817 c0 -7 54 -32 90 -42 34 -10 17 6 -23 21 -17 6 -40 15 -49
19 -10 4 -18 5 -18 2z"/>
<path d="M2356 805 c25 -19 40 -19 24 0 -7 8 -20 15 -28 15 -13 0 -12 -3 4
-15z"/>
<path d="M2530 811 c0 -12 39 -35 46 -28 3 2 -7 12 -21 21 -14 9 -25 12 -25 7z"/>
<path d="M2664 795 c11 -8 25 -15 30 -15 6 0 2 7 -8 15 -11 8 -25 15 -30 15
-6 0 -2 -7 8 -15z"/>
<path d="M867 794 c-4 -4 -7 -17 -7 -28 1 -19 1 -20 11 -3 11 19 8 43 -4 31z"/>
<path d="M2966 785 c-16 -12 -17 -15 -4 -15 8 0 21 7 28 15 16 19 1 19 -24 0z"/>
<path d="M808 763 c-20 -24 -41 -64 -35 -69 2 -2 16 14 31 37 28 42 31 62 4
32z"/>
<path d="M2489 736 c14 -14 26 -24 29 -22 7 8 -8 25 -31 37 -21 11 -21 10 2
-15z"/>
<path d="M2100 747 c0 -3 15 -10 32 -16 18 -6 28 -7 23 -2 -12 10 -55 25 -55
18z"/>
<path d="M1620 730 c0 -9 39 -25 46 -18 2 3 -7 10 -21 16 -14 6 -25 7 -25 2z"/>
<path d="M2723 733 c9 -2 25 -2 35 0 9 3 1 5 -18 5 -19 0 -27 -2 -17 -5z"/>
<path d="M169 686 c-41 -23 -88 -51 -105 -62 -16 -12 -38 -24 -49 -29 -17 -7
-18 -9 -3 -12 9 -2 47 14 84 36 37 23 73 41 78 41 6 0 -12 -14 -39 -30 -69
-40 -125 -91 -127 -115 -3 -45 3 -85 13 -85 7 0 8 18 4 53 l-7 52 72 48 c64
42 90 54 90 43 0 -1 -30 -23 -68 -48 -45 -30 -68 -52 -69 -66 -2 -21 -1 -21
23 -6 30 20 30 24 1 17 -25 -7 -23 -4 17 21 18 12 25 13 20 5 -5 -8 -7 -22 -6
-31 2 -10 -2 -18 -8 -18 -6 0 -9 -4 -5 -9 3 -5 0 -13 -6 -17 -8 -4 -9 -3 -5 4
4 7 2 12 -4 12 -9 0 -30 -39 -30 -56 0 -3 12 4 27 15 14 12 28 19 31 16 8 -8
-28 -33 -65 -45 -18 -7 -33 -16 -33 -21 0 -15 16 -11 75 18 54 27 55 27 49 65
-6 34 0 46 64 143 39 58 67 105 64 104 -4 -1 -41 -20 -83 -43z"/>
<path d="M2017 719 c8 -8 16 -8 30 0 16 9 14 10 -11 11 -22 0 -27 -3 -19 -11z"/>
<path d="M2200 711 c0 -6 34 -30 44 -31 5 0 3 6 -3 13 -6 8 -9 16 -6 18 2 3
-5 5 -15 5 -11 0 -20 -2 -20 -5z"/>
<path d="M2563 709 c12 -7 27 -7 45 0 25 9 24 9 -18 10 -36 0 -41 -2 -27 -10z"/>
<path d="M2422 691 c2 -8 15 -21 29 -30 19 -11 21 -12 9 0 -8 8 -20 21 -28 29
-11 12 -13 12 -10 1z"/>
<path d="M1760 679 c0 -11 34 -15 70 -8 19 3 31 8 25 9 -21 6 -95 5 -95 -1z"/>
<path d="M2960 634 c-83 -137 -118 -235 -160 -445 -33 -166 -35 -189 -20 -189
6 0 10 13 10 29 0 17 5 33 11 36 6 4 8 13 5 20 -7 19 38 236 69 329 25 75 66
158 107 219 11 15 18 34 16 43 -2 9 -17 -7 -38 -42z"/>
<path d="M2090 675 c0 -2 15 -12 33 -20 l32 -16 -24 21 c-22 19 -41 26 -41 15z"/>
<path d="M2780 640 c-6 -11 -7 -20 -3 -20 5 0 14 9 21 20 7 11 8 20 2 20 -5 0
-14 -9 -20 -20z"/>
<path d="M2430 645 c0 -10 61 -35 72 -29 6 4 -7 13 -28 20 -45 16 -44 16 -44
9z"/>
<path d="M2866 635 c-26 -19 -6 -19 30 0 23 12 25 15 9 15 -11 -1 -29 -7 -39
-15z"/>
<path d="M1725 630 c3 -5 16 -10 28 -10 18 0 19 2 7 10 -20 13 -43 13 -35 0z"/>
<path d="M2190 630 c20 -13 43 -13 35 0 -3 6 -16 10 -28 10 -18 0 -19 -2 -7
-10z"/>
<path d="M2733 586 c-41 -15 -52 -26 -26 -26 12 0 31 9 44 20 27 22 26 22 -18
6z"/>
<path d="M421 578 c0 -9 -4 -25 -7 -35 -5 -14 -4 -15 5 -7 7 7 11 22 8 35 -2
13 -5 16 -6 7z"/>
<path d="M778 565 c-3 -14 -2 -25 2 -25 4 0 10 11 12 25 3 14 2 25 -2 25 -4 0
-10 -11 -12 -25z"/>
<path d="M1340 580 c20 -13 43 -13 35 0 -3 6 -16 10 -28 10 -18 0 -19 -2 -7
-10z"/>
<path d="M2120 580 c14 -4 19 -8 11 -9 -29 -2 0 -14 41 -17 36 -3 39 -2 20 6
-13 6 -28 7 -33 4 -5 -3 -8 0 -7 8 2 8 -8 14 -27 15 -29 2 -29 2 -5 -7z"/>
<path d="M2832 570 c-18 -29 -14 -38 6 -14 10 11 24 23 32 27 11 4 9 6 -5 6
-11 1 -26 -8 -33 -19z"/>
<path d="M1295 550 c3 -5 16 -10 28 -10 18 0 19 2 7 10 -20 13 -43 13 -35 0z"/>
<path d="M2242 540 c7 -11 16 -20 21 -20 4 0 3 9 -3 20 -6 11 -15 20 -20 20
-6 0 -5 -9 2 -20z"/>
<path d="M210 543 c0 -5 14 -26 30 -47 28 -37 30 -45 30 -129 0 -50 2 -88 5
-86 2 3 5 44 6 91 1 81 0 89 -30 132 -31 44 -41 54 -41 39z"/>
<path d="M823 434 c-36 -86 -55 -119 -67 -118 -18 2 -22 -11 -6 -21 18 -11 36
12 64 85 16 39 30 69 32 67 3 -2 -5 -26 -16 -52 -11 -26 -18 -50 -16 -52 8 -8
37 70 41 109 2 20 9 46 15 58 6 12 10 26 8 32 -3 7 -27 -42 -55 -108z"/>
<path d="M1430 540 c0 -5 7 -10 15 -10 8 0 15 5 15 10 0 6 -7 10 -15 10 -8 0
-15 -4 -15 -10z"/>
<path d="M920 529 c0 -6 -23 -64 -51 -129 -43 -100 -53 -117 -70 -113 -24 7
-25 -12 -1 -21 9 -3 23 -9 30 -12 8 -4 12 3 12 19 0 13 20 69 44 123 53 121
61 144 47 144 -6 0 -11 -5 -11 -11z"/>
<path d="M2315 521 c-3 -12 -14 -21 -23 -21 -9 0 -23 -4 -31 -9 -10 -7 -4 -9
20 -8 27 2 36 7 41 26 9 30 2 41 -7 12z"/>
<path d="M2400 531 c0 -9 51 -34 57 -27 2 2 -10 11 -26 19 -17 9 -31 12 -31 8z"/>
<path d="M2660 530 c0 -8 25 -20 41 -20 20 0 7 18 -16 22 -14 3 -25 2 -25 -2z"/>
<path d="M626 509 c-3 -8 -7 -36 -10 -64 -2 -27 -7 -63 -11 -80 l-6 -30 16 28
c9 16 14 34 12 40 -3 7 -1 35 3 62 8 49 5 72 -4 44z"/>
<path d="M736 490 c-26 -31 -33 -50 -18 -50 9 1 54 71 49 77 -3 2 -16 -10 -31
-27z"/>
<path d="M810 505 c0 -8 -4 -15 -10 -15 -5 0 -6 -7 -3 -17 5 -12 3 -14 -7 -8
-8 5 -11 4 -6 -3 4 -6 -1 -28 -10 -49 -27 -65 -34 -83 -29 -83 7 0 35 58 61
126 13 35 19 64 14 64 -6 0 -10 -7 -10 -15z"/>
<path d="M1730 512 c0 -15 55 -52 77 -51 13 0 12 4 -9 12 -14 7 -36 21 -47 31
-12 11 -21 14 -21 8z"/>
<path d="M2810 505 c-15 -8 -19 -14 -10 -14 18 -1 46 16 40 23 -3 2 -16 -2
-30 -9z"/>
<path d="M2404 495 c22 -17 40 -20 32 -6 -3 5 -16 11 -28 14 -22 6 -22 5 -4
-8z"/>
<path d="M1172 480 c-8 -13 -8 -20 -2 -20 6 0 13 7 17 15 9 24 -1 27 -15 5z"/>
<path d="M2350 492 c0 -5 16 -16 35 -25 19 -9 35 -13 35 -9 0 5 -16 16 -35 25
-19 9 -35 13 -35 9z"/>
<path d="M323 458 c-7 -18 -15 -58 -18 -88 -6 -53 -5 -56 27 -85 25 -23 27
-24 11 -5 -13 14 -25 41 -29 60 l-6 35 21 -25 22 -25 -16 40 c-14 37 -14 46
-1 83 8 23 12 42 8 42 -5 0 -13 -15 -19 -32z"/>
<path d="M2652 469 c-18 -12 -31 -23 -29 -26 6 -5 67 30 67 40 0 10 -1 10 -38
-14z"/>
<path d="M2987 483 c-2 -5 -1 -19 4 -33 7 -23 7 -23 8 8 1 31 -3 40 -12 25z"/>
<path d="M1555 470 c3 -5 13 -10 21 -10 8 0 14 5 14 10 0 6 -9 10 -21 10 -11
0 -17 -4 -14 -10z"/>
<path d="M2102 455 c9 -10 21 -16 28 -13 7 2 -1 10 -16 17 -27 12 -28 11 -12
-4z"/>
<path d="M2290 451 c-12 -24 -13 -34 -1 -27 9 6 22 46 15 46 -2 0 -8 -9 -14
-19z"/>
<path d="M1046 435 c-9 -14 -12 -25 -7 -25 5 0 16 11 25 25 9 14 12 25 7 25
-5 0 -16 -11 -25 -25z"/>
<path d="M1100 458 c0 -3 -7 -22 -15 -42 -8 -20 -11 -36 -6 -36 11 0 35 69 27
77 -3 4 -6 4 -6 1z"/>
<path d="M2339 439 c13 -11 26 -17 29 -14 7 6 -29 34 -43 34 -5 0 1 -9 14 -20z"/>
<path d="M2733 437 c-17 -7 -35 -16 -40 -21 -5 -5 0 -6 12 -2 11 5 37 10 57
13 21 3 35 9 32 14 -7 11 -21 10 -61 -4z"/>
<path d="M2937 422 c-10 -10 -17 -23 -17 -28 0 -5 5 -1 11 9 17 28 32 20 25
-13 -3 -19 -2 -29 4 -25 12 8 13 75 2 75 -5 0 -16 -8 -25 -18z"/>
<path d="M161 425 c0 -14 28 -50 34 -43 3 3 -3 16 -14 29 -11 13 -20 20 -20
14z"/>
<path d="M477 417 c-11 -29 -9 -43 4 -30 6 6 9 19 7 29 -3 18 -4 18 -11 1z"/>
<path d="M690 411 c0 -5 -3 -18 -6 -28 -5 -17 -5 -17 9 0 11 13 22 17 36 12
24 -7 29 10 5 19 -23 9 -44 7 -44 -3z"/>
<path d="M1123 408 c-5 -7 -13 -21 -16 -30 -4 -10 -15 -18 -26 -18 -10 0 -22
-8 -26 -17 -24 -60 -42 -122 -37 -127 3 -3 15 22 27 56 20 58 45 88 45 54 0
-27 -51 -146 -63 -146 -5 0 -17 5 -28 11 -11 6 -25 8 -32 6 -7 -2 16 -18 50
-35 l63 -32 14 22 c8 13 24 49 36 81 12 31 25 55 30 52 14 -9 22 13 12 32 -7
11 -5 30 4 56 8 22 12 42 9 45 -5 6 -24 -42 -32 -83 -4 -16 -12 -39 -18 -50
-7 -11 -20 -44 -30 -72 -18 -59 -25 -66 -45 -53 -12 7 -12 13 -1 37 22 46 81
216 77 220 -2 2 -8 -2 -13 -9z"/>
<path d="M1964 405 c26 -19 42 -19 26 0 -7 8 -20 15 -29 15 -13 -1 -13 -3 3
-15z"/>
<path d="M1563 403 c-7 -3 -13 -11 -13 -20 0 -12 2 -12 16 2 18 17 16 25 -3
18z"/>
<path d="M2340 391 c0 -13 29 -41 42 -41 7 0 1 11 -12 25 -26 27 -30 30 -30
16z"/>
<path d="M1000 380 c0 -5 4 -10 9 -10 12 0 2 -39 -16 -65 -7 -11 -13 -29 -13
-40 1 -17 3 -16 16 8 9 16 22 46 29 67 12 33 12 39 -2 44 -20 8 -23 8 -23 -4z"/>
<path d="M2020 370 c0 -4 14 -13 31 -19 39 -13 42 -14 35 -2 -8 13 -66 32 -66
21z"/>
<path d="M725 361 c-3 -6 -15 -11 -26 -11 -10 0 -19 -4 -19 -10 0 -16 36 -12
50 5 7 9 10 18 7 21 -3 3 -8 1 -12 -5z"/>
<path d="M1639 354 c18 -8 36 -13 39 -10 6 6 -43 26 -61 25 -7 0 3 -7 22 -15z"/>
<path d="M2116 350 c12 -12 28 -20 37 -18 9 2 2 10 -21 21 l-37 19 21 -22z"/>
<path d="M2500 362 c24 -15 77 -25 65 -13 -6 6 -26 13 -45 16 -24 4 -30 3 -20
-3z"/>
<path d="M2710 360 c0 -5 6 -10 14 -10 8 0 18 5 21 10 3 6 -3 10 -14 10 -12 0
-21 -4 -21 -10z"/>
<path d="M2912 340 c-7 -11 -9 -20 -4 -20 10 0 32 22 32 32 0 15 -15 8 -28
-12z"/>
<path d="M1340 344 c0 -11 61 -66 67 -61 2 3 -10 19 -28 36 -33 32 -39 36 -39
25z"/>
<path d="M2320 340 c0 -8 5 -22 10 -30 9 -13 10 -13 10 0 0 8 -5 22 -10 30 -9
13 -10 13 -10 0z"/>
<path d="M1284 325 c11 -8 27 -15 35 -15 11 0 10 4 -5 15 -10 8 -26 14 -34 14
-11 0 -10 -3 4 -14z"/>
<path d="M2769 305 c-16 -34 -11 -47 9 -22 14 18 25 57 15 57 -4 -1 -15 -16
-24 -35z"/>
<path d="M373 300 c12 -31 43 -60 80 -73 9 -4 17 -2 17 3 0 6 -5 10 -10 10 -6
0 -30 21 -55 46 -44 46 -44 46 -32 14z"/>
<path d="M1775 310 c-4 -6 7 -10 25 -10 18 0 29 4 25 10 -3 6 -15 10 -25 10
-10 0 -22 -4 -25 -10z"/>
<path d="M129 267 c-15 -23 -34 -57 -44 -75 -9 -19 -22 -32 -28 -29 -40 15
-57 17 -57 8 0 -17 61 -25 76 -10 21 21 85 131 82 141 -2 4 -15 -11 -29 -35z"/>
<path d="M561 285 c-1 -11 -4 -31 -6 -45 l-6 -25 11 25 c6 13 9 33 7 45 -4 19
-4 19 -6 0z"/>
<path d="M860 267 c-8 -17 -25 -36 -37 -42 -24 -10 -31 -25 -12 -25 24 0 52
24 65 55 16 39 17 45 7 45 -5 0 -15 -15 -23 -33z"/>
<path d="M1196 289 c-3 -8 -14 -48 -24 -89 -17 -68 -17 -77 -4 -90 14 -13 15
-12 9 3 -3 9 3 53 14 98 11 45 18 84 15 87 -3 2 -8 -1 -10 -9z"/>
<path d="M1273 282 c-4 -17 -10 -21 -24 -17 -15 5 -23 -1 -33 -27 -8 -18 -11
-37 -8 -43 3 -5 10 5 14 23 7 25 14 32 32 32 16 0 26 7 29 22 4 12 4 24 1 27
-3 3 -7 -5 -11 -17z"/>
<path d="M2870 285 c-7 -9 -11 -18 -8 -20 3 -3 11 1 18 10 7 9 11 18 8 20 -3
3 -11 -1 -18 -10z"/>
<path d="M576 216 c-10 -43 -16 -79 -13 -82 6 -7 40 132 35 147 -2 6 -12 -23
-22 -65z"/>
<path d="M2892 260 c-24 -31 -28 -45 -12 -35 10 6 44 65 37 65 -2 0 -13 -13
-25 -30z"/>
<path d="M197 253 c-11 -13 -17 -26 -15 -29 7 -7 40 34 37 44 -2 6 -12 -1 -22
-15z"/>
<path d="M2609 258 c-9 -20 -8 -31 5 -54 8 -16 15 -23 16 -16 0 7 -5 22 -11
33 -8 15 -7 24 2 35 6 8 9 17 6 21 -4 3 -11 -6 -18 -19z"/>
<path d="M2658 255 c2 -14 6 -25 8 -25 2 0 4 11 4 25 0 14 -4 25 -9 25 -4 0
-6 -11 -3 -25z"/>
<path d="M2938 177 c-51 -111 -66 -161 -50 -171 5 -3 12 14 15 39 3 29 21 75
51 125 43 75 56 110 39 110 -5 0 -29 -47 -55 -103z"/>
<path d="M1280 207 c-13 -37 -29 -67 -35 -67 -6 0 -21 7 -33 16 -12 8 -22 10
-22 5 0 -16 48 -44 63 -38 16 6 61 120 55 138 -2 7 -15 -17 -28 -54z"/>
<path d="M1142 221 c-7 -19 -12 -41 -11 -50 0 -9 7 2 15 23 8 22 13 45 11 50
-2 6 -9 -5 -15 -23z"/>
<path d="M1330 241 c0 -5 12 -11 28 -13 32 -4 42 -40 19 -66 -9 -9 -26 -44
-39 -77 -25 -60 -25 -60 -64 -58 l-39 3 32 -17 c17 -9 38 -13 45 -10 8 3 25
31 37 63 24 63 46 94 67 94 10 0 11 -6 4 -25 -5 -14 -6 -25 -1 -25 5 0 14 21
21 46 11 38 11 47 -1 54 -19 13 -24 3 -8 -16 12 -14 11 -16 -6 -13 -12 3 -21
14 -24 29 -1 14 -8 28 -15 32 -16 11 -56 10 -56 -1z"/>
<path d="M953 223 c9 -2 25 -2 35 0 9 3 1 5 -18 5 -19 0 -27 -2 -17 -5z"/>
<path d="M1760 220 c0 -5 15 -13 33 -18 17 -6 41 -13 51 -18 13 -5 17 -4 13 3
-9 15 -97 44 -97 33z"/>
<path d="M2215 220 c3 -5 13 -10 21 -10 8 0 12 5 9 10 -3 6 -13 10 -21 10 -8
0 -12 -4 -9 -10z"/>
<path d="M1300 163 c-12 -26 -28 -66 -36 -88 -25 -67 8 -21 41 58 32 77 28
103 -5 30z"/>
<path d="M2027 203 c-3 -5 10 -9 29 -10 19 -1 32 3 29 8 -7 11 -52 12 -58 2z"/>
<path d="M2220 191 c0 -12 39 -35 46 -28 3 2 -7 12 -21 21 -14 9 -25 12 -25 7z"/>
<path d="M1900 180 l-25 -8 28 -1 c15 -1 27 4 27 9 0 6 -1 10 -2 9 -2 -1 -14
-5 -28 -9z"/>
<path d="M1989 173 c12 -23 29 -38 37 -31 2 3 -8 15 -22 29 -25 23 -26 23 -15
2z"/>
<path d="M1538 157 c28 -30 28 -45 0 -57 -23 -9 -23 -9 2 -9 33 -1 44 7 64 46
18 37 20 43 7 43 -5 0 -15 -17 -22 -37 -10 -29 -14 -33 -17 -18 -5 23 -31 55
-45 55 -6 0 -1 -10 11 -23z"/>
<path d="M645 159 c-24 -67 -50 -159 -45 -159 14 0 65 158 54 169 -2 2 -6 -2
-9 -10z"/>
<path d="M1760 160 c20 -13 43 -13 35 0 -3 6 -16 10 -28 10 -18 0 -19 -2 -7
-10z"/>
<path d="M2595 155 c-16 -7 -23 -14 -14 -14 8 -1 24 6 35 14 24 18 18 18 -21
0z"/>
<path d="M1451 119 c-7 -23 -10 -44 -7 -47 3 -3 6 1 6 9 0 10 2 11 8 2 4 -7 9
7 10 32 1 25 0 45 -2 45 -1 0 -8 -18 -15 -41z"/>
<path d="M2060 144 c0 -5 7 -18 15 -28 12 -16 15 -17 15 -4 0 8 -7 21 -15 28
-8 7 -15 9 -15 4z"/>
<path d="M1110 126 c0 -8 10 -21 23 -27 12 -7 35 -23 51 -36 l30 -25 18 24 c9
12 18 30 18 38 0 9 -5 7 -16 -8 -21 -30 -33 -28 -82 14 -29 24 -42 31 -42 20z"/>
<path d="M1486 84 c-10 -31 -15 -58 -12 -61 3 -3 8 0 10 8 2 8 11 35 20 62 8
26 11 47 7 47 -4 0 -15 -25 -25 -56z"/>
<path d="M2975 126 c-26 -15 -54 -48 -55 -65 0 -7 19 5 42 27 43 42 49 59 13
38z"/>
<path d="M2293 123 c9 -14 67 -35 67 -24 0 5 -8 11 -17 14 -10 2 -27 8 -37 13
-13 5 -17 4 -13 -3z"/>
<path d="M1830 95 c13 -14 26 -23 28 -20 7 7 -29 45 -41 45 -6 0 0 -11 13 -25z"/>
<path d="M2593 113 c9 -2 25 -2 35 0 9 3 1 5 -18 5 -19 0 -27 -2 -17 -5z"/>
<path d="M768 98 c12 -6 22 -18 22 -27 0 -14 2 -14 10 -1 11 17 -13 40 -39 39
-11 0 -8 -4 7 -11z"/>
<path d="M2020 104 c0 -9 40 -23 44 -15 3 5 -5 11 -19 13 -14 3 -25 4 -25 2z"/>
<path d="M704 88 c-23 -11 -44 -48 -43 -76 0 -9 7 0 15 20 9 21 24 40 35 43
10 4 19 11 19 16 0 11 1 11 -26 -3z"/>
<path d="M537 77 c-4 -10 -7 -31 -6 -45 l0 -27 10 25 c5 13 8 33 7 45 -3 19
-4 19 -11 2z"/>
<path d="M1673 72 c8 -9 17 -24 20 -32 3 -9 6 -4 6 11 1 19 -5 28 -20 32 -19
5 -19 4 -6 -11z"/>
<path d="M1994 81 c4 -6 15 -11 24 -12 10 0 12 -3 5 -5 -7 -3 -22 0 -35 7 -22
11 -22 10 -6 -6 12 -13 24 -16 44 -11 29 8 24 19 -15 31 -16 5 -21 4 -17 -4z"/>
<path d="M2298 84 c-5 -4 -8 -16 -8 -28 0 -14 3 -17 11 -9 6 6 9 19 7 28 -1 9
-6 13 -10 9z"/>
<path d="M730 58 c-21 -31 -31 -58 -22 -58 4 0 15 14 24 30 13 22 22 28 35 23
16 -6 16 -5 4 10 -18 22 -23 21 -41 -5z"/>
<path d="M1590 60 c-6 -11 -7 -20 -1 -20 5 0 12 7 15 16 4 9 13 14 21 10 8 -3
15 -1 15 4 0 18 -39 10 -50 -10z"/>
<path d="M2396 72 c-3 -5 8 -9 24 -10 16 0 32 4 35 9 4 5 -7 9 -24 9 -16 0
-32 -4 -35 -8z"/>
<path d="M2540 68 c23 -8 107 -5 117 5 3 3 -27 5 -67 5 -50 -1 -66 -4 -50 -10z"/>
<path d="M830 60 c0 -5 -6 -9 -12 -7 -8 1 -13 -9 -14 -25 -1 -35 13 -37 22 -3
3 14 13 25 20 25 8 0 19 -11 24 -25 12 -32 16 -32 14 2 0 16 -8 29 -20 34 -27
11 -34 10 -34 -1z"/>
<path d="M1383 46 c7 -15 16 -21 21 -16 12 12 0 40 -18 40 -11 0 -12 -5 -3
-24z"/>
<path d="M1920 66 c0 -11 91 -56 112 -55 18 0 15 3 -15 14 -20 8 -47 21 -59
30 -22 14 -38 19 -38 11z"/>
<path d="M2165 52 c14 -14 91 -24 78 -11 -6 6 -28 13 -49 16 -25 3 -35 1 -29
-5z"/>
<path d="M913 36 c9 -7 17 -18 17 -25 0 -6 5 -11 10 -11 6 0 10 4 10 8 0 12
-34 42 -46 42 -5 0 -1 -7 9 -14z"/>
<path d="M1420 43 c0 -12 38 -48 45 -41 3 2 -6 15 -20 28 -14 13 -25 19 -25
13z"/>
<path d="M1635 29 c-8 -25 2 -39 11 -15 3 9 13 16 21 16 8 0 11 4 8 10 -11 17
-33 11 -40 -11z"/>
<path d="M1723 25 c-9 -25 4 -29 17 -6 7 15 7 21 0 21 -6 0 -13 -7 -17 -15z"/>
<path d="M1570 15 c0 -8 7 -15 16 -15 14 0 14 3 4 15 -7 8 -14 15 -16 15 -2 0
-4 -7 -4 -15z"/>
<path d="M2370 26 c0 -2 11 -6 25 -8 14 -3 25 -1 25 3 0 5 -11 9 -25 9 -14 0
-25 -2 -25 -4z"/>
<path d="M2950 19 c-22 -6 -20 -7 13 -8 38 -1 47 3 25 11 -7 3 -24 1 -38 -3z"/>
</g>
</svg>
