<?xml version="1.0" standalone="no"?>
<!DOCTYPE svg PUBLIC "-//W3C//DTD SVG 20010904//EN"
 "http://www.w3.org/TR/2001/REC-SVG-20010904/DTD/svg10.dtd">
<svg version="1.0" xmlns="http://www.w3.org/2000/svg"
 width="300.000000pt" height="438.000000pt" viewBox="0 0 300.000000 438.000000"
 preserveAspectRatio="xMidYMid meet">
<metadata>
Created by potrace 1.10, written by Peter Selinger 2001-2011
</metadata>
<g transform="translate(0.000000,438.000000) scale(0.100000,-0.100000)"
fill="#c0c0c0" stroke="none">
<path d="M1275 3944 c-72 -14 -153 -41 -170 -56 -13 -11 10 -10 77 6 32 8 75
12 96 9 27 -4 42 -1 51 11 7 9 26 16 42 16 51 0 232 -30 284 -47 27 -9 62 -18
78 -19 15 -2 42 -11 60 -20 47 -25 146 -114 164 -147 8 -16 17 -27 19 -24 12
11 -28 66 -80 111 -61 52 -138 91 -212 106 -27 6 -76 17 -109 24 -55 13 -57
14 -22 15 51 1 188 -34 246 -63 25 -13 58 -26 72 -29 31 -8 91 -66 82 -80 -3
-6 -1 -7 6 -3 6 4 9 13 5 19 -9 20 46 -46 67 -78 10 -16 19 -25 19 -19 0 15
-46 82 -83 122 -17 17 -26 32 -20 32 15 0 103 -99 103 -116 0 -8 8 -22 18 -32
38 -38 52 -72 52 -123 0 -70 9 -58 12 16 2 56 -1 65 -44 130 -50 77 -169 195
-196 195 -10 0 0 -10 23 -25 l40 -25 -32 4 c-17 1 -38 8 -46 14 -20 17 -114
48 -214 72 -100 24 -279 25 -388 4z"/>
<path d="M1417 3893 c18 -2 50 -2 70 0 21 2 7 4 -32 4 -38 0 -55 -2 -38 -4z"/>
<path d="M1577 3875 c59 -16 178 -74 170 -81 -3 -3 -15 -1 -26 6 -36 19 -23 3
16 -20 24 -14 32 -16 24 -6 -11 14 -11 16 6 16 23 0 65 -28 58 -40 -3 -4 8
-19 24 -33 16 -13 36 -39 46 -56 9 -18 19 -31 21 -28 10 10 -26 65 -58 92 -21
17 -26 25 -13 21 18 -6 17 -5 -4 18 -39 42 -201 114 -271 122 l-45 4 52 -15z"/>
<path d="M1095 3870 c-63 -9 -164 -55 -260 -117 -40 -26 -95 -61 -121 -77 -26
-17 -42 -32 -35 -34 7 -2 20 3 29 11 9 8 37 24 62 36 l45 22 -35 -30 c-46 -40
-30 -40 20 0 40 32 114 57 107 36 -2 -7 -18 -16 -35 -22 -18 -5 -32 -13 -32
-17 0 -4 -7 -8 -15 -8 -17 0 -118 -90 -111 -98 3 -2 22 9 44 26 21 17 50 34
65 37 15 4 25 11 22 15 -3 4 8 13 25 18 16 6 41 22 54 35 23 23 26 24 47 9 14
-10 19 -11 14 -3 -6 10 -2 11 16 6 l24 -7 -22 16 c-12 9 -28 13 -37 10 -19 -7
-22 12 -3 20 18 9 -32 -2 -86 -19 -26 -8 -45 -10 -42 -5 4 6 14 10 23 10 9 0
26 7 36 15 11 8 29 15 40 16 12 0 39 7 61 15 l40 13 -40 -4 c-54 -7 -32 5 80
44 121 43 123 46 20 31z"/>
<path d="M1355 3870 c103 -9 216 -41 325 -93 30 -15 56 -24 58 -22 8 7 -54 41
-117 63 -37 12 -51 20 -33 18 49 -8 38 1 -25 20 -39 11 -100 18 -183 20 l-125
2 100 -8z"/>
<path d="M1155 3835 c-51 -17 -15 -17 50 0 39 10 44 13 20 13 -16 0 -48 -5
-70 -13z"/>
<path d="M1360 3838 c30 -5 75 -16 100 -23 24 -8 46 -12 49 -10 11 12 -129 46
-178 44 -14 -1 -1 -6 29 -11z"/>
<path d="M2196 3766 c-5 -67 -12 -98 -31 -130 -18 -31 -24 -55 -23 -90 2 -43
4 -45 17 -29 13 17 13 17 7 -2 -9 -24 -9 -23 -6 -60 1 -16 4 -24 7 -17 3 8 26
12 66 11 66 0 55 -16 -13 -19 l-35 -2 35 -10 c19 -5 46 -14 59 -19 21 -9 23
-8 11 5 -16 20 -20 20 75 -9 43 -13 81 -22 84 -20 6 6 -62 34 -102 42 -27 5
-28 7 -12 14 19 7 29 7 125 -6 34 -5 42 -3 33 6 -6 6 -52 14 -102 17 -50 2
-91 9 -91 13 0 5 35 9 79 9 50 0 89 5 107 15 34 17 27 18 -47 5 -78 -13 -269
-21 -269 -10 0 5 17 12 38 15 41 6 169 68 153 73 -6 2 -39 -10 -73 -27 -61
-31 -108 -40 -108 -21 0 6 4 10 9 10 4 0 21 12 37 27 16 14 57 39 91 55 68 30
100 37 69 13 -11 -8 -17 -17 -14 -20 11 -11 48 30 39 43 -11 18 -107 -16 -178
-63 l-53 -35 0 37 c0 21 7 56 16 78 l15 40 -6 -40 c-3 -22 -7 -51 -10 -65 -3
-14 3 -3 14 24 16 38 18 54 9 69 -6 11 -8 40 -4 67 4 26 2 58 -2 70 -7 18 -10
1 -16 -64z m-29 -213 c-3 -10 -5 -2 -5 17 0 19 2 27 5 18 2 -10 2 -26 0 -35z"/>
<path d="M1150 3801 c-62 -16 -137 -50 -114 -51 6 0 29 7 50 16 28 12 59 15
112 12 80 -6 87 -2 21 11 l-44 9 38 1 c21 1 48 -4 60 -10 11 -7 58 -16 103
-20 45 -5 102 -16 126 -24 66 -25 87 -28 54 -9 -34 19 -174 54 -192 47 -7 -2
-32 5 -57 16 -54 25 -71 25 -157 2z"/>
<path d="M1520 3811 c0 -5 19 -16 42 -26 23 -9 54 -25 69 -36 32 -23 53 -25
24 -3 -33 26 -135 75 -135 65z"/>
<path d="M1395 3800 c11 -5 27 -9 35 -9 9 0 8 4 -5 9 -11 5 -27 9 -35 9 -9 0
-8 -4 5 -9z"/>
<path d="M1380 3751 c8 -5 26 -12 40 -15 l25 -7 -25 15 c-14 9 -32 15 -40 15
-13 0 -13 -1 0 -8z"/>
<path d="M1115 3740 c-14 -6 -6 -8 30 -7 28 0 91 -2 142 -5 75 -4 100 -10 138
-32 25 -15 43 -31 40 -36 -4 -6 1 -7 11 -3 11 4 15 2 11 -4 -4 -6 13 -27 38
-47 25 -21 42 -30 39 -21 -4 8 -15 20 -26 26 -11 6 -17 13 -15 16 10 10 47
-18 72 -55 14 -20 25 -30 25 -22 0 13 2 13 10 0 5 -8 10 -22 10 -30 0 -13 -1
-13 -10 0 -5 8 -10 11 -10 5 0 -5 5 -17 10 -25 8 -12 10 -12 10 -1 0 9 4 10
13 3 7 -6 27 -7 52 -1 l40 8 -42 -3 c-40 -4 -43 -2 -53 29 -10 31 -50 78 -50
59 0 -4 -19 11 -43 34 -24 23 -46 40 -50 36 -3 -4 -23 7 -44 23 -21 17 -54 35
-73 42 -42 15 -246 23 -275 11z m407 -102 c-6 -6 -16 -7 -22 -3 -9 6 -9 9 1
16 17 10 34 0 21 -13z"/>
<path d="M1806 3717 c16 -19 34 -42 41 -53 6 -10 12 -14 12 -8 1 14 -60 93
-73 93 -4 1 5 -14 20 -32z"/>
<path d="M2136 3725 c4 -16 8 -42 7 -57 0 -15 4 -25 10 -21 12 7 2 82 -14 97
-9 8 -10 4 -3 -19z"/>
<path d="M1169 3709 c35 -4 78 -13 94 -19 17 -5 32 -8 35 -6 9 10 -104 36
-147 35 -43 -1 -41 -2 18 -10z"/>
<path d="M1340 3712 c8 -5 26 -13 40 -16 17 -5 20 -4 10 2 -8 5 -26 13 -40 16
-17 5 -20 4 -10 -2z"/>
<path d="M1009 3681 c-81 -25 -88 -54 -26 -111 23 -22 37 -40 32 -40 -6 0 -15
3 -21 8 -5 4 3 -5 18 -20 16 -16 33 -28 39 -28 6 0 1 9 -12 21 -20 17 -20 20
-5 15 10 -4 -4 15 -33 42 -56 53 -70 87 -23 57 27 -18 27 -18 9 2 -24 28 -12
35 74 41 38 2 66 9 63 13 -6 11 -79 10 -115 0z"/>
<path d="M1195 3680 c11 -5 27 -9 35 -9 13 -1 13 0 0 9 -8 5 -24 9 -35 9 -20
0 -20 0 0 -9z"/>
<path d="M1530 3681 c0 -5 8 -15 17 -22 11 -10 14 -10 9 -1 -11 19 9 14 28 -7
10 -11 15 -24 12 -30 -4 -6 2 -8 14 -6 11 2 24 -3 30 -13 5 -9 10 -12 10 -7 0
19 -29 53 -64 74 -35 22 -56 27 -56 12z"/>
<path d="M1700 3685 c0 -12 62 -96 67 -92 5 6 -42 83 -57 92 -5 3 -10 3 -10 0z"/>
<path d="M878 3645 c-37 -19 -72 -44 -78 -55 -6 -11 -17 -20 -24 -20 -19 0
-116 -41 -116 -50 0 -9 88 4 98 15 4 4 -4 4 -18 1 -19 -6 -21 -5 -10 3 8 6 22
11 31 11 8 0 26 12 40 26 47 50 63 47 18 -4 -26 -28 -49 -66 -53 -83 -3 -18
-14 -41 -23 -51 -30 -34 -7 -28 29 8 38 36 69 99 45 91 -6 -2 -14 -14 -15 -28
-5 -33 -22 -49 -22 -21 0 12 16 39 36 60 l36 37 -7 -30 c-16 -77 -37 -114 -81
-140 -60 -35 -67 -53 -8 -20 57 32 95 65 88 76 -6 10 24 120 36 133 5 5 6 14
4 20 -3 7 15 21 38 33 24 12 39 22 33 22 -5 0 -40 -15 -77 -34z"/>
<path d="M1651 3660 c0 -27 28 -86 29 -59 0 8 -5 20 -12 27 -6 6 -9 14 -6 18
4 3 18 -12 32 -33 14 -20 26 -31 26 -22 0 9 -16 33 -35 55 -33 37 -34 38 -34
14z"/>
<path d="M2000 3645 c0 -11 5 -27 10 -35 8 -12 10 -12 10 5 0 11 -5 27 -10 35
-8 12 -10 12 -10 -5z"/>
<path d="M1270 3648 c0 -3 17 -23 37 -44 20 -21 32 -30 26 -19 -12 21 -63 73
-63 63z"/>
<path d="M1427 3643 c-4 -3 17 -31 46 -62 56 -60 92 -86 41 -30 -16 19 -37 43
-45 53 -13 18 -12 19 6 13 16 -6 15 -3 -5 13 -27 21 -33 23 -43 13z"/>
<path d="M1168 3617 c12 -13 22 -28 22 -35 0 -6 9 -10 20 -9 15 1 19 6 14 22
-11 35 -26 43 -19 10 l7 -30 -21 33 c-11 17 -26 32 -33 32 -6 0 -2 -10 10 -23z"/>
<path d="M1968 3610 c2 -16 8 -30 13 -30 10 0 12 21 3 44 -10 27 -21 18 -16
-14z"/>
<path d="M892 3597 c-2 -17 -7 -36 -13 -44 -8 -9 -5 -22 11 -48 12 -19 26 -35
31 -35 6 0 1 13 -10 29 -27 37 -26 49 2 46 12 -1 22 -3 22 -4 0 -2 8 -4 18 -6
10 -2 17 2 14 8 -2 7 -18 13 -35 15 -27 3 -32 7 -32 30 0 20 3 23 12 14 17
-17 27 -15 21 6 -2 10 -12 18 -22 19 -12 1 -18 -7 -19 -30z"/>
<path d="M1039 3617 c6 -6 18 -12 27 -13 12 -2 14 0 5 9 -6 6 -18 12 -27 13
-12 2 -14 0 -5 -9z"/>
<path d="M1341 3604 c12 -13 25 -22 27 -19 3 3 11 0 19 -7 10 -8 12 -8 8 3 -3
8 -22 22 -41 31 l-36 16 23 -24z"/>
<path d="M1825 3609 c-4 -6 -4 -13 -1 -16 3 -4 6 0 7 8 0 8 7 1 14 -16 8 -17
14 -23 15 -13 1 38 -21 61 -35 37z"/>
<path d="M2440 3610 c-8 -5 -12 -11 -9 -14 3 -3 14 1 25 9 21 16 8 20 -16 5z"/>
<path d="M1890 3607 c0 -4 7 -22 16 -39 14 -28 17 -29 32 -15 12 13 13 21 4
39 -11 22 -11 22 -6 -4 4 -17 2 -28 -5 -28 -6 0 -11 4 -11 8 0 11 -29 49 -30
39z"/>
<path d="M1986 3560 c-21 -16 -41 -33 -45 -36 -9 -11 72 37 89 53 27 25 -5 13
-44 -17z"/>
<path d="M2048 3541 l-27 -29 24 2 c17 1 26 9 31 26 6 24 7 24 15 5 8 -19 9
-19 6 -1 -3 29 -19 28 -49 -3z"/>
<path d="M1580 3538 c0 -9 5 -20 11 -23 17 -11 18 -2 3 19 -12 17 -14 17 -14
4z"/>
<path d="M1470 3526 c0 -9 7 -19 15 -23 23 -8 25 0 4 21 -17 18 -19 18 -19 2z"/>
<path d="M940 3503 c0 -1 10 -7 21 -14 15 -8 19 -8 15 0 -9 14 0 14 27 -1 20
-10 21 -10 9 5 -8 9 -26 15 -43 14 -16 -1 -29 -3 -29 -4z"/>
<path d="M1324 3501 c3 -5 17 -8 32 -8 14 0 35 -5 47 -11 33 -15 108 -31 101
-21 -7 11 -130 49 -161 49 -13 0 -22 -4 -19 -9z"/>
<path d="M1865 3490 c-16 -4 -56 -8 -88 -9 -42 -1 -66 -7 -84 -21 -30 -23 -19
-26 23 -6 16 8 64 16 106 18 54 2 78 7 78 16 0 6 -1 11 -2 11 -2 -1 -16 -5
-33 -9z"/>
<path d="M2014 3493 c11 -3 26 -11 33 -19 15 -15 84 -36 92 -28 8 8 -21 24
-44 24 -11 0 -29 7 -39 15 -11 8 -29 14 -40 14 -20 -1 -20 -2 -2 -6z"/>
<path d="M1091 3480 c-47 -7 -60 -15 -107 -61 -29 -29 -51 -57 -47 -62 3 -5
-3 -27 -13 -50 -20 -47 -64 -105 -64 -86 0 7 8 22 18 33 l17 21 -23 -20 c-16
-13 -21 -26 -18 -41 4 -15 0 -24 -10 -28 -11 -4 -14 -14 -11 -27 4 -13 1 -19
-6 -16 -7 3 -10 11 -7 18 2 8 5 39 6 70 1 30 7 65 13 77 16 29 14 34 -8 23
-20 -11 -44 -65 -33 -76 4 -3 1 -9 -5 -13 -6 -4 -14 -23 -18 -42 -7 -31 -6
-33 9 -21 9 7 16 22 16 32 0 11 5 19 10 19 6 0 10 -4 10 -10 0 -16 -23 -60
-32 -60 -4 0 -8 -5 -8 -10 0 -6 3 -9 8 -9 4 1 14 1 22 0 11 -1 11 -4 2 -13
-14 -14 -16 -87 -2 -108 7 -11 10 1 10 41 0 40 5 61 16 70 15 13 16 11 11 -16
-3 -17 -8 -41 -11 -55 -6 -21 -4 -20 8 5 8 17 17 41 20 55 3 14 15 36 26 50
18 23 20 23 18 5 -3 -44 5 -58 12 -20 4 22 11 49 15 59 6 15 5 17 -5 11 -10
-6 -11 -2 -6 20 15 58 37 100 45 86 7 -10 10 -9 14 4 4 9 3 13 -3 10 -18 -11
-11 10 19 57 36 56 35 55 102 63 30 3 46 2 37 -2 -9 -5 45 -9 120 -11 150 -3
173 4 41 14 -46 4 -94 10 -107 15 -26 10 -24 10 -101 -1z m-196 -277 c-36 -55
-42 -63 -48 -57 -8 8 43 84 55 84 6 0 2 -12 -7 -27z"/>
<path d="M1534 3475 c11 -8 22 -12 25 -9 6 6 -19 24 -34 24 -5 -1 -1 -7 9 -15z"/>
<path d="M1596 3455 c13 -20 19 -23 30 -14 8 6 14 17 14 23 0 6 -5 4 -10 -4
-9 -13 -12 -13 -21 3 -5 9 -14 17 -20 17 -5 0 -2 -11 7 -25z"/>
<path d="M1912 3465 c-23 -7 -60 -11 -82 -8 -24 3 -40 2 -40 -5 0 -19 46 -22
117 -5 74 17 132 11 140 -14 3 -9 -4 -8 -24 2 -15 8 -35 15 -43 15 -8 -1 -1
-7 16 -14 18 -8 35 -19 39 -26 6 -9 9 -9 15 0 6 9 12 6 21 -11 7 -13 18 -28
25 -34 20 -16 64 -106 64 -132 0 -28 28 -98 36 -90 3 3 1 14 -4 24 -5 10 -12
43 -16 73 -4 30 -14 61 -22 70 -8 8 -38 46 -66 83 -28 38 -55 70 -62 72 -38
11 -76 11 -114 0z"/>
<path d="M803 3396 c-40 -40 -73 -78 -73 -86 0 -8 17 3 40 25 41 40 69 42 33
2 -26 -28 -46 -67 -39 -74 3 -4 12 10 21 30 8 19 23 38 33 41 10 3 23 20 29
37 12 30 11 31 -6 15 -11 -10 -22 -13 -25 -8 -7 11 28 45 37 36 4 -4 11 6 17
21 6 15 9 29 8 30 -2 1 -36 -30 -75 -69z"/>
<path d="M890 3450 c0 -13 20 -13 40 0 12 8 9 10 -12 10 -16 0 -28 -4 -28 -10z"/>
<path d="M1043 3424 c-15 -15 -19 -20 -9 -13 10 8 31 19 45 26 18 8 21 12 9
12 -9 1 -30 -11 -45 -25z"/>
<path d="M903 3419 c-22 -8 -59 -66 -49 -76 3 -3 10 6 16 21 5 15 24 33 41 40
35 15 27 29 -8 15z"/>
<path d="M2105 3400 c19 -19 31 -26 34 -19 2 7 -6 21 -19 31 -36 29 -46 21
-15 -12z"/>
<path d="M1546 3393 c10 -40 14 -41 14 -5 0 18 -5 32 -10 32 -6 0 -8 -11 -4
-27z"/>
<path d="M1615 3399 c-11 -17 0 -20 21 -4 17 13 17 14 2 15 -9 0 -20 -5 -23
-11z"/>
<path d="M2178 3398 c12 -6 22 -15 22 -20 0 -4 9 -8 20 -8 13 0 20 -7 20 -18
0 -10 4 -22 9 -27 6 -6 14 -28 19 -50 5 -22 13 -49 17 -60 4 -11 -4 -5 -18 14
-15 19 -32 50 -38 70 -7 19 -20 44 -30 55 -22 23 -25 8 -4 -20 8 -10 15 -25
15 -33 0 -8 11 -28 24 -45 46 -61 56 -90 47 -137 -6 -29 -9 -35 -10 -18 -1 14
-12 46 -25 71 -13 25 -26 54 -29 64 -4 16 -5 15 -6 -4 0 -13 8 -35 19 -50 35
-48 44 -145 25 -279 -9 -67 8 -70 29 -5 43 132 40 398 -6 448 l-19 22 48 -5
c34 -3 44 -1 33 6 -9 5 -40 12 -69 14 -29 3 -58 10 -64 16 -6 6 -20 11 -31 10
-20 0 -20 -1 2 -11z"/>
<path d="M892 3363 c-46 -65 -72 -143 -32 -95 10 13 17 29 14 36 -3 7 2 19 11
26 16 13 21 0 5 -16 -6 -6 -6 -15 0 -24 8 -12 10 -11 10 6 0 12 7 27 15 34 8
7 15 17 15 22 0 6 -7 5 -15 -2 -17 -15 -19 -7 -5 21 16 28 4 23 -18 -8z"/>
<path d="M2161 3355 c0 -11 4 -27 9 -35 9 -13 10 -13 9 0 0 8 -4 24 -9 35 -9
20 -9 20 -9 0z"/>
<path d="M2070 3347 c0 -15 41 -89 47 -84 3 3 -7 25 -21 49 -14 24 -26 39 -26
35z"/>
<path d="M2203 3176 c4 -10 10 -30 14 -44 3 -15 13 -36 21 -47 11 -15 13 -15
9 -3 -3 9 -11 35 -17 57 -6 22 -16 43 -22 47 -8 5 -9 2 -5 -10z"/>
<path d="M877 3133 c-4 -3 -7 -19 -7 -34 0 -34 -24 -92 -34 -82 -4 5 -2 -4 5
-19 12 -28 35 -29 25 -1 -3 8 1 30 10 49 24 51 25 112 1 87z"/>
<path d="M2171 3110 c0 -16 22 -45 52 -69 15 -12 17 -12 11 3 -3 9 -10 16 -15
16 -4 0 -6 6 -3 14 3 8 1 17 -5 21 -7 3 -8 0 -5 -9 10 -26 -4 -18 -20 12 -8
15 -15 20 -15 12z"/>
<path d="M290 3100 c0 -5 9 -10 20 -10 11 0 20 5 20 10 0 6 -9 10 -20 10 -11
0 -20 -4 -20 -10z"/>
<path d="M454 3098 c-3 -4 31 -8 75 -8 45 0 81 3 81 8 0 10 -150 11 -156 0z"/>
<path d="M906 3082 c-8 -14 3 -39 20 -46 17 -7 17 -5 0 29 -8 14 -17 22 -20
17z"/>
<path d="M2140 3076 c0 -11 13 -40 30 -66 17 -27 33 -67 36 -96 9 -66 43 -142
55 -123 7 11 9 9 9 -8 0 -13 1 -26 3 -30 1 -4 -5 -9 -13 -11 -11 -2 -19 11
-28 42 -25 95 -135 156 -282 156 -38 0 -71 4 -74 8 -6 10 -132 9 -142 -1 -4
-4 24 -8 62 -9 l69 -1 -90 -8 c-49 -4 -202 -10 -338 -14 -285 -7 -454 -22
-252 -21 156 0 216 -14 255 -62 22 -26 26 -38 17 -44 -6 -4 19 -7 57 -5 l69 2
16 -60 c28 -98 69 -165 146 -241 83 -82 150 -114 242 -114 103 0 177 39 228
119 26 43 46 129 43 186 -2 31 1 40 15 43 12 2 17 -3 17 -20 0 -19 -2 -20 -11
-8 -8 12 -9 9 -4 -10 17 -66 17 -171 0 -216 -14 -36 -15 -51 -6 -70 9 -21 8
-26 -12 -33 -12 -5 -31 -10 -42 -12 -17 -4 -21 -18 -32 -104 -15 -125 -27
-173 -63 -255 -28 -64 -28 -66 -15 -140 17 -93 56 -204 74 -208 8 -2 11 3 8
10 -40 91 -58 146 -67 204 -10 66 -10 73 14 120 33 67 53 142 67 257 9 78 15
97 28 97 9 1 27 7 41 15 20 11 25 22 26 57 1 24 5 104 9 178 9 166 -3 247 -40
256 -26 6 -34 29 -35 89 -1 42 -39 131 -53 124 -5 -2 -15 7 -22 21 -12 21 -14
22 -15 6z m-19 -193 c39 -20 70 -43 80 -60 24 -43 44 -150 31 -166 -6 -7 -11
-39 -11 -70 1 -61 -10 -86 -58 -133 -97 -92 -261 -85 -377 17 -43 37 -116 132
-116 150 0 8 10 9 33 4 17 -4 50 -10 72 -14 47 -7 67 -38 71 -114 2 -48 18
-72 38 -60 5 3 6 1 2 -5 -3 -6 -1 -14 5 -17 21 -14 20 4 -4 52 -13 26 -30 70
-37 96 -7 27 -18 50 -24 52 -6 1 -42 8 -81 15 -105 18 -110 19 -91 33 9 7 20
30 25 52 l9 40 1 -47 c1 -39 4 -48 19 -47 10 0 12 3 5 6 -27 10 -11 22 25 17
31 -4 33 -3 15 5 -13 6 -23 16 -23 22 0 8 -4 8 -15 -1 -13 -10 -15 -9 -15 9 0
18 6 21 39 21 39 0 40 -1 43 -37 3 -43 32 -58 41 -23 7 28 -1 48 -21 53 -13 4
-11 5 4 6 28 1 42 -16 46 -59 3 -35 3 -35 56 -38 29 -2 52 1 52 7 0 5 3 16 6
25 3 9 1 16 -5 16 -6 0 -11 -9 -11 -20 0 -15 -7 -20 -29 -20 -17 0 -33 5 -37
12 -4 7 -3 8 4 4 22 -13 12 11 -10 28 -22 16 -21 16 27 11 l50 -4 -52 12 c-76
18 -79 31 -5 23 35 -3 68 -8 73 -12 5 -3 9 -23 9 -45 0 -35 2 -39 26 -39 15 0
23 4 19 11 -4 6 -13 8 -21 5 -10 -4 -14 3 -14 27 l1 32 24 -30 c14 -16 25 -34
25 -39 0 -4 11 -5 24 -2 16 4 30 0 40 -10 15 -14 16 -14 16 1 0 8 -11 20 -25
25 -14 5 -25 15 -26 22 -1 7 -4 2 -8 -11 l-6 -23 -12 23 c-6 13 -14 32 -17 41
-9 29 -82 41 -253 42 l-163 1 0 33 c0 18 5 42 10 53 27 50 149 80 316 76 113
-3 125 -5 185 -34z m-467 7 c-27 -12 -45 -28 -54 -49 -12 -30 -15 -31 -71 -31
-42 0 -59 4 -59 13 0 20 -41 54 -75 64 -21 5 16 10 120 13 83 3 157 6 165 7 8
1 -3 -7 -26 -17z m6 -158 c0 -5 -6 -16 -13 -26 -13 -18 -14 -18 -20 -2 -4 10
-5 22 -1 27 7 11 34 12 34 1z"/>
<path d="M1762 2888 c-7 -7 -12 -21 -12 -32 0 -19 2 -18 13 4 13 26 37 34 44
14 3 -9 -35 -31 -127 -72 -24 -10 -23 -11 13 -11 20 -1 37 3 37 7 0 9 59 32
84 32 9 0 27 -11 39 -24 19 -20 67 -44 67 -34 0 2 -22 21 -49 41 -40 31 -47
41 -43 62 4 22 1 25 -25 25 -16 0 -34 -5 -41 -12z"/>
<path d="M1672 2858 c-7 -7 -12 -8 -12 -4 0 5 -7 3 -15 -4 -17 -14 -21 -75 -5
-65 6 4 10 14 9 23 -1 10 0 24 1 32 1 13 2 13 8 -1 5 -11 14 -13 32 -8 15 4
18 7 8 8 -11 1 -15 6 -12 16 7 18 2 19 -14 3z"/>
<path d="M1763 2793 c9 -2 25 -2 35 0 9 3 1 5 -18 5 -19 0 -27 -2 -17 -5z"/>
<path d="M2134 2675 c-3 -8 -4 -20 -1 -27 3 -7 6 -2 6 12 1 17 4 21 10 12 6
-10 10 -10 21 3 11 13 9 15 -9 15 -12 0 -24 -7 -27 -15z"/>
<path d="M1746 2651 c5 -4 23 -11 39 -15 l30 -6 -25 15 c-27 16 -60 21 -44 6z"/>
<path d="M1883 2605 c5 -11 25 -37 43 -58 20 -21 34 -48 34 -63 0 -14 4 -23
10 -19 20 12 10 55 -20 85 -43 44 -39 60 13 61 23 0 51 4 62 8 12 5 -15 8 -66
7 -83 -1 -86 -2 -76 -21z"/>
<path d="M1750 2583 c0 -10 55 -82 82 -108 17 -16 -1 14 -35 60 -43 57 -47 61
-47 48z"/>
<path d="M2012 2558 c-21 -21 -13 -53 17 -71 36 -21 101 -22 127 -2 18 14 17
14 -9 5 -41 -14 -79 -12 -105 6 -31 22 -28 32 18 44 21 6 42 15 45 20 8 12 8
12 -35 0 -22 -6 -36 -6 -40 0 -4 6 -11 5 -18 -2z"/>
<path d="M2003 2483 c-20 -7 -15 -23 7 -23 11 0 20 4 20 9 0 13 -12 19 -27 14z"/>
<path d="M1785 3071 c6 -6 30 -13 55 -16 30 -4 38 -3 25 3 -33 15 -91 24 -80
13z"/>
<path d="M886 3034 c-3 -9 -4 -19 -1 -22 3 -3 5 0 5 7 0 7 4 10 9 7 5 -3 0
-23 -10 -43 -24 -49 -37 -109 -21 -99 8 5 10 -3 6 -26 -4 -25 -3 -30 5 -18 6
8 9 31 5 51 -4 30 0 42 23 70 15 19 20 28 10 20 -20 -16 -22 -9 -5 19 10 16
10 23 -3 36 -15 14 -17 14 -23 -2z"/>
<path d="M1965 2981 c-28 -7 -29 -7 -8 -15 13 -4 27 -5 33 -1 5 3 21 -2 35
-11 14 -9 28 -14 31 -11 6 5 -45 48 -55 46 -3 -1 -19 -4 -36 -8z"/>
<path d="M1250 2950 c15 -5 -8 -7 -60 -5 -58 3 -70 1 -40 -3 43 -7 44 -8 16
-15 -15 -4 -47 -5 -70 -2 -33 5 -47 2 -68 -14 -14 -12 -30 -21 -35 -21 -21 0
-104 -62 -113 -84 -6 -17 -15 -23 -27 -20 -13 4 -24 -7 -42 -39 -25 -46 -22
-67 7 -67 14 0 20 -16 29 -86 18 -126 67 -196 166 -233 41 -16 127 -13 180 5
53 18 151 100 140 117 -3 7 -3 9 2 5 4 -4 14 -3 22 3 21 18 15 -2 -9 -31 -13
-14 -6 -8 16 14 46 49 146 200 146 221 0 20 -35 -26 -66 -87 -19 -37 -36 -68
-38 -68 -2 0 -3 11 -2 24 0 13 5 22 10 18 5 -3 6 2 3 12 -4 9 -3 15 2 12 10
-6 47 81 57 133 5 25 4 32 -4 27 -7 -4 -12 -15 -12 -25 0 -9 -4 -21 -9 -26 -5
-6 -11 -23 -14 -40 -4 -28 -4 -27 -6 7 -1 42 6 39 -156 63 -123 18 -298 20
-325 3 -17 -11 -23 -9 -42 9 -18 19 -20 26 -11 46 12 25 103 77 136 77 10 0
15 4 12 10 -7 11 15 16 97 24 86 9 159 26 152 37 -3 5 -20 9 -37 8 -31 -1 -31
-1 -7 -9z m-399 -213 c-16 -16 -26 0 -10 19 9 11 15 12 17 4 2 -6 -1 -17 -7
-23z m26 -84 l1 -108 -10 75 c-8 62 -5 140 6 140 1 0 3 -48 3 -107z m63 2 c0
-13 5 -27 10 -30 7 -4 7 -12 0 -25 -16 -29 -12 -48 5 -26 21 28 19 12 -5 -34
-23 -45 -26 -67 -5 -30 14 24 15 22 9 -30 -3 -38 -2 -50 5 -40 12 20 17 138 8
210 -3 30 -4 47 -1 38 6 -19 88 -48 136 -48 21 0 28 5 28 20 0 11 -5 20 -11
20 -6 0 -9 7 -5 15 3 9 0 15 -9 15 -8 0 -15 -7 -15 -15 0 -23 -17 -18 -23 6
-4 17 -11 20 -29 16 -13 -3 -36 0 -53 7 -26 12 -28 15 -12 21 10 4 33 3 51 -2
18 -6 68 -8 112 -6 46 2 95 -1 117 -8 33 -11 37 -16 37 -46 0 -26 4 -33 19
-33 22 0 34 25 25 53 -5 16 -3 19 11 14 9 -4 30 -7 46 -7 27 0 30 -3 27 -27
-4 -33 -33 -43 -41 -14 -3 13 1 21 12 24 10 3 8 5 -7 6 -20 1 -23 -3 -20 -26
2 -22 10 -29 33 -34 24 -5 19 -14 -7 -11 -3 1 -4 -15 -3 -36 3 -26 -2 -44 -16
-62 -12 -14 -18 -20 -15 -14 2 5 0 29 -6 53 -8 30 -19 46 -39 56 -32 17 -114
21 -104 5 3 -5 29 -10 58 -10 38 0 48 -3 40 -11 -13 -13 -189 5 -263 27 -24 7
-46 11 -48 9 -16 -16 212 -58 287 -53 41 2 46 0 52 -22 12 -43 10 -49 -28 -91
-92 -101 -228 -133 -326 -76 -72 42 -77 55 -84 213 l-6 139 27 -38 c14 -21 26
-49 26 -62z m140 9 c14 -7 19 -13 12 -14 -23 0 -102 22 -107 31 -8 11 65 -1
95 -17z"/>
<path d="M1130 2711 c0 -4 11 -6 25 -3 14 2 25 6 25 8 0 2 -11 4 -25 4 -14 0
-25 -4 -25 -9z"/>
<path d="M1183 2695 c-12 -15 -17 -26 -10 -26 66 -8 98 -6 94 4 -2 7 -19 14
-38 17 -31 5 -33 6 -14 17 14 9 16 12 5 13 -8 0 -25 -12 -37 -25z"/>
<path d="M1140 2640 c0 -5 11 -10 25 -10 14 0 25 5 25 10 0 6 -11 10 -25 10
-14 0 -25 -4 -25 -10z"/>
<path d="M1055 2570 c11 -5 27 -9 35 -9 13 -1 13 0 0 9 -8 5 -24 9 -35 9 -20
0 -20 0 0 -9z"/>
<path d="M1192 2551 c-7 -19 -20 -44 -30 -54 -13 -16 -14 -19 -2 -15 20 6 52
63 48 85 -3 13 -7 8 -16 -16z"/>
<path d="M1010 2545 c0 -6 16 -25 35 -42 19 -17 35 -35 35 -40 0 -14 -42 -50
-65 -56 -16 -4 -15 -5 6 -6 29 -1 69 35 69 64 0 10 -18 35 -40 55 -22 20 -40
32 -40 25z"/>
<path d="M1050 2550 c8 -5 24 -10 34 -10 26 0 18 6 -19 14 -22 5 -26 4 -15 -4z"/>
<path d="M1232 2510 c-18 -22 -29 -40 -23 -40 8 0 34 31 55 68 13 22 1 12 -32
-28z"/>
<path d="M1112 2868 c-7 -7 -12 -16 -12 -21 0 -5 -9 -22 -21 -38 -11 -16 -19
-29 -17 -29 2 0 26 12 53 26 37 19 43 24 23 21 -31 -5 -32 -4 -17 25 13 23 8
33 -9 16z"/>
<path d="M1228 2869 c-10 -5 -18 -17 -18 -25 0 -11 5 -10 22 6 24 23 48 26 48
8 0 -15 -99 -58 -133 -58 -12 0 -29 -5 -37 -10 -11 -7 -3 -10 31 -10 25 0 49
4 55 8 5 4 26 14 48 21 37 13 39 12 75 -23 20 -20 46 -36 56 -36 16 0 14 4
-10 19 -39 24 -72 61 -77 86 -4 23 -34 30 -60 14z"/>
<path d="M840 2845 c0 -14 4 -25 9 -25 4 0 6 11 3 25 -2 14 -6 25 -8 25 -2 0
-4 -11 -4 -25z"/>
<path d="M982 2843 c-5 -10 -12 -29 -15 -43 -6 -24 -4 -25 33 -22 23 2 46 12
57 25 17 20 17 20 0 14 -10 -4 -24 -7 -30 -7 -7 0 -6 -4 3 -10 12 -8 9 -10
-12 -10 -31 0 -33 6 -18 44 11 30 -4 36 -18 9z"/>
<path d="M1235 2780 c3 -5 13 -10 21 -10 8 0 14 5 14 10 0 6 -9 10 -21 10 -11
0 -17 -4 -14 -10z"/>
<path d="M2375 2670 c11 -5 31 -9 45 -9 20 -1 22 1 10 9 -8 5 -28 9 -45 9 -26
0 -27 -2 -10 -9z"/>
<path d="M350 2659 c28 -5 48 -5 54 1 7 7 -9 10 -44 9 l-55 -1 45 -9z"/>
<path d="M615 2650 c28 -12 47 -12 40 0 -3 6 -18 10 -33 9 -24 0 -25 -1 -7 -9z"/>
<path d="M1590 2630 c10 -34 47 -90 60 -90 4 0 -6 27 -23 60 -34 65 -51 79
-37 30z"/>
<path d="M2628 2643 c12 -2 32 -2 45 0 12 2 2 4 -23 4 -25 0 -35 -2 -22 -4z"/>
<path d="M130 2612 c-19 -2 -39 -7 -43 -12 -8 -7 83 -2 91 5 8 7 -16 10 -48 7z"/>
<path d="M360 2610 c20 -13 40 -13 40 0 0 6 -12 10 -27 10 -22 0 -25 -2 -13
-10z"/>
<path d="M595 2600 c3 -5 34 -10 68 -10 44 0 58 3 47 10 -20 13 -123 13 -115
0z"/>
<path d="M575 2570 c3 -5 13 -10 21 -10 8 0 14 5 14 10 0 6 -9 10 -21 10 -11
0 -17 -4 -14 -10z"/>
<path d="M710 2532 c0 -15 60 -26 73 -13 8 8 4 11 -15 11 -15 0 -33 3 -42 6
-9 3 -16 2 -16 -4z"/>
<path d="M495 2510 c28 -12 47 -12 40 0 -3 6 -18 10 -33 9 -24 0 -25 -1 -7 -9z"/>
<path d="M615 2491 c-14 -6 2 -8 50 -7 39 0 88 -3 110 -8 32 -7 38 -6 28 4
-15 16 -159 24 -188 11z"/>
<path d="M2226 2484 c-10 -25 -1 -27 19 -4 15 17 16 20 3 20 -9 0 -19 -7 -22
-16z"/>
<path d="M2680 2470 c0 -5 9 -10 21 -10 11 0 17 5 14 10 -3 6 -13 10 -21 10
-8 0 -14 -4 -14 -10z"/>
<path d="M650 2450 c19 -13 30 -13 30 0 0 6 -10 10 -22 10 -19 0 -20 -2 -8
-10z"/>
<path d="M873 2420 c4 -14 7 -31 7 -38 0 -7 5 -10 10 -7 16 10 12 41 -7 56
-15 13 -16 11 -10 -11z"/>
<path d="M293 2413 c11 -18 200 -36 194 -19 -2 6 -26 11 -53 12 -27 0 -71 4
-98 8 -32 6 -47 5 -43 -1z"/>
<path d="M780 2411 c0 -5 11 -12 24 -15 13 -3 31 -9 40 -12 9 -3 16 -1 16 5 0
6 -9 11 -21 11 -11 0 -29 5 -40 10 -11 6 -19 7 -19 1z"/>
<path d="M190 2400 c0 -5 17 -10 38 -10 27 0 33 3 22 10 -20 13 -60 13 -60 0z"/>
<path d="M560 2403 c0 -14 79 -31 108 -24 23 7 19 9 -26 15 -29 4 -59 9 -67
12 -8 4 -15 2 -15 -3z"/>
<path d="M10 2390 c-12 -8 -11 -10 8 -10 12 0 22 5 22 10 0 13 -11 13 -30 0z"/>
<path d="M2725 2390 c3 -5 18 -10 33 -10 21 0 24 2 12 10 -20 13 -53 13 -45 0z"/>
<path d="M891 2354 c-25 -32 -23 -45 10 -61 30 -15 39 -6 32 31 l-6 29 -18
-24 c-12 -15 -19 -19 -19 -10 0 8 7 23 17 33 9 10 14 21 11 24 -3 3 -15 -7
-27 -22z"/>
<path d="M1630 2374 c0 -17 18 -36 30 -32 7 2 4 10 -9 22 -12 11 -21 15 -21
10z"/>
<path d="M1725 2343 c14 -21 25 -45 25 -54 0 -20 -26 -43 -65 -57 -26 -9 -27
-11 -7 -11 32 -1 79 25 87 48 6 21 -9 68 -32 93 -29 32 -34 19 -8 -19z"/>
<path d="M2565 2372 c6 -6 24 -14 40 -18 21 -4 27 -3 20 4 -5 6 -23 14 -40 18
-21 4 -27 3 -20 -4z"/>
<path d="M285 2360 c-18 -8 -17 -9 8 -9 16 -1 26 3 22 9 -3 6 -7 10 -8 9 -1 0
-11 -4 -22 -9z"/>
<path d="M670 2366 c0 -2 15 -6 34 -8 19 -2 32 0 30 4 -5 8 -64 12 -64 4z"/>
<path d="M838 2352 c9 -10 19 -14 21 -9 2 5 -3 13 -10 18 -24 15 -30 10 -11
-9z"/>
<path d="M1336 2331 c-35 -67 -8 -122 59 -120 29 1 29 1 -8 11 -53 14 -68 47
-42 94 10 19 16 37 12 40 -3 3 -13 -8 -21 -25z"/>
<path d="M15 2340 c-4 -6 5 -10 19 -10 14 0 26 5 26 10 0 6 -9 10 -19 10 -11
0 -23 -4 -26 -10z"/>
<path d="M770 2340 c8 -5 26 -10 40 -10 20 0 22 2 10 10 -8 5 -26 10 -40 10
-20 0 -22 -2 -10 -10z"/>
<path d="M535 2331 c27 -11 175 -20 175 -11 0 7 -111 20 -165 19 -25 0 -27 -2
-10 -8z"/>
<path d="M1780 2326 c0 -8 5 -18 10 -21 6 -3 10 1 10 9 0 8 -4 18 -10 21 -5 3
-10 -1 -10 -9z"/>
<path d="M375 2320 c-3 -5 3 -10 15 -10 12 0 18 5 15 10 -3 6 -10 10 -15 10
-5 0 -12 -4 -15 -10z"/>
<path d="M2340 2320 c8 -5 24 -10 35 -10 17 0 17 2 5 10 -8 5 -24 10 -35 10
-17 0 -17 -2 -5 -10z"/>
<path d="M2480 2310 c20 -13 43 -13 35 0 -3 6 -16 10 -28 10 -18 0 -19 -2 -7
-10z"/>
<path d="M13 2303 c9 -2 25 -2 35 0 9 3 1 5 -18 5 -19 0 -27 -2 -17 -5z"/>
<path d="M295 2300 c11 -5 38 -8 60 -8 38 0 39 1 10 8 -16 4 -43 8 -60 8 -25
1 -27 -1 -10 -8z"/>
<path d="M535 2296 c39 -8 82 -11 97 -9 15 3 61 -2 102 -12 42 -9 88 -15 103
-13 47 6 -144 36 -262 42 l-110 5 70 -13z"/>
<path d="M748 2303 c12 -2 30 -2 40 0 9 3 -1 5 -23 4 -22 0 -30 -2 -17 -4z"/>
<path d="M2695 2303 c15 -15 65 -25 65 -13 0 5 -6 10 -12 10 -7 0 -24 3 -38 6
-17 5 -22 3 -15 -3z"/>
<path d="M1638 2280 c-34 -10 -101 -51 -94 -57 2 -2 22 5 45 16 22 12 58 21
81 21 22 0 40 5 40 10 0 6 -4 10 -9 10 -5 0 -15 2 -23 4 -7 2 -25 1 -40 -4z"/>
<path d="M230 2269 c-30 -5 -59 -14 -65 -21 -7 -8 0 -9 25 -3 19 4 58 11 87
14 29 4 55 10 59 14 9 9 -36 7 -106 -4z"/>
<path d="M1040 2270 c0 -13 11 -13 30 0 12 8 11 10 -7 10 -13 0 -23 -4 -23
-10z"/>
<path d="M1382 2268 c-20 -20 -14 -23 32 -20 24 2 53 -1 65 -7 33 -18 24 2
-10 22 -36 20 -70 22 -87 5z"/>
<path d="M705 2254 c28 -7 57 -13 65 -13 24 2 -62 27 -90 27 -15 0 -5 -5 25
-14z"/>
<path d="M355 2250 c3 -5 25 -10 48 -9 36 1 38 2 17 9 -36 12 -72 12 -65 0z"/>
<path d="M2735 2250 c3 -5 13 -10 21 -10 8 0 12 5 9 10 -3 6 -13 10 -21 10 -8
0 -12 -4 -9 -10z"/>
<path d="M20 2240 c14 -4 36 -8 50 -8 23 -1 23 0 5 8 -11 5 -33 8 -50 8 -29 0
-29 0 -5 -8z"/>
<path d="M500 2243 c-14 -3 -29 -9 -35 -15 -7 -7 0 -9 24 -4 18 3 49 6 67 6
19 0 34 5 34 10 0 10 -43 11 -90 3z"/>
<path d="M2915 2240 c17 -4 39 -8 50 -9 16 -1 17 1 5 9 -8 5 -31 9 -50 9 l-35
-1 30 -8z"/>
<path d="M224 2214 c-18 -15 -18 -15 11 -9 37 8 57 25 29 25 -11 0 -29 -7 -40
-16z"/>
<path d="M605 2220 c3 -5 15 -10 26 -10 11 0 31 -7 45 -16 13 -9 27 -14 30
-11 8 8 -62 47 -85 47 -12 0 -19 -4 -16 -10z"/>
<path d="M825 2210 c3 -5 15 -10 26 -10 11 0 17 5 14 10 -3 6 -15 10 -26 10
-11 0 -17 -4 -14 -10z"/>
<path d="M903 2213 c9 -2 25 -2 35 0 9 3 1 5 -18 5 -19 0 -27 -2 -17 -5z"/>
<path d="M295 2200 c-18 -8 -17 -9 8 -9 15 -1 27 4 27 9 0 12 -8 12 -35 0z"/>
<path d="M30 2190 c19 -13 30 -13 30 0 0 6 -10 10 -22 10 -19 0 -20 -2 -8 -10z"/>
<path d="M1297 2194 c-4 -4 -7 -14 -7 -23 0 -11 3 -12 11 -4 6 6 10 16 7 23
-2 6 -7 8 -11 4z"/>
<path d="M490 2179 c0 -5 11 -9 25 -9 14 0 25 2 25 4 0 2 -11 6 -25 8 -14 3
-25 1 -25 -3z"/>
<path d="M2890 2180 c8 -5 24 -10 35 -10 17 0 17 2 5 10 -8 5 -24 10 -35 10
-17 0 -17 -2 -5 -10z"/>
<path d="M315 2170 c-4 -6 25 -9 79 -8 48 1 80 5 74 10 -19 11 -146 10 -153
-2z"/>
<path d="M585 2170 c3 -5 15 -10 26 -10 11 0 17 5 14 10 -3 6 -15 10 -26 10
-11 0 -17 -4 -14 -10z"/>
<path d="M2323 2169 c14 -8 22 -8 30 0 8 8 3 11 -18 11 -26 -1 -28 -2 -12 -11z"/>
<path d="M2724 2170 c-12 -5 -2 -9 31 -13 26 -4 50 -6 51 -4 7 7 -66 22 -82
17z"/>
<path d="M234 2159 c26 -6 43 -6 50 1 7 7 -6 10 -39 9 l-50 -1 39 -9z"/>
<path d="M660 2162 c0 -15 51 -25 63 -13 8 8 5 11 -10 11 -12 0 -28 3 -37 6
-9 3 -16 2 -16 -4z"/>
<path d="M120 2152 c0 -5 34 -16 75 -25 85 -19 170 -23 160 -7 -3 6 -32 10
-63 10 -54 0 -98 7 -149 24 -13 4 -23 3 -23 -2z"/>
<path d="M2393 2153 c9 -14 56 -23 63 -12 3 5 -1 9 -8 9 -7 0 -24 3 -37 7 -16
4 -22 2 -18 -4z"/>
<path d="M0 2140 c0 -5 17 -10 38 -10 20 -1 48 -7 62 -15 29 -16 105 -21 80
-5 -8 5 -27 10 -41 10 -15 0 -40 7 -55 15 -33 17 -84 20 -84 5z"/>
<path d="M820 2140 c36 -11 50 -11 50 0 0 6 -17 10 -37 9 -34 -1 -35 -2 -13
-9z"/>
<path d="M895 2120 c-20 -9 -20 -9 0 -9 11 0 27 4 35 9 13 9 13 10 0 9 -8 0
-24 -4 -35 -9z"/>
<path d="M375 2106 c-60 -14 -41 -27 38 -25 49 2 50 2 17 9 l-35 7 32 2 c17 0
35 6 38 11 8 13 -25 11 -90 -4z"/>
<path d="M516 2110 c-11 -3 -15 -9 -10 -12 5 -3 18 -2 28 2 11 3 15 9 10 12
-5 3 -18 2 -28 -2z"/>
<path d="M600 2111 c0 -10 138 -56 146 -48 3 2 -29 16 -70 30 -42 14 -76 22
-76 18z"/>
<path d="M905 2100 c-16 -7 -13 -9 17 -9 24 -1 40 -7 47 -18 14 -25 25 -9 11
16 -11 22 -40 26 -75 11z"/>
<path d="M2612 2100 c26 -5 52 -11 57 -15 6 -3 11 -2 11 3 0 13 -36 22 -80 21
-32 -1 -31 -2 12 -9z"/>
<path d="M2798 2094 c24 -9 46 -13 49 -10 10 10 1 13 -47 20 l-45 6 43 -16z"/>
<path d="M5 2080 c3 -5 21 -10 38 -9 31 1 31 1 7 9 -36 11 -52 11 -45 0z"/>
<path d="M140 2079 c0 -5 5 -9 11 -9 6 0 17 -7 25 -15 17 -17 119 -21 128 -6
4 5 -11 7 -33 4 -26 -4 -53 1 -85 15 -25 12 -46 17 -46 11z"/>
<path d="M775 2080 c-3 -5 3 -10 14 -10 11 0 23 5 26 10 3 6 -3 10 -14 10 -11
0 -23 -4 -26 -10z"/>
<path d="M1030 2068 c0 -7 5 -20 10 -28 8 -12 10 -11 10 7 0 12 -4 25 -10 28
-5 3 -10 0 -10 -7z"/>
<path d="M1490 2070 c-55 -7 -107 -27 -96 -37 3 -3 23 2 46 11 22 9 56 16 75
16 18 0 37 5 40 10 3 6 3 9 -2 9 -4 -1 -33 -5 -63 -9z"/>
<path d="M1635 2065 c59 -17 73 -19 60 -6 -6 5 -32 12 -60 15 l-50 6 50 -15z"/>
<path d="M2524 2073 c3 -4 40 -8 82 -9 41 -1 73 1 70 4 -4 3 -41 7 -82 8 -42
2 -74 0 -70 -3z"/>
<path d="M494 2058 c-5 -8 7 -9 46 -5 32 4 59 2 66 -4 7 -6 30 -9 51 -6 l38 4
-42 1 c-24 1 -43 7 -43 12 0 14 -107 13 -116 -2z"/>
<path d="M368 2053 c12 -2 30 -2 40 0 9 3 -1 5 -23 4 -22 0 -30 -2 -17 -4z"/>
<path d="M455 2051 c-3 -5 -30 -15 -60 -22 -55 -12 -77 -39 -32 -39 18 0 19 2
7 10 -26 17 16 12 58 -7 20 -9 57 -17 82 -19 25 -1 63 -7 85 -14 67 -20 198
-50 240 -55 35 -5 32 -3 -19 14 -32 11 -77 23 -100 26 -23 3 -50 10 -61 15
-39 18 -110 34 -140 32 -16 -1 -50 4 -75 12 -25 8 -38 15 -29 15 16 1 71 40
57 41 -4 0 -9 -4 -13 -9z"/>
<path d="M84 2020 c62 -21 93 -27 100 -20 7 7 4 10 -11 10 -11 0 -36 6 -54 14
-19 8 -54 16 -79 20 -35 4 -25 -1 44 -24z"/>
<path d="M778 2038 c6 -6 53 -10 114 -9 67 1 98 -2 88 -8 -8 -5 -18 -7 -22 -5
-4 3 -8 0 -8 -5 0 -6 14 -11 30 -11 17 0 30 3 30 8 -1 26 -22 32 -130 36 -79
4 -110 2 -102 -6z"/>
<path d="M1615 2027 c-8 -4 -78 -9 -155 -9 -76 -1 -137 -5 -134 -10 3 -4 -1
-5 -9 -2 -8 3 -20 -3 -28 -12 -15 -19 -14 -19 126 5 30 5 57 5 68 -1 12 -6 30
-5 52 2 19 6 50 8 69 4 25 -4 36 -3 36 6 0 6 12 11 28 10 75 -5 166 1 152 10
-18 11 -184 9 -205 -3z"/>
<path d="M2415 2030 c-3 -5 3 -10 14 -10 11 0 23 5 26 10 3 6 -3 10 -14 10
-11 0 -23 -4 -26 -10z"/>
<path d="M2520 2030 c20 -13 60 -13 60 0 0 6 -17 10 -37 10 -28 0 -34 -3 -23
-10z"/>
<path d="M2820 2030 c19 -13 30 -13 30 0 0 6 -10 10 -22 10 -19 0 -20 -2 -8
-10z"/>
<path d="M295 2015 c-23 -10 -25 -14 -10 -14 21 -1 52 15 45 23 -3 2 -18 -2
-35 -9z"/>
<path d="M573 2014 c33 -8 64 -11 70 -7 13 8 -50 22 -98 22 -20 -1 -11 -5 28
-15z"/>
<path d="M2684 2019 c-4 -7 -22 -9 -49 -4 -26 3 -46 2 -50 -5 -4 -6 6 -10 26
-10 18 0 41 -8 52 -17 16 -14 19 -15 15 -3 -3 9 6 21 26 32 27 15 28 17 9 18
-12 0 -25 -5 -29 -11z"/>
<path d="M2775 2010 c-3 -5 3 -10 15 -10 12 0 18 5 15 10 -3 6 -10 10 -15 10
-5 0 -12 -4 -15 -10z"/>
<path d="M2370 2000 c0 -5 9 -10 19 -10 11 0 23 -4 26 -10 3 -5 29 -10 57 -10
28 0 48 -3 45 -7 -4 -4 -35 -6 -70 -6 -57 1 -59 0 -27 -9 35 -10 104 -4 129
11 9 6 -11 13 -63 21 -42 7 -79 17 -82 21 -7 12 -34 11 -34 -1z"/>
<path d="M855 1990 c45 -11 87 -11 80 0 -3 6 -30 9 -58 9 -45 -1 -48 -2 -22
-9z"/>
<path d="M1050 1992 c0 -15 39 -100 71 -153 27 -46 27 -48 8 -54 -10 -4 -19
-10 -19 -15 0 -6 10 -6 24 -1 20 8 30 3 72 -40 62 -63 184 -146 237 -160 49
-13 210 -4 283 17 70 19 287 184 268 203 -2 2 -20 -11 -41 -28 -165 -140 -197
-158 -296 -171 -139 -18 -187 -14 -263 25 -135 67 -260 198 -305 318 -20 53
-39 82 -39 59z"/>
<path d="M2920 1990 c0 -5 14 -10 30 -10 17 0 30 5 30 10 0 6 -13 10 -30 10
-16 0 -30 -4 -30 -10z"/>
<path d="M16 1969 c-18 -17 -18 -19 -2 -19 9 0 19 7 23 15 8 23 0 25 -21 4z"/>
<path d="M80 1970 c-10 -7 2 -8 40 -4 30 4 57 8 59 10 10 9 -86 3 -99 -6z"/>
<path d="M350 1970 c0 -5 14 -10 31 -10 17 0 28 4 24 10 -3 6 -17 10 -31 10
-13 0 -24 -4 -24 -10z"/>
<path d="M720 1970 c20 -13 53 -13 45 0 -3 6 -18 10 -33 10 -21 0 -24 -2 -12
-10z"/>
<path d="M1650 1960 c-12 -8 -9 -10 12 -10 15 0 30 5 33 10 8 13 -25 13 -45 0z"/>
<path d="M195 1951 c-13 -5 20 -8 90 -9 61 -1 122 -4 138 -8 16 -3 27 -1 27 5
0 6 -19 11 -43 11 -24 0 -77 2 -118 5 -41 3 -83 1 -94 -4z"/>
<path d="M780 1956 c0 -10 109 -34 175 -39 39 -3 64 -4 57 -1 -6 3 -10 10 -7
14 3 5 1 11 -5 15 -5 3 -10 1 -10 -4 0 -16 -59 -13 -116 4 -47 14 -94 20 -94
11z"/>
<path d="M2350 1939 c0 -11 43 -19 58 -10 11 6 4 10 -22 13 -20 2 -36 1 -36
-3z"/>
<path d="M2635 1940 c3 -5 30 -10 58 -9 41 1 47 3 27 9 -37 12 -92 12 -85 0z"/>
<path d="M605 1926 c74 -18 82 -19 68 -5 -5 5 -37 12 -69 15 l-59 4 60 -14z"/>
<path d="M120 1921 c-17 -5 -21 -9 -13 -14 12 -7 53 7 53 18 0 6 -7 5 -40 -4z"/>
<path d="M315 1910 l-50 -7 58 -1 c32 -1 57 2 57 8 0 6 -3 9 -7 8 -5 0 -30 -4
-58 -8z"/>
<path d="M500 1910 c0 -5 14 -10 30 -10 17 0 30 5 30 10 0 6 -13 10 -30 10
-16 0 -30 -4 -30 -10z"/>
<path d="M2210 1909 c55 -16 142 -30 159 -26 9 3 0 5 -19 6 -27 1 -31 4 -20
11 11 7 3 10 -30 10 -25 0 -63 2 -85 5 l-40 5 35 -11z"/>
<path d="M2420 1910 c-24 -8 -23 -8 8 -9 20 -1 31 3 27 9 -3 6 -7 10 -8 9 -1
-1 -13 -5 -27 -9z"/>
<path d="M2885 1912 c13 -13 106 -44 112 -38 7 7 -48 33 -87 41 -23 5 -32 4
-25 -3z"/>
<path d="M2046 1862 c-36 -50 -45 -69 -26 -57 15 9 73 96 67 101 -2 3 -21 -17
-41 -44z"/>
<path d="M2488 1903 c12 -2 30 -2 40 0 9 3 -1 5 -23 4 -22 0 -30 -2 -17 -4z"/>
<path d="M2655 1900 l-30 -8 33 -1 c17 0 32 4 32 9 0 6 -1 9 -2 9 -2 -1 -16
-5 -33 -9z"/>
<path d="M2720 1900 c20 -13 43 -13 35 0 -3 6 -16 10 -28 10 -18 0 -19 -2 -7
-10z"/>
<path d="M0 1888 c0 -10 35 -8 75 2 24 7 20 8 -22 7 -29 -1 -53 -5 -53 -9z"/>
<path d="M1553 1892 c-13 -2 -23 -7 -23 -12 0 -13 29 -20 36 -9 3 6 12 8 20 5
8 -3 14 -1 14 3 0 12 -20 18 -47 13z"/>
<path d="M2145 1892 c6 -5 32 -12 58 -15 63 -6 47 9 -18 18 -33 5 -47 4 -40
-3z"/>
<path d="M145 1880 c-7 -12 12 -12 40 0 18 8 17 9 -7 9 -15 1 -30 -3 -33 -9z"/>
<path d="M188 1863 c-42 -21 -47 -21 -93 -8 -51 16 -64 15 -42 -3 18 -15 97
-32 97 -21 0 5 8 9 18 9 10 0 27 7 38 15 10 8 39 15 64 15 25 1 54 5 65 10 13
5 -1 7 -41 6 -41 -1 -77 -8 -106 -23z"/>
<path d="M612 1879 c18 -7 33 -7 45 0 14 8 9 10 -27 10 -42 -1 -43 -1 -18 -10z"/>
<path d="M990 1879 c-22 -6 -20 -7 13 -8 38 -1 47 3 25 11 -7 3 -24 1 -38 -3z"/>
<path d="M2820 1880 c19 -13 30 -13 30 0 0 6 -10 10 -22 10 -19 0 -20 -2 -8
-10z"/>
<path d="M814 1871 c9 -14 124 -33 142 -23 13 7 1 12 -48 21 -78 13 -101 14
-94 2z"/>
<path d="M2390 1870 c-12 -8 -10 -10 9 -10 13 0 49 -6 80 -14 77 -20 148 -30
139 -21 -4 5 -27 12 -50 16 -40 7 -114 24 -148 34 -8 3 -22 0 -30 -5z"/>
<path d="M400 1860 c20 -13 43 -13 35 0 -3 6 -16 10 -28 10 -18 0 -19 -2 -7
-10z"/>
<path d="M664 1859 c-5 -9 -2 -11 9 -6 9 3 17 2 19 -2 2 -5 32 -11 66 -15 75
-8 78 8 5 19 -27 3 -58 9 -69 12 -12 2 -25 -1 -30 -8z"/>
<path d="M2243 1860 c-35 -14 -27 -19 15 -10 20 5 51 10 67 13 21 3 17 4 -15
5 -25 0 -55 -3 -67 -8z"/>
<path d="M503 1849 c11 -7 23 -7 35 0 14 9 11 10 -18 10 -29 0 -32 -1 -17 -10z"/>
<path d="M223 1840 c-32 -13 -28 -20 10 -19 17 1 57 -1 87 -4 l55 -6 -57 11
c-32 5 -58 14 -58 19 0 11 -8 11 -37 -1z"/>
<path d="M2343 1843 c9 -2 25 -2 35 0 9 3 1 5 -18 5 -19 0 -27 -2 -17 -5z"/>
<path d="M2770 1842 c0 -10 33 -22 60 -22 13 1 13 2 0 9 -27 16 -60 22 -60 13z"/>
<path d="M2926 1841 c13 -12 74 -22 74 -12 0 10 -34 21 -64 21 -12 0 -16 -3
-10 -9z"/>
<path d="M414 1825 c11 -8 31 -15 45 -14 24 0 23 2 -9 14 -46 18 -59 18 -36 0z"/>
<path d="M480 1830 c14 -4 34 -8 45 -8 20 -1 20 -1 0 8 -11 5 -31 8 -45 8
l-25 0 25 -8z"/>
<path d="M2230 1833 c-14 -3 -29 -9 -35 -15 -7 -6 4 -7 30 -1 22 4 58 7 80 6
30 -1 35 1 20 7 -21 9 -54 10 -95 3z"/>
<path d="M610 1820 c-21 -7 -19 -8 18 -9 23 -1 42 4 42 9 0 12 -24 12 -60 0z"/>
<path d="M933 1816 c-9 -5 -46 -8 -82 -7 -94 3 -72 -7 29 -13 53 -3 79 -1 70
4 -10 7 7 10 53 10 37 0 67 3 67 8 0 10 -117 9 -137 -2z"/>
<path d="M2405 1820 c3 -5 19 -10 36 -10 16 0 29 5 29 10 0 6 -16 10 -36 10
-21 0 -33 -4 -29 -10z"/>
<path d="M2505 1810 c-3 -6 0 -10 8 -10 8 0 30 -3 48 -6 23 -5 31 -3 24 3 -15
15 -73 24 -80 13z"/>
<path d="M534 1801 c3 -5 21 -14 38 -20 l33 -11 -24 20 c-23 20 -57 28 -47 11z"/>
<path d="M715 1799 l-40 -6 50 -2 c46 -1 48 -3 31 -16 -11 -8 -31 -12 -45 -10
-26 5 -26 5 -3 -6 26 -14 72 2 72 25 0 19 -17 23 -65 15z"/>
<path d="M2631 1806 c11 -9 69 -15 64 -6 -3 6 -20 10 -37 10 -17 0 -29 -2 -27
-4z"/>
<path d="M2950 1799 c0 -5 11 -9 25 -9 14 0 25 2 25 4 0 2 -11 6 -25 8 -14 3
-25 1 -25 -3z"/>
<path d="M21 1779 c-36 -30 -18 -33 24 -4 27 18 32 25 19 25 -10 -1 -30 -10
-43 -21z"/>
<path d="M163 1788 c-13 -6 -23 -14 -23 -17 0 -11 150 -5 161 6 7 7 -7 9 -43
6 -38 -2 -47 -1 -33 6 17 8 16 10 -10 10 -16 0 -40 -5 -52 -11z"/>
<path d="M2393 1792 c-6 -4 21 -8 60 -10 39 -2 69 -1 67 1 -10 9 -116 16 -127
9z"/>
<path d="M2610 1791 c0 -8 93 -39 135 -44 17 -2 54 -14 83 -25 28 -12 52 -18
52 -14 0 12 -111 53 -155 57 -11 1 -41 9 -67 18 -27 8 -48 12 -48 8z"/>
<path d="M2736 1791 c-7 -10 43 -21 88 -20 25 1 20 3 -24 14 -30 8 -56 14 -57
15 -1 0 -4 -4 -7 -9z"/>
<path d="M72 1772 c-33 -18 -34 -32 0 -32 10 0 18 7 18 15 0 8 7 15 15 15 8 0
15 5 15 10 0 14 -10 12 -48 -8z"/>
<path d="M395 1780 c36 -10 159 -29 163 -24 13 10 -54 27 -117 30 -55 2 -68 0
-46 -6z"/>
<path d="M815 1780 c3 -5 21 -10 38 -9 27 0 29 2 12 9 -28 12 -57 12 -50 0z"/>
<path d="M1030 1780 l-45 -7 52 -1 c28 -1 55 3 58 8 7 11 4 11 -65 0z"/>
<path d="M2283 1763 c9 -2 25 -2 35 0 9 3 1 5 -18 5 -19 0 -27 -2 -17 -5z"/>
<path d="M2870 1760 c-11 -7 -2 -10 33 -10 30 0 46 4 42 10 -8 13 -55 13 -75
0z"/>
<path d="M225 1745 c-44 -7 -78 -13 -75 -15 33 -13 201 7 178 21 -7 5 -15 8
-18 7 -3 0 -41 -6 -85 -13z"/>
<path d="M390 1750 c0 -13 11 -13 30 0 12 8 11 10 -7 10 -13 0 -23 -4 -23 -10z"/>
<path d="M630 1744 c25 -7 56 -20 70 -28 41 -23 131 -46 174 -45 l41 2 -40 7
-40 7 40 3 c31 3 25 5 -28 9 -37 3 -67 10 -67 16 1 11 -122 44 -165 43 -27 0
-25 -2 15 -14z"/>
<path d="M907 1754 c-3 -3 -30 -10 -59 -14 -42 -6 -34 -7 42 -5 112 4 110 4
85 15 -24 10 -59 12 -68 4z"/>
<path d="M2205 1750 c17 -4 41 -8 55 -8 23 -1 23 0 5 8 -11 5 -36 8 -55 8
l-35 0 30 -8z"/>
<path d="M2340 1750 c0 -9 59 -25 66 -18 2 3 -12 9 -31 15 -19 6 -35 7 -35 3z"/>
<path d="M1045 1740 c-4 -6 8 -10 30 -10 22 0 34 4 30 10 -3 6 -17 10 -30 10
-13 0 -27 -4 -30 -10z"/>
<path d="M2466 1742 c-9 -15 73 -26 104 -13 l25 10 -25 0 c-14 1 -41 4 -61 7
-21 4 -39 2 -43 -4z"/>
<path d="M2635 1740 c-4 -6 6 -10 22 -10 16 0 45 -9 66 -20 38 -21 72 -27 63
-11 -5 8 -124 51 -140 51 -3 0 -8 -4 -11 -10z"/>
<path d="M2880 1730 c20 -13 53 -13 45 0 -3 6 -18 10 -33 10 -21 0 -24 -2 -12
-10z"/>
<path d="M626 1715 c17 -8 44 -16 60 -20 25 -4 23 -2 -11 15 -22 11 -49 19
-60 19 -15 0 -12 -4 11 -14z"/>
<path d="M1145 1714 l-30 -14 30 6 c17 3 34 10 40 15 14 13 -5 11 -40 -7z"/>
<path d="M408 1712 c23 -2 40 -7 37 -13 -4 -5 31 -9 86 -9 70 0 90 3 82 11 -7
7 -57 12 -130 13 -65 1 -99 0 -75 -2z"/>
<path d="M970 1710 l-55 -7 57 -1 c31 -1 60 3 63 8 3 6 3 9 -2 8 -4 -1 -33 -4
-63 -8z"/>
<path d="M2305 1711 c-48 -4 -71 -9 -58 -12 30 -9 146 0 157 11 7 7 5 9 -4 8
-8 -1 -51 -4 -95 -7z"/>
<path d="M2555 1710 c-7 -11 77 -18 121 -10 45 9 42 10 -48 15 -37 2 -70 0
-73 -5z"/>
<path d="M1175 1700 c-4 -6 5 -10 21 -10 l27 0 -26 -20 c-15 -12 -39 -23 -54
-25 -15 -2 -48 -11 -72 -19 -24 -9 -58 -16 -75 -17 -25 0 -27 -2 -11 -8 22 -9
133 13 178 34 49 24 60 7 21 -31 -37 -38 -101 -157 -129 -243 -21 -65 -17
-169 9 -219 25 -48 87 -104 154 -140 90 -48 227 -62 318 -32 24 8 22 9 -16 5
-124 -15 -223 -1 -300 42 -137 77 -192 192 -155 320 24 81 91 215 132 259 18
20 31 39 28 42 -2 3 3 10 11 17 15 10 13 14 -11 33 -31 24 -41 27 -50 12z"/>
<path d="M2400 1694 l-35 -14 45 6 c25 3 49 10 55 15 14 14 -25 10 -65 -7z"/>
<path d="M216 1686 c-30 -9 -35 -14 -23 -19 10 -4 29 -2 43 3 14 6 52 10 84
10 32 0 61 4 64 9 8 13 -124 11 -168 -3z"/>
<path d="M2202 1688 c6 -17 65 -29 106 -22 20 3 32 1 28 -4 -9 -15 100 -25
121 -12 15 10 14 10 -9 6 -15 -4 -47 1 -70 9 -24 8 -71 15 -106 15 -40 0 -61
4 -57 10 3 6 1 10 -5 10 -7 0 -10 -6 -8 -12z"/>
<path d="M2900 1690 c0 -5 9 -10 21 -10 11 0 17 5 14 10 -3 6 -13 10 -21 10
-8 0 -14 -4 -14 -10z"/>
<path d="M16 1681 c10 -11 124 -19 124 -10 0 9 -54 19 -98 19 -22 0 -32 -4
-26 -9z"/>
<path d="M2460 1680 c-18 -12 69 -12 115 0 23 6 16 8 -35 9 -36 0 -72 -4 -80
-9z"/>
<path d="M2810 1680 c-12 -8 -9 -10 12 -10 15 0 30 5 33 10 8 13 -25 13 -45 0z"/>
<path d="M455 1671 c-17 -4 -31 -13 -33 -24 -5 -26 44 -23 58 4 14 25 13 27
-25 20z"/>
<path d="M1000 1670 c0 -5 20 -10 44 -10 25 0 48 5 51 10 4 6 -13 10 -44 10
-28 0 -51 -4 -51 -10z"/>
<path d="M1130 1670 c-13 -9 -13 -10 0 -10 8 0 22 5 30 10 13 9 13 10 0 10 -8
0 -22 -5 -30 -10z"/>
<path d="M275 1653 c-44 -6 -99 -12 -122 -12 -24 -1 -43 -5 -43 -9 0 -11 138
-4 183 10 27 8 47 8 72 1 27 -9 35 -8 35 2 0 19 -36 22 -125 8z"/>
<path d="M2740 1660 c14 -4 39 -8 55 -8 29 0 29 0 5 8 -14 4 -38 8 -55 8 -29
0 -29 0 -5 -8z"/>
<path d="M2888 1663 c17 -2 47 -2 65 0 17 2 3 4 -33 4 -36 0 -50 -2 -32 -4z"/>
<path d="M3 1646 c2 -6 26 -12 53 -14 59 -4 54 5 -10 17 -34 6 -46 5 -43 -3z"/>
<path d="M524 1649 c-3 -5 1 -9 8 -9 10 0 10 -2 1 -8 -8 -5 1 -8 22 -8 25 0
32 3 24 12 -13 16 -48 24 -55 13z"/>
<path d="M725 1640 c50 -18 105 -26 91 -13 -13 13 -81 33 -111 32 -27 0 -24
-3 20 -19z"/>
<path d="M2505 1645 c-40 -14 -40 -14 -5 -9 19 3 55 6 80 5 32 0 41 2 30 9
-20 13 -57 11 -105 -5z"/>
<path d="M2645 1653 c11 -3 25 -9 32 -15 7 -5 13 -5 17 0 6 10 -27 23 -54 21
-8 -1 -6 -3 5 -6z"/>
<path d="M678 1628 c24 -11 46 -17 49 -14 6 6 -64 36 -81 35 -6 0 9 -10 32
-21z"/>
<path d="M2200 1645 c0 -16 92 -48 150 -51 36 -2 57 -1 47 2 -9 3 -15 9 -12
14 3 4 -10 5 -28 1 -17 -4 -49 -2 -71 4 -37 11 -38 11 -15 22 22 11 19 12 -23
12 -27 1 -48 -1 -48 -4z"/>
<path d="M873 1632 c-24 -4 -32 -22 -10 -22 15 0 43 18 37 22 -3 2 -15 2 -27
0z"/>
<path d="M920 1630 c0 -5 14 -10 30 -10 17 0 30 5 30 10 0 6 -13 10 -30 10
-16 0 -30 -4 -30 -10z"/>
<path d="M2555 1624 l-70 -13 78 4 c50 3 97 0 134 -10 32 -8 69 -15 83 -14 14
0 -3 8 -40 18 -105 29 -112 29 -185 15z"/>
<path d="M2826 1630 c6 -6 31 -7 69 -1 l60 9 -69 1 c-46 1 -67 -2 -60 -9z"/>
<path d="M300 1618 c0 -9 -2 -9 100 -13 91 -4 82 2 -22 13 -43 4 -78 5 -78 0z"/>
<path d="M1218 1554 c-50 -110 -61 -150 -62 -221 0 -91 37 -146 128 -193 68
-35 71 -35 195 -35 110 0 143 5 256 33 231 59 364 132 507 279 42 43 82 77 90
75 7 -2 -3 11 -22 28 l-35 32 30 -7 c32 -7 105 -52 105 -66 0 -4 23 -22 51
-39 41 -25 65 -32 113 -34 53 -3 56 -2 26 6 -94 24 -140 40 -145 48 -9 15 59
22 106 12 43 -10 43 -10 9 -11 -26 -1 -31 -4 -22 -13 9 -9 18 -9 37 0 36 17
114 15 149 -3 15 -8 42 -15 58 -15 17 0 27 -4 23 -10 -3 -5 3 -10 14 -10 11 0
39 -7 61 -16 31 -13 46 -14 63 -6 l22 11 -23 0 c-23 1 -118 28 -201 58 -24 9
-65 15 -92 14 -27 0 -68 7 -90 16 -36 14 -48 14 -91 4 -27 -7 -52 -10 -55 -7
-4 3 0 6 7 6 9 0 7 5 -6 15 -19 14 -19 14 1 16 11 1 2 5 -20 9 -39 6 -39 7
-15 17 21 9 13 11 -47 12 -73 0 -89 -9 -62 -36 19 -19 0 -49 -73 -118 -142
-135 -269 -199 -502 -254 -326 -78 -526 -8 -526 183 0 56 15 85 23 44 2 -13 5
3 6 34 0 36 11 82 27 122 39 97 25 113 -18 20z"/>
<path d="M543 1598 c-34 -4 -70 -11 -80 -17 -13 -8 -4 -9 37 -5 55 6 253 7
300 2 14 -2 25 2 25 7 0 6 -15 8 -34 7 -18 -2 -31 0 -28 5 6 10 -133 11 -220
1z"/>
<path d="M2845 1594 c18 -15 12 -15 -80 -10 -55 3 -119 8 -142 12 -24 3 -49 1
-60 -5 -15 -9 -8 -11 37 -11 30 0 90 -3 133 -6 72 -6 174 2 164 12 -2 3 -20 9
-38 14 -32 9 -33 8 -14 -6z"/>
<path d="M100 1590 c0 -5 12 -10 26 -10 14 0 23 4 19 10 -3 6 -15 10 -26 10
-10 0 -19 -4 -19 -10z"/>
<path d="M870 1591 c24 -7 23 -8 -15 -19 -22 -7 -48 -12 -57 -12 -9 0 -20 -5
-23 -11 -8 -12 27 -7 130 20 74 19 68 32 -13 30 -37 -1 -42 -3 -22 -8z"/>
<path d="M393 1583 c9 -2 25 -2 35 0 9 3 1 5 -18 5 -19 0 -27 -2 -17 -5z"/>
<path d="M25 1571 c19 -8 19 -8 -3 -15 -13 -4 -21 -10 -19 -13 3 -3 15 -2 26
2 28 9 27 35 -1 34 -22 0 -22 -1 -3 -8z"/>
<path d="M604 1572 c4 -7 15 -12 24 -12 9 0 23 -4 31 -9 9 -6 -9 -13 -56 -21
-48 -9 -74 -19 -82 -31 -9 -15 -8 -19 1 -19 13 0 109 35 141 52 10 5 27 6 38
3 10 -4 19 -2 19 4 0 5 -8 12 -17 14 -10 2 -4 2 14 0 17 -2 34 1 38 7 4 6 -15
10 -52 10 -32 0 -69 3 -82 7 -17 4 -22 3 -17 -5z"/>
<path d="M1000 1570 c-13 -9 -13 -10 0 -10 8 0 22 5 30 10 13 9 13 10 0 10 -8
0 -22 -5 -30 -10z"/>
<path d="M2413 1573 c9 -2 25 -2 35 0 9 3 1 5 -18 5 -19 0 -27 -2 -17 -5z"/>
<path d="M187 1563 c-6 -9 82 -7 91 1 3 3 -15 6 -41 6 -25 0 -48 -3 -50 -7z"/>
<path d="M340 1560 c35 -11 141 -11 115 0 -11 5 -47 8 -80 8 -44 0 -54 -2 -35
-8z"/>
<path d="M2450 1554 c-32 -18 -16 -18 35 1 31 11 34 14 15 14 -14 -1 -36 -7
-50 -15z"/>
<path d="M2615 1560 c28 -4 61 -10 73 -14 12 -4 22 -3 22 2 0 11 -60 22 -110
21 -29 -1 -26 -3 15 -9z"/>
<path d="M2865 1561 l-40 -6 55 -12 c30 -6 63 -15 73 -18 9 -4 17 -3 17 3 0 5
-17 13 -37 18 -22 4 -31 9 -21 11 9 2 33 0 52 -6 20 -5 36 -6 36 -1 0 18 -57
23 -135 11z"/>
<path d="M2540 1550 c0 -5 14 -10 32 -10 36 0 35 4 -4 14 -17 4 -28 2 -28 -4z"/>
<path d="M175 1540 c-104 -7 -69 -13 88 -15 59 0 107 3 107 7 0 5 -8 8 -17 8
-10 0 -34 2 -53 4 -19 2 -75 0 -125 -4z"/>
<path d="M920 1540 c-13 -9 -13 -10 0 -10 8 0 22 5 30 10 13 9 13 10 0 10 -8
0 -22 -5 -30 -10z"/>
<path d="M2720 1540 c0 -5 14 -10 32 -10 36 0 35 4 -4 14 -17 4 -28 2 -28 -4z"/>
<path d="M2840 1530 c8 -5 22 -10 30 -10 13 0 13 1 0 10 -8 5 -22 10 -30 10
-13 0 -13 -1 0 -10z"/>
<path d="M423 1510 c18 -14 34 -19 51 -14 36 9 33 27 -3 19 -17 -3 -32 -2 -36
4 -3 6 -13 11 -22 11 -11 0 -8 -6 10 -20z"/>
<path d="M2465 1515 c-20 -17 -20 -17 0 -9 32 13 83 10 214 -14 142 -25 144
-25 136 -12 -3 6 -22 10 -41 10 -20 0 -43 4 -53 9 -9 5 -44 12 -76 15 -33 3
-82 8 -110 11 -39 5 -55 3 -70 -10z"/>
<path d="M2753 1513 c15 -2 39 -2 55 0 15 2 2 4 -28 4 -30 0 -43 -2 -27 -4z"/>
<path d="M2965 1510 c-3 -5 3 -10 14 -10 12 0 21 5 21 10 0 6 -6 10 -14 10 -8
0 -18 -4 -21 -10z"/>
<path d="M900 1495 c-17 -10 -20 -14 -9 -15 9 0 22 7 29 15 15 18 12 18 -20 0z"/>
<path d="M2840 1500 c0 -5 15 -10 33 -10 31 -1 116 -39 88 -40 -8 0 -12 -2 -9
-5 3 -3 15 -2 27 3 30 11 14 23 -56 45 -59 19 -83 21 -83 7z"/>
<path d="M178 1490 c-136 -8 -115 -19 33 -18 154 1 184 -4 169 -32 -21 -40
100 -31 125 10 9 14 -5 12 -35 -5 -32 -18 -90 -21 -72 -3 18 18 15 25 -20 39
-38 14 -79 16 -200 9z"/>
<path d="M436 1464 c-8 -21 -8 -24 3 -24 5 0 11 9 14 20 6 24 -8 27 -17 4z"/>
<path d="M1010 1465 c-7 -9 -11 -18 -8 -20 3 -3 11 1 18 10 7 9 11 18 8 20 -3
3 -11 -1 -18 -10z"/>
<path d="M1044 1451 c-26 -32 -49 -75 -37 -68 14 9 67 87 62 91 -2 2 -13 -8
-25 -23z"/>
<path d="M20 1460 l-25 -8 25 -1 c14 0 32 4 40 9 13 9 13 10 0 9 -8 -1 -26 -5
-40 -9z"/>
<path d="M2801 1456 c2 -2 29 -6 59 -9 36 -4 48 -3 35 3 -19 8 -103 14 -94 6z"/>
<path d="M68 1443 c-25 -6 -22 -19 4 -26 13 -4 31 1 46 14 l25 19 -29 -1 c-16
-1 -37 -3 -46 -6z"/>
<path d="M174 1439 c-35 -10 -67 -39 -43 -39 8 1 25 7 39 15 29 17 64 20 55 5
-8 -12 8 -13 21 -1 5 5 25 12 44 15 35 7 35 7 10 -8 -14 -9 -21 -15 -17 -16
12 0 77 28 77 34 0 9 -152 5 -186 -5z"/>
<path d="M2650 1423 c0 -14 73 -38 78 -25 4 13 43 -2 81 -30 13 -10 31 -18 40
-17 9 0 3 7 -14 14 l-30 14 45 -3 c25 -2 36 -2 25 1 -11 2 -42 11 -70 20 -27
9 -63 17 -80 18 -16 1 -40 5 -52 9 -13 4 -23 3 -23 -1z"/>
<path d="M2406 1405 c-3 -8 -2 -15 3 -15 5 0 14 7 21 15 10 12 10 15 -3 15 -8
0 -17 -7 -21 -15z"/>
<path d="M17 1403 c-11 -3 -16 -10 -13 -20 3 -8 6 -17 6 -19 0 -12 51 -1 71
15 23 19 23 20 3 15 -12 -3 -25 -1 -28 5 -7 11 -9 12 -39 4z m43 -23 c0 -4
-12 -5 -26 -2 -17 3 -22 7 -13 12 13 9 39 2 39 -10z"/>
<path d="M2529 1386 c7 -8 42 -29 79 -47 37 -18 78 -41 91 -51 13 -10 33 -18
45 -17 17 0 14 4 -11 15 -18 8 -33 16 -33 17 0 2 21 -1 48 -6 50 -10 114 5 96
23 -9 9 -177 40 -217 40 -12 0 -40 9 -62 20 -47 24 -51 25 -36 6z m226 -57
c33 -6 62 -13 65 -16 12 -13 -128 5 -160 20 l-35 17 35 -6 c19 -3 62 -10 95
-15z"/>
<path d="M177 1378 c15 -7 30 -7 50 0 26 10 24 10 -22 11 -42 0 -46 -2 -28
-11z"/>
<path d="M373 1383 c-46 -4 -60 -23 -17 -23 17 0 23 -4 18 -12 -4 -7 7 -2 24
11 31 22 40 33 25 29 -5 -1 -27 -3 -50 -5z"/>
<path d="M1250 1383 c0 -5 10 -24 22 -43 12 -19 27 -60 34 -90 12 -52 12 -53
13 -17 1 23 -10 60 -29 97 -28 55 -40 71 -40 53z"/>
<path d="M2480 1365 c13 -14 26 -23 28 -20 7 7 -29 45 -41 45 -6 0 0 -11 13
-25z"/>
<path d="M2528 1361 c18 -17 37 -31 44 -31 6 0 9 1 7 3 -2 2 -22 15 -44 31
l-40 28 33 -31z"/>
<path d="M1324 1350 c4 -19 9 -61 13 -93 6 -56 23 -90 23 -46 0 39 -23 154
-33 164 -6 6 -7 -2 -3 -25z"/>
<path d="M2330 1323 c-30 -31 -46 -51 -35 -45 25 13 100 90 94 96 -3 3 -29
-20 -59 -51z"/>
<path d="M110 1363 c0 -5 13 -8 30 -9 16 -1 27 3 24 7 -6 11 -54 12 -54 2z"/>
<path d="M2708 1363 c12 -2 32 -2 45 0 12 2 2 4 -23 4 -25 0 -35 -2 -22 -4z"/>
<path d="M215 1352 c6 -6 37 -13 70 -17 46 -5 56 -3 43 5 -24 15 -126 26 -113
12z"/>
<path d="M1001 1320 c-11 -22 -17 -40 -12 -40 10 0 45 69 38 76 -2 3 -14 -13
-26 -36z"/>
<path d="M2918 1353 c-31 -8 -20 -25 11 -18 17 3 39 1 50 -5 13 -7 21 -7 21
-1 0 22 -43 35 -82 24z"/>
<path d="M23 1333 c-49 -9 -19 -18 52 -15 57 3 91 -2 136 -17 33 -11 59 -15
57 -10 -11 32 -163 58 -245 42z"/>
<path d="M2530 1324 c0 -8 131 -66 137 -60 3 2 -10 12 -27 21 -41 21 -110 46
-110 39z"/>
<path d="M316 1278 c-27 -23 -51 -37 -54 -31 -11 16 -55 23 -69 12 -16 -14
-36 -1 -29 17 3 8 1 14 -3 14 -14 0 -19 -23 -10 -42 7 -12 24 -16 73 -17 61 0
65 1 105 41 56 54 46 59 -13 6z"/>
<path d="M423 1308 c-12 -14 -46 -158 -40 -164 6 -6 34 73 46 126 11 49 9 57
-6 38z"/>
<path d="M856 1299 c-17 -16 -17 -19 -3 -19 9 0 21 9 27 20 13 25 1 25 -24 -1z"/>
<path d="M16 1289 c-11 -13 -16 -34 -14 -60 2 -44 4 -46 31 -21 10 9 35 22 56
28 l36 12 -31 1 c-18 1 -43 -8 -58 -20 -25 -19 -26 -20 -26 -2 0 11 11 24 28
31 l27 12 -27 -5 c-35 -7 -36 0 -2 18 20 10 23 15 12 20 -8 3 -23 -4 -32 -14z"/>
<path d="M98 1278 c-15 -15 -16 -18 -3 -18 9 0 18 7 22 15 8 23 0 24 -19 3z"/>
<path d="M680 1285 c7 -8 17 -15 22 -15 6 0 5 7 -2 15 -7 8 -17 15 -22 15 -6
0 -5 -7 2 -15z"/>
<path d="M2844 1288 c-3 -4 -14 -8 -25 -8 -10 0 -19 -5 -19 -11 0 -7 9 -9 23
-5 12 4 43 11 70 17 26 6 47 12 47 13 0 7 -92 2 -96 -6z"/>
<path d="M331 1240 c-57 -71 -147 -202 -154 -223 -12 -34 10 -8 72 83 34 49
64 90 67 90 2 0 -5 -18 -16 -40 -29 -57 -60 -159 -59 -195 l1 -30 10 35 c30
113 43 148 83 235 24 52 42 95 40 95 -3 0 -22 -23 -44 -50z"/>
<path d="M460 1260 c-6 -12 -9 -24 -7 -27 3 -2 11 5 17 17 6 12 9 24 7 27 -3
2 -11 -5 -17 -17z"/>
<path d="M2910 1260 c8 -5 33 -9 55 -9 39 1 39 2 10 9 -16 4 -41 8 -55 9 -20
0 -22 -1 -10 -9z"/>
<path d="M517 1250 c-3 -8 -16 -51 -28 -95 -12 -44 -46 -147 -76 -228 -86
-234 -186 -598 -169 -615 3 -3 9 9 12 26 4 18 13 32 21 32 10 0 11 -4 3 -19
-5 -11 -10 -28 -10 -38 1 -13 5 -11 16 10 9 16 13 36 10 44 -4 9 0 25 8 37 17
27 117 318 111 325 -3 2 -10 -10 -16 -27 -6 -18 -15 -32 -21 -32 -5 0 -7 -8
-4 -18 8 -25 -15 -54 -33 -43 -12 8 -10 24 13 103 15 51 38 116 51 143 36 79
95 238 95 258 0 10 7 40 16 67 15 45 16 107 1 70z m-167 -669 c0 -24 -43 -147
-55 -156 -7 -6 -15 -19 -18 -30 -4 -11 -5 1 -3 26 2 28 12 58 26 77 13 17 23
45 23 62 0 18 5 30 14 30 7 0 13 -4 13 -9z"/>
<path d="M1009 1233 c-16 -42 -49 -142 -49 -148 0 -17 19 0 25 23 4 15 9 22
12 15 2 -6 0 -28 -6 -47 -5 -20 -6 -36 -1 -36 11 0 24 76 15 90 -4 6 -2 16 3
23 10 13 25 107 17 107 -3 0 -10 -12 -16 -27z"/>
<path d="M2767 1243 c11 -10 37 -30 56 -45 21 -16 38 -40 42 -57 6 -29 41 -62
108 -104 26 -17 27 -17 27 2 0 13 -9 22 -27 26 -16 3 -40 16 -56 29 l-27 22
37 -3 c36 -2 30 1 -24 13 -13 2 -23 9 -23 15 0 7 10 9 23 6 67 -17 100 -19 93
-8 -4 6 -19 11 -34 12 -37 1 -97 24 -95 36 1 6 -21 23 -50 39 -64 36 -78 41
-50 17z"/>
<path d="M629 1223 c-7 -18 -7 -34 0 -48 8 -17 10 -13 10 22 1 23 6 44 14 46
9 4 9 6 -1 6 -7 1 -17 -11 -23 -26z"/>
<path d="M962 1233 c-5 -10 -12 -31 -16 -46 -10 -43 11 -24 23 20 12 41 8 55
-7 26z"/>
<path d="M2845 1240 c-4 -6 8 -10 29 -10 20 0 36 5 36 10 0 6 -13 10 -29 10
-17 0 -33 -4 -36 -10z"/>
<path d="M2687 1224 c-3 -3 -23 -12 -44 -19 -31 -12 -33 -14 -13 -14 27 0 105
38 79 39 -9 0 -18 -3 -22 -6z"/>
<path d="M2954 1221 c3 -5 16 -11 28 -14 22 -6 22 -5 4 8 -22 17 -40 20 -32 6z"/>
<path d="M322 1121 c-54 -128 -71 -232 -52 -329 16 -87 4 -193 -39 -326 -10
-33 -31 -128 -46 -211 -15 -82 -29 -152 -31 -154 -3 -3 -18 5 -34 17 -31 23
-120 32 -120 12 0 -5 18 -10 41 -10 22 0 54 -8 71 -17 26 -16 29 -22 26 -60
-2 -26 1 -43 8 -43 6 0 25 80 44 182 18 101 49 241 68 313 26 99 36 161 42
260 5 77 18 175 33 240 22 94 41 225 33 225 -1 0 -21 -45 -44 -99z m7 -87
c-42 -192 -48 -216 -53 -222 -10 -9 -7 34 10 130 15 88 51 204 60 195 3 -3 -5
-49 -17 -103z"/>
<path d="M2310 1211 c0 -10 50 -25 58 -17 2 3 -7 10 -22 16 -33 12 -36 12 -36
1z"/>
<path d="M2880 1216 c0 -15 36 -36 63 -36 26 0 29 -2 17 -11 -12 -9 -12 -10 3
-5 10 3 21 6 23 6 3 0 2 5 -1 10 -3 6 -17 10 -30 10 -13 0 -31 3 -40 6 -13 5
-14 8 -3 15 9 6 7 9 -9 9 -13 0 -23 -2 -23 -4z"/>
<path d="M2712 1201 c-10 -6 -4 -10 20 -15 l33 -6 -45 -39 c-25 -22 -42 -42
-38 -46 7 -7 108 74 108 86 0 6 -46 29 -58 29 -4 0 -13 -4 -20 -9z"/>
<path d="M115 1190 c-3 -5 -1 -10 5 -10 6 0 9 -4 5 -9 -3 -5 -22 -7 -42 -4
-24 4 -34 3 -30 -4 13 -21 71 -21 96 -2 13 11 30 19 38 19 8 0 11 5 8 10 -3 6
-21 10 -40 10 -19 0 -37 -4 -40 -10z"/>
<path d="M409 1154 c-55 -126 -82 -242 -93 -389 l-6 -80 16 54 c8 29 32 99 53
155 47 123 73 208 61 201 -5 -3 -12 -20 -15 -38 -9 -40 -86 -229 -92 -223 -7
7 47 204 78 281 34 85 32 117 -2 39z"/>
<path d="M224 1173 c0 -12 -7 -19 -21 -21 -13 -2 -23 -8 -23 -13 0 -16 36 -10
52 9 28 32 30 42 10 42 -13 0 -19 -6 -18 -17z"/>
<path d="M2178 1167 c24 -7 36 -7 44 1 9 9 1 12 -32 11 l-45 -1 33 -11z"/>
<path d="M2820 1168 c0 -10 5 -18 10 -18 6 0 10 -13 10 -29 0 -16 6 -36 14
-43 96 -91 117 -108 131 -108 11 0 6 9 -16 28 -71 59 -119 111 -119 129 0 11
-7 28 -15 39 -13 17 -14 17 -15 2z"/>
<path d="M1032 1098 c-18 -94 -22 -133 -13 -147 5 -8 13 25 21 88 14 108 8
147 -8 59z"/>
<path d="M586 1106 c-9 -22 -14 -41 -12 -43 7 -8 38 57 33 70 -2 7 -12 -6 -21
-27z"/>
<path d="M38 1118 c8 -11 35 -15 89 -16 96 -2 79 13 -27 23 -65 7 -73 6 -62
-7z"/>
<path d="M1835 1120 c-3 -5 1 -10 9 -10 8 0 18 5 21 10 3 6 -1 10 -9 10 -8 0
-18 -4 -21 -10z"/>
<path d="M1900 1120 c-12 -8 -12 -10 5 -9 11 0 29 4 40 9 18 8 18 9 -5 9 -14
0 -32 -4 -40 -9z"/>
<path d="M1975 1089 c-61 -30 -47 -30 38 -1 26 9 47 20 47 24 0 14 -23 8 -85
-23z"/>
<path d="M2590 1111 c0 -5 9 -11 20 -14 24 -6 27 8 4 17 -21 8 -24 8 -24 -3z"/>
<path d="M30 1072 c0 -5 16 -9 35 -10 19 -1 35 3 35 8 0 6 -16 10 -35 10 -19
0 -35 -4 -35 -8z"/>
<path d="M151 1061 c-8 -5 -41 -12 -72 -16 -56 -7 -100 -33 -72 -42 10 -4 10
-10 2 -24 -6 -11 -8 -25 -6 -32 3 -7 9 0 15 15 16 39 43 51 72 31 22 -16 24
-15 46 12 18 23 38 66 31 65 -1 0 -8 -4 -16 -9z m-23 -33 c-3 -7 -11 -13 -18
-13 -7 0 -15 6 -17 13 -3 7 4 12 17 12 13 0 20 -5 18 -12z"/>
<path d="M2826 1056 c3 -8 23 -26 45 -40 39 -26 52 -43 24 -32 -19 7 -19 -8 0
-24 10 -9 22 -9 42 -2 l28 10 -28 1 c-16 1 -26 5 -23 10 3 5 -14 27 -39 50
-48 44 -58 49 -49 27z"/>
<path d="M618 1028 c-14 -18 -33 -55 -43 -81 -10 -26 -22 -50 -26 -53 -5 -3
-9 -10 -9 -17 0 -22 28 17 70 97 44 85 47 106 8 54z"/>
<path d="M2129 1040 c25 -22 46 -25 56 -10 3 6 -5 10 -19 10 -14 0 -28 5 -31
10 -3 6 -12 10 -18 10 -7 -1 -1 -10 12 -20z"/>
<path d="M890 1031 c-7 -15 -7 -21 0 -21 12 0 25 28 17 36 -3 3 -10 -4 -17
-15z"/>
<path d="M1830 1040 c-12 -8 -9 -10 13 -10 15 0 27 5 27 10 0 13 -20 13 -40 0z"/>
<path d="M1915 1031 c3 -6 27 -11 52 -11 57 0 53 5 -11 14 -33 5 -46 4 -41 -3z"/>
<path d="M1460 1020 c0 -5 9 -10 19 -10 11 0 23 5 26 10 4 6 -5 10 -19 10 -14
0 -26 -4 -26 -10z"/>
<path d="M2044 1005 c11 -8 25 -15 30 -15 6 0 2 7 -8 15 -11 8 -25 15 -30 15
-6 0 -2 -7 8 -15z"/>
<path d="M528 963 c-9 -27 -28 -79 -43 -118 -34 -89 -41 -113 -28 -100 10 10
21 37 72 172 34 90 35 93 23 93 -4 0 -15 -21 -24 -47z"/>
<path d="M76 870 c-43 -67 -76 -123 -74 -126 3 -3 15 10 27 28 11 18 45 71 76
117 48 75 62 101 52 101 -1 0 -38 -54 -81 -120z"/>
<path d="M621 933 c-35 -64 -40 -91 -11 -53 18 23 54 110 45 110 -2 0 -17 -26
-34 -57z"/>
<path d="M1690 970 c0 -4 14 -13 30 -19 17 -5 30 -6 30 -1 0 4 -13 13 -30 19
-16 5 -30 6 -30 1z"/>
<path d="M2230 955 c-7 -9 -11 -18 -8 -20 3 -3 11 1 18 10 7 9 11 18 8 20 -3
3 -11 -1 -18 -10z"/>
<path d="M62 939 c-13 -5 -20 -13 -17 -19 10 -17 34 -11 45 10 12 22 7 23 -28
9z"/>
<path d="M2898 920 c-78 -38 -130 -71 -124 -78 3 -3 23 6 43 20 42 27 94 52
151 73 31 11 33 14 12 14 -14 0 -51 -13 -82 -29z"/>
<path d="M1941 931 c-11 -7 -10 -11 7 -20 29 -16 41 -13 18 4 -23 18 -14 20
16 4 14 -8 23 -8 31 0 8 8 7 11 -3 11 -8 0 -24 3 -35 5 -11 3 -26 1 -34 -4z"/>
<path d="M2158 875 c-16 -48 -7 -64 10 -17 5 15 13 35 17 45 4 9 3 17 -3 17
-5 0 -16 -20 -24 -45z"/>
<path d="M2 883 c3 -31 25 -37 42 -11 12 20 10 23 -22 33 -21 6 -23 4 -20 -22z"/>
<path d="M446 884 c-4 -14 -5 -29 -2 -31 3 -3 8 7 12 21 3 15 4 29 1 32 -2 3
-8 -7 -11 -22z"/>
<path d="M1604 901 c8 -12 46 -21 46 -11 0 8 -24 20 -41 20 -6 0 -8 -4 -5 -9z"/>
<path d="M2055 900 c3 -5 18 -10 33 -9 24 0 25 1 7 9 -28 12 -47 12 -40 0z"/>
<path d="M2785 895 c-16 -7 -23 -14 -15 -14 8 0 26 6 40 14 32 18 14 18 -25 0z"/>
<path d="M2405 890 c3 -5 13 -10 21 -10 8 0 12 5 9 10 -3 6 -13 10 -21 10 -8
0 -12 -4 -9 -10z"/>
<path d="M1035 880 c3 -5 13 -10 21 -10 8 0 14 5 14 10 0 6 -9 10 -21 10 -11
0 -17 -4 -14 -10z"/>
<path d="M2905 864 c-41 -11 -62 -26 -118 -84 -152 -158 -249 -350 -295 -585
-31 -156 -37 -202 -22 -188 7 6 14 22 15 35 26 219 83 392 177 542 101 160
230 276 309 276 10 0 21 5 24 10 8 13 -28 11 -90 -6z"/>
<path d="M566 822 c-10 -19 -16 -36 -13 -38 7 -8 39 46 34 59 -2 7 -12 -3 -21
-21z"/>
<path d="M1954 835 c11 -8 29 -15 40 -15 25 0 19 4 -24 18 -32 11 -33 10 -16
-3z"/>
<path d="M2310 840 c8 -5 24 -10 35 -10 17 0 17 2 5 10 -8 5 -24 10 -35 10
-17 0 -17 -2 -5 -10z"/>
<path d="M415 805 c-8 -21 -13 -40 -10 -43 2 -3 12 12 20 33 9 20 14 39 11 42
-3 3 -12 -12 -21 -32z"/>
<path d="M2250 815 c13 -14 26 -23 28 -20 7 7 -29 45 -41 45 -6 0 0 -11 13
-25z"/>
<path d="M2473 833 c9 -2 25 -2 35 0 9 3 1 5 -18 5 -19 0 -27 -2 -17 -5z"/>
<path d="M1030 815 c0 -3 18 -18 39 -33 31 -23 37 -32 28 -41 -9 -10 -8 -11 6
-6 25 10 21 20 -22 54 -37 30 -51 37 -51 26z"/>
<path d="M840 800 c0 -5 10 -10 23 -10 18 0 19 2 7 10 -19 13 -30 13 -30 0z"/>
<path d="M2124 796 c-5 -13 -9 -14 -20 -5 -9 7 -14 8 -14 1 0 -6 5 -12 12 -14
7 -3 -9 -39 -43 -98 -64 -111 -80 -148 -49 -111 29 34 133 231 126 238 -3 3
-8 -2 -12 -11z"/>
<path d="M1876 780 c13 -14 37 -22 69 -25 33 -3 45 -1 35 5 -8 6 -27 10 -41
10 -14 0 -34 7 -45 15 -29 22 -41 18 -18 -5z"/>
<path d="M2010 781 c0 -5 8 -11 18 -15 9 -3 24 -9 32 -12 8 -3 4 4 -9 15 -25
22 -41 27 -41 12z"/>
<path d="M1460 770 c19 -13 30 -13 30 0 0 6 -10 10 -22 10 -19 0 -20 -2 -8
-10z"/>
<path d="M1650 776 c0 -9 80 -45 99 -46 21 0 6 12 -32 26 -17 6 -40 15 -49 19
-10 4 -18 4 -18 1z"/>
<path d="M2210 771 c0 -10 31 -31 45 -31 11 0 -5 20 -26 30 -12 7 -19 7 -19 1z"/>
<path d="M2346 755 c25 -19 40 -19 24 0 -7 8 -20 15 -28 15 -13 0 -12 -3 4
-15z"/>
<path d="M2660 750 c-14 -11 -20 -20 -14 -20 14 0 50 27 44 33 -3 3 -16 -3
-30 -13z"/>
<path d="M534 744 c-4 -10 -9 -22 -11 -26 -2 -5 0 -8 6 -8 11 0 26 39 17 47
-3 3 -9 -3 -12 -13z"/>
<path d="M473 717 c-11 -12 -24 -33 -28 -47 -9 -30 -4 -26 30 24 30 44 28 57
-2 23z"/>
<path d="M2150 714 c0 -5 12 -18 27 -28 16 -12 24 -14 21 -6 -5 16 -48 46 -48
34z"/>
<path d="M2960 705 c-14 -8 -19 -14 -10 -14 8 0 24 6 34 14 25 19 9 19 -24 0z"/>
<path d="M1785 702 c6 -5 21 -13 35 -17 17 -5 22 -4 15 3 -5 5 -21 13 -35 17
-17 5 -22 4 -15 -3z"/>
<path d="M1300 690 c0 -9 39 -25 46 -18 2 3 -7 10 -21 16 -14 6 -25 7 -25 2z"/>
<path d="M2403 693 c9 -2 25 -2 35 0 9 3 1 5 -18 5 -19 0 -27 -2 -17 -5z"/>
<path d="M1697 679 c8 -8 16 -8 30 0 16 9 14 10 -11 11 -22 0 -27 -3 -19 -11z"/>
<path d="M1890 659 c29 -22 48 -25 31 -6 -6 8 -9 16 -7 18 2 2 -7 5 -22 6
l-26 1 24 -19z"/>
<path d="M2235 670 c3 -5 19 -10 35 -10 16 0 32 5 35 10 4 6 -10 10 -35 10
-25 0 -39 -4 -35 -10z"/>
<path d="M2102 651 c2 -8 15 -21 29 -30 19 -11 21 -12 9 0 -8 8 -20 21 -28 29
-11 12 -13 12 -10 1z"/>
<path d="M1430 639 c0 -11 34 -16 68 -11 50 7 38 19 -18 18 -27 -1 -50 -4 -50
-7z"/>
<path d="M1790 620 c33 -26 52 -25 21 0 -13 11 -28 20 -35 20 -6 0 0 -9 14
-20z"/>
<path d="M1620 621 c0 -10 30 -24 37 -17 3 2 -5 9 -16 16 -12 6 -21 7 -21 1z"/>
<path d="M2465 600 c-10 -11 -13 -20 -7 -20 6 0 16 9 22 20 6 11 9 20 7 20 -2
0 -12 -9 -22 -20z"/>
<path d="M2129 591 c25 -22 46 -27 55 -12 3 5 -4 11 -17 14 -12 2 -31 8 -42
12 -17 6 -17 4 4 -14z"/>
<path d="M2553 598 c-13 -6 -23 -15 -23 -20 0 -7 55 15 69 28 9 8 -25 2 -46
-8z"/>
<path d="M1400 590 c8 -5 22 -10 30 -10 13 0 13 1 0 10 -8 5 -22 10 -30 10
-13 0 -13 -1 0 -10z"/>
<path d="M1865 590 c3 -5 16 -10 28 -10 18 0 19 2 7 10 -20 13 -43 13 -35 0z"/>
<path d="M2070 570 c19 -13 30 -13 30 0 0 6 -10 10 -22 10 -19 0 -20 -2 -8
-10z"/>
<path d="M2845 560 c-10 -11 -14 -20 -8 -20 5 0 18 9 28 20 10 11 14 20 8 20
-5 0 -18 -9 -28 -20z"/>
<path d="M2888 564 c-16 -8 -28 -19 -28 -24 0 -5 13 -1 30 8 16 9 30 20 30 25
0 9 0 9 -32 -9z"/>
<path d="M2955 559 c-22 -12 -47 -27 -56 -35 -8 -8 -22 -14 -31 -14 -8 0 -24
-8 -36 -17 -11 -10 -36 -30 -55 -45 -19 -15 -49 -46 -68 -70 l-34 -43 55 49
c54 48 198 146 246 168 13 6 24 15 24 20 0 11 0 11 -45 -13z"/>
<path d="M1505 550 c3 -5 13 -10 21 -10 8 0 12 5 9 10 -3 6 -13 10 -21 10 -8
0 -12 -4 -9 -10z"/>
<path d="M2430 550 c-8 -4 -26 -13 -40 -18 l-25 -11 25 0 c14 0 36 8 50 19 25
20 18 26 -10 10z"/>
<path d="M87 537 c-4 -10 -7 -26 -7 -35 1 -15 2 -15 11 1 6 10 9 25 7 35 -3
16 -4 15 -11 -1z"/>
<path d="M446 532 c-4 -13 -5 -26 -2 -29 10 -11 18 4 14 29 l-4 23 -8 -23z"/>
<path d="M495 529 c-10 -30 0 -33 13 -4 6 14 7 25 2 25 -5 0 -12 -9 -15 -21z"/>
<path d="M1010 540 c8 -5 24 -10 35 -10 17 0 17 2 5 10 -8 5 -24 10 -35 10
-17 0 -17 -2 -5 -10z"/>
<path d="M1790 543 c14 -3 30 -9 35 -14 7 -7 3 -8 -10 -3 -11 4 -17 4 -13 -1
4 -4 27 -10 50 -12 l43 -3 -44 20 c-24 11 -53 19 -65 19 -18 -2 -17 -2 4 -6z"/>
<path d="M2513 525 c-6 -14 -7 -25 -2 -25 5 0 12 7 16 16 3 9 15 20 27 24 20
8 20 9 -4 9 -17 1 -29 -7 -37 -24z"/>
<path d="M965 510 c3 -5 16 -10 28 -10 18 0 19 2 7 10 -20 13 -43 13 -35 0z"/>
<path d="M1920 499 c7 -11 14 -19 16 -16 7 7 -7 37 -17 37 -6 0 -5 -9 1 -21z"/>
<path d="M532 490 c-80 -195 -91 -215 -111 -218 -25 -4 -18 -22 8 -22 14 0 27
21 51 80 18 45 34 79 37 77 2 -2 -6 -25 -17 -51 -11 -26 -20 -53 -20 -59 1 -7
12 14 25 46 13 32 22 64 19 72 -3 7 2 27 11 45 9 17 14 37 12 43 -3 7 -9 1
-15 -13z"/>
<path d="M2960 498 c-35 -10 -80 -44 -80 -61 0 -5 14 3 31 17 17 14 43 26 58
26 18 0 28 5 28 15 0 8 -1 15 -1 14 -1 0 -17 -5 -36 -11z"/>
<path d="M541 368 c-34 -80 -58 -127 -66 -124 -6 2 -17 1 -24 -4 -9 -5 -5 -9
13 -14 14 -3 26 -11 26 -17 0 -6 5 -7 10 -4 6 3 10 17 10 30 0 13 18 66 41
117 55 125 59 137 51 142 -4 2 -31 -54 -61 -126z"/>
<path d="M1720 490 c0 -5 9 -10 21 -10 11 0 17 5 14 10 -3 6 -13 10 -21 10 -8
0 -14 -4 -14 -10z"/>
<path d="M2094 475 c11 -8 27 -15 35 -15 10 1 7 6 -9 15 -33 19 -50 18 -26 0z"/>
<path d="M2350 480 c20 -13 43 -13 35 0 -3 6 -16 10 -28 10 -18 0 -19 -2 -7
-10z"/>
<path d="M406 453 c-22 -24 -34 -53 -22 -53 8 0 58 72 53 76 -3 3 -17 -7 -31
-23z"/>
<path d="M476 455 c-4 -14 -10 -23 -15 -20 -5 2 -12 -2 -15 -11 -3 -8 -2 -12
4 -9 15 9 13 2 -15 -61 -14 -32 -23 -59 -20 -62 6 -6 65 124 72 161 7 34 -3
36 -11 2z"/>
<path d="M1412 459 c2 -7 10 -15 17 -17 8 -3 12 1 9 9 -2 7 -10 15 -17 17 -8
3 -12 -1 -9 -9z"/>
<path d="M2084 455 c22 -17 40 -20 32 -6 -3 5 -16 11 -28 14 -22 6 -22 5 -4
-8z"/>
<path d="M2480 460 c-12 -8 -12 -10 5 -10 11 0 27 5 35 10 12 8 12 10 -5 10
-11 0 -27 -5 -35 -10z"/>
<path d="M850 446 c0 -8 -6 -17 -12 -19 -8 -3 -6 -6 5 -6 11 -1 17 6 17 19 0
11 -2 20 -5 20 -3 0 -5 -6 -5 -14z"/>
<path d="M1513 453 c9 -2 25 -2 35 0 9 3 1 5 -18 5 -19 0 -27 -2 -17 -5z"/>
<path d="M1935 450 c-15 -6 -9 -8 23 -7 23 1 42 5 42 9 0 10 -39 9 -65 -2z"/>
<path d="M2676 444 c-9 -24 -7 -56 3 -50 11 7 20 66 10 66 -4 0 -10 -7 -13
-16z"/>
<path d="M2033 443 c9 -14 67 -35 67 -24 0 5 -8 11 -17 14 -10 2 -27 8 -37 13
-13 5 -17 4 -13 -3z"/>
<path d="M2355 441 c-11 -5 -29 -19 -40 -31 -20 -23 -20 -23 0 -12 23 13 72
52 65 51 -3 0 -14 -4 -25 -8z"/>
<path d="M1220 430 c0 -5 12 -10 28 -9 24 0 25 1 7 9 -27 12 -35 12 -35 0z"/>
<path d="M1450 430 c0 -5 10 -10 23 -10 18 0 19 2 7 10 -19 13 -30 13 -30 0z"/>
<path d="M1772 419 c5 -14 48 -32 48 -20 0 4 -12 13 -26 20 -20 9 -25 9 -22 0z"/>
<path d="M1970 411 c-12 -24 -13 -34 -1 -27 9 6 22 46 15 46 -2 0 -8 -9 -14
-19z"/>
<path d="M2924 416 c-10 -8 -16 -17 -13 -20 3 -4 17 2 30 13 27 23 13 28 -17
7z"/>
<path d="M720 398 c-22 -24 -26 -38 -10 -38 5 0 16 14 25 30 18 36 13 38 -15
8z"/>
<path d="M758 381 c-9 -22 -13 -41 -8 -41 10 0 33 56 28 71 -2 6 -11 -7 -20
-30z"/>
<path d="M1890 405 c-10 -12 -10 -15 4 -15 9 0 16 7 16 15 0 8 -2 15 -4 15 -2
0 -9 -7 -16 -15z"/>
<path d="M2014 401 c11 -11 23 -21 28 -21 14 0 -1 19 -25 31 -22 12 -22 12 -3
-10z"/>
<path d="M2788 409 c-19 -11 -24 -29 -8 -29 5 0 14 9 20 20 12 23 12 23 -12 9z"/>
<path d="M2811 377 c-11 -24 -33 -55 -50 -68 -77 -59 -99 -88 -144 -185 -57
-122 -62 -158 -8 -51 54 104 94 160 142 199 39 31 108 148 87 148 -5 0 -17
-20 -27 -43z"/>
<path d="M2418 396 c-45 -14 -65 -31 -23 -20 17 5 42 9 58 9 15 0 26 4 24 9
-5 14 -18 15 -59 2z"/>
<path d="M2983 403 c-7 -3 -13 -11 -13 -20 0 -12 2 -12 16 2 18 17 16 25 -3
18z"/>
<path d="M2622 384 c-12 -8 -22 -20 -22 -26 0 -6 10 -3 21 8 l22 19 -5 -33
c-3 -21 -1 -31 6 -29 14 5 20 42 9 62 -8 13 -11 13 -31 -1z"/>
<path d="M140 371 c0 -5 -3 -18 -6 -28 -5 -16 -4 -16 10 1 18 23 20 36 6 36
-5 0 -10 -4 -10 -9z"/>
<path d="M352 355 c-16 -34 -15 -40 3 -25 8 7 12 17 9 22 -4 6 6 8 27 4 32 -7
33 -6 15 9 -28 21 -41 19 -54 -10z"/>
<path d="M784 346 c-12 -23 -22 -32 -34 -29 -13 4 -23 -10 -44 -67 -29 -80
-29 -80 -18 -80 5 0 16 24 25 53 20 61 33 84 43 74 9 -8 -12 -76 -39 -129 -16
-32 -22 -36 -37 -28 -10 6 -27 10 -37 10 -10 -1 8 -15 41 -31 32 -17 64 -28
71 -25 7 2 23 34 34 69 13 39 31 71 44 80 17 12 19 18 10 27 -9 9 -8 22 3 52
16 46 18 61 5 54 -4 -3 -14 -27 -21 -53 -7 -27 -20 -66 -30 -88 -10 -22 -24
-59 -31 -83 -9 -30 -17 -42 -28 -40 -20 5 -19 13 24 133 20 55 39 108 42 118
9 30 -7 19 -23 -17z"/>
<path d="M1620 375 c0 -2 14 -11 30 -20 17 -9 30 -11 30 -6 0 6 -9 15 -19 21
-21 11 -41 13 -41 5z"/>
<path d="M2020 347 c0 -17 25 -40 39 -35 6 1 -1 14 -14 27 -18 17 -25 19 -25
8z"/>
<path d="M2723 348 c-19 -24 -24 -38 -15 -38 5 0 14 11 20 25 13 27 10 32 -5
13z"/>
<path d="M1785 340 c28 -12 37 -12 30 0 -3 6 -16 10 -28 9 -21 0 -21 -1 -2 -9z"/>
<path d="M2975 340 c-4 -6 -11 -8 -16 -5 -5 4 -9 1 -9 -4 0 -15 13 -14 36 4
10 8 14 15 7 15 -6 0 -15 -5 -18 -10z"/>
<path d="M677 316 c3 -14 -2 -35 -11 -48 -9 -12 -16 -32 -15 -43 0 -12 12 4
29 40 35 72 35 75 11 75 -14 0 -17 -6 -14 -24z"/>
<path d="M1700 326 c8 -8 29 -17 45 -21 l30 -6 -35 20 c-41 24 -60 27 -40 7z"/>
<path d="M1290 321 c0 -10 50 -25 58 -17 2 3 -7 10 -22 16 -33 12 -36 12 -36
1z"/>
<path d="M2195 315 c34 -16 64 -20 50 -6 -6 5 -26 12 -45 15 l-35 6 30 -15z"/>
<path d="M2400 320 c-12 -8 -11 -10 8 -10 12 0 22 5 22 10 0 13 -11 13 -30 0z"/>
<path d="M385 310 c-4 -6 -13 -9 -21 -6 -7 3 -16 1 -19 -5 -11 -17 26 -22 43
-6 9 9 13 19 10 22 -3 4 -9 1 -13 -5z"/>
<path d="M1800 300 c27 -21 40 -25 40 -12 0 9 -44 32 -58 32 -4 0 4 -9 18 -20z"/>
<path d="M2601 306 c-8 -9 -11 -19 -7 -23 9 -9 29 13 24 27 -2 8 -8 7 -17 -4z"/>
<path d="M1420 288 c0 -19 2 -20 10 -8 13 19 13 30 0 30 -5 0 -10 -10 -10 -22z"/>
<path d="M1990 304 c0 -5 7 -19 15 -30 8 -10 15 -14 15 -8 0 5 -7 19 -15 30
-8 10 -15 14 -15 8z"/>
<path d="M570 291 c0 -5 7 -12 16 -15 24 -9 28 -7 14 9 -14 17 -30 20 -30 6z"/>
<path d="M940 291 c0 -8 34 -21 55 -21 11 1 -35 29 -47 30 -5 0 -8 -4 -8 -9z"/>
<path d="M1037 270 c14 -16 32 -30 39 -30 6 0 -1 14 -16 30 -15 17 -33 30 -39
30 -6 0 1 -13 16 -30z"/>
<path d="M2460 274 c-6 -16 -17 -32 -23 -36 -8 -5 -7 -8 4 -8 17 0 47 56 36
67 -4 3 -11 -7 -17 -23z"/>
<path d="M2798 276 c-56 -34 -77 -56 -71 -74 5 -12 8 -11 14 6 5 12 27 33 51
48 51 32 53 33 47 38 -2 3 -21 -6 -41 -18z"/>
<path d="M30 284 c0 -39 66 -109 98 -102 13 3 8 10 -20 27 -20 12 -46 37 -57
54 -11 18 -21 27 -21 21z"/>
<path d="M2820 259 c-26 -17 -37 -29 -27 -29 23 0 70 24 86 44 22 26 -8 19
-59 -15z"/>
<path d="M2315 270 c-4 -6 5 -10 19 -10 14 0 26 5 26 10 0 6 -9 10 -19 10 -11
0 -23 -4 -26 -10z"/>
<path d="M1463 263 c9 -2 25 -2 35 0 9 3 1 5 -18 5 -19 0 -27 -2 -17 -5z"/>
<path d="M1786 255 c-3 -9 0 -15 9 -15 8 0 15 7 15 15 0 8 -4 15 -9 15 -5 0
-11 -7 -15 -15z"/>
<path d="M227 253 c-4 -3 -6 -22 -6 -42 l1 -36 8 40 c8 42 8 49 -3 38z"/>
<path d="M532 227 c-6 -17 -24 -40 -39 -50 -27 -17 -27 -18 -4 -15 25 3 55 37
66 76 10 35 -10 26 -23 -11z"/>
<path d="M860 219 c-6 -24 -17 -65 -24 -91 -8 -27 -10 -48 -5 -48 5 0 9 -7 9
-16 0 -13 -5 -12 -27 5 -14 12 -28 19 -31 16 -8 -7 19 -35 34 -35 8 0 14 -4
14 -10 0 -5 12 -17 26 -27 26 -17 27 -16 51 11 13 16 21 31 18 35 -4 3 -15 -4
-25 -17 -15 -18 -23 -21 -38 -13 -22 12 -21 53 3 155 17 74 13 105 -5 35z"/>
<path d="M2555 240 c-10 -11 -13 -20 -7 -20 6 0 16 9 22 20 6 11 9 20 7 20 -2
0 -12 -9 -22 -20z"/>
<path d="M256 233 c-3 -10 -10 -40 -16 -68 -6 -27 -13 -59 -16 -70 -4 -13 -3
-17 4 -10 12 12 46 154 39 161 -3 3 -8 -3 -11 -13z"/>
<path d="M944 236 c-4 -11 -14 -16 -26 -13 -14 4 -22 -3 -33 -31 -9 -20 -12
-39 -7 -44 6 -6 12 3 15 20 4 20 14 31 30 36 23 5 43 33 32 44 -2 3 -8 -3 -11
-12z"/>
<path d="M2572 214 c-12 -19 -18 -34 -12 -34 10 0 44 59 38 65 -2 2 -13 -12
-26 -31z"/>
<path d="M2340 214 c0 -14 4 -23 9 -20 5 3 7 15 4 26 -7 28 -13 25 -13 -6z"/>
<path d="M2285 210 c-3 -10 1 -32 9 -47 8 -15 15 -21 15 -13 1 8 -3 22 -8 29
-6 9 -6 22 0 33 6 12 6 18 0 18 -5 0 -12 -9 -16 -20z"/>
<path d="M951 162 c-24 -63 -43 -76 -69 -50 -6 6 -15 8 -19 4 -11 -10 26 -36
52 -36 16 0 26 13 44 59 13 33 21 65 19 72 -2 7 -15 -15 -27 -49z"/>
<path d="M810 169 c-7 -24 -14 -47 -17 -51 -2 -5 0 -8 4 -8 10 0 36 90 29 97
-3 3 -10 -15 -16 -38z"/>
<path d="M1000 189 c0 -5 5 -7 10 -4 22 14 50 -6 50 -35 0 -16 -4 -30 -10 -32
-13 -4 -62 -118 -50 -118 5 0 22 26 37 58 33 67 66 84 58 30 l-5 -33 14 35
c20 48 20 80 0 80 -14 0 -14 -3 -4 -15 7 -9 10 -18 7 -22 -9 -8 -38 17 -32 27
3 5 2 15 -1 24 -7 18 -74 23 -74 5z"/>
<path d="M2700 185 c-7 -9 -11 -18 -8 -20 3 -3 11 1 18 10 7 9 11 18 8 20 -3
3 -11 -1 -18 -10z"/>
<path d="M2975 184 c-11 -8 -25 -12 -31 -10 -14 5 -80 -48 -96 -77 -11 -21
-11 -21 13 -4 13 9 50 33 82 53 31 20 57 41 57 45 0 12 -1 11 -25 -7z"/>
<path d="M610 180 c0 -5 14 -10 31 -10 17 0 28 4 24 10 -3 6 -17 10 -31 10
-13 0 -24 -4 -24 -10z"/>
<path d="M2715 130 c-32 -32 -61 -57 -65 -55 -9 5 -35 -23 -43 -47 -6 -17 8
-26 15 -10 2 4 21 22 43 41 53 46 129 131 117 131 -5 0 -36 -27 -67 -60z"/>
<path d="M1430 177 c0 -7 92 -38 98 -33 2 3 -5 9 -15 14 -22 12 -83 25 -83 19z"/>
<path d="M2160 170 c20 -13 43 -13 35 0 -3 6 -16 10 -28 10 -18 0 -19 -2 -7
-10z"/>
<path d="M990 166 c0 -2 -16 -41 -35 -86 -19 -45 -30 -80 -24 -78 10 3 29 43
70 146 5 14 5 22 -1 22 -6 0 -10 -2 -10 -4z"/>
<path d="M1700 160 c-11 -7 -3 -10 30 -9 34 0 40 2 25 9 -27 12 -37 12 -55 0z"/>
<path d="M1285 150 c3 -5 1 -10 -4 -10 -6 0 -11 -7 -11 -16 0 -8 -5 -25 -12
-37 l-12 -22 -6 24 c-3 13 -17 31 -30 39 l-25 16 23 -25 c25 -29 29 -59 7 -59
-8 0 -15 -4 -15 -10 0 -5 9 -10 19 -10 22 0 59 42 67 77 4 12 14 23 23 23 14
0 14 2 1 10 -20 13 -33 13 -25 0z"/>
<path d="M1660 137 c0 -15 37 -53 44 -46 2 2 -7 17 -20 32 -14 16 -24 22 -24
14z"/>
<path d="M1900 141 c0 -5 7 -12 16 -15 24 -9 28 -7 14 9 -14 17 -30 20 -30 6z"/>
<path d="M2675 130 c-10 -11 -13 -20 -7 -20 6 0 16 9 22 20 6 11 9 20 7 20 -2
0 -12 -9 -22 -20z"/>
<path d="M1565 130 c-8 -13 15 -13 35 0 12 8 11 10 -7 10 -12 0 -25 -4 -28
-10z"/>
<path d="M1430 120 c0 -5 10 -10 23 -10 18 0 19 2 7 10 -19 13 -30 13 -30 0z"/>
<path d="M1720 120 c19 -13 30 -13 30 0 0 6 -10 10 -22 10 -19 0 -20 -2 -8
-10z"/>
<path d="M295 68 c-18 -61 -18 -68 -5 -68 6 0 10 8 10 19 0 10 7 37 15 60 8
22 10 41 5 41 -5 0 -16 -23 -25 -52z"/>
<path d="M1130 98 c0 -15 -4 -30 -10 -33 -5 -3 -10 -13 -10 -21 0 -23 17 -8
28 25 6 16 6 34 1 42 -6 10 -9 7 -9 -13z"/>
<path d="M2110 110 c12 -8 12 -10 1 -10 -8 0 -12 -2 -9 -5 3 -3 13 -3 22 1 19
7 11 24 -12 24 -15 0 -15 -2 -2 -10z"/>
<path d="M2268 113 c-10 -2 -18 -9 -18 -14 0 -11 39 -2 55 12 9 9 -6 10 -37 2z"/>
<path d="M2930 111 c0 -4 11 -6 25 -3 14 2 25 6 25 8 0 2 -11 4 -25 4 -14 0
-25 -4 -25 -9z"/>
<path d="M2537 103 c-4 -3 -7 -16 -6 -27 0 -19 1 -19 10 3 10 24 8 36 -4 24z"/>
<path d="M2794 86 c-38 -32 -27 -42 11 -11 17 13 27 26 24 30 -4 3 -20 -5 -35
-19z"/>
<path d="M1170 74 c-6 -14 -10 -31 -10 -37 0 -7 -4 -6 -10 3 -12 18 -12 3 0
-25 7 -19 9 -18 19 8 16 41 24 77 17 77 -4 0 -11 -12 -16 -26z"/>
<path d="M1738 93 c6 -2 12 -11 12 -19 0 -8 5 -14 10 -14 6 0 10 4 10 8 0 12
-22 32 -34 31 -6 0 -5 -3 2 -6z"/>
<path d="M1989 70 c21 -18 51 -27 51 -16 0 5 -60 36 -69 36 -3 -1 5 -10 18
-20z"/>
<path d="M2900 78 c0 -13 38 -18 64 -9 14 6 26 12 26 13 0 2 -20 3 -45 3 -25
0 -45 -3 -45 -7z"/>
<path d="M1410 70 c20 -13 53 -13 45 0 -3 6 -18 10 -33 10 -21 0 -24 -2 -12
-10z"/>
<path d="M2260 70 c0 -12 17 -12 45 0 17 7 15 9 -12 9 -18 1 -33 -3 -33 -9z"/>
<path d="M415 60 c3 -5 13 -10 21 -10 8 0 19 -11 24 -25 12 -32 19 -32 12 1
-3 15 -14 29 -29 35 -31 12 -36 11 -28 -1z"/>
<path d="M1505 50 c10 -11 23 -20 28 -20 6 0 2 9 -8 20 -10 11 -23 20 -28 20
-6 0 -2 -9 8 -20z"/>
<path d="M1705 50 c3 -5 16 -10 28 -10 18 0 19 2 7 10 -20 13 -43 13 -35 0z"/>
<path d="M2870 45 c-7 -8 -18 -15 -25 -15 -7 0 -18 -7 -25 -15 -7 -8 -10 -15
-8 -15 11 0 68 32 74 41 10 17 -2 20 -16 4z"/>
<path d="M207 44 c-4 -4 -7 -17 -7 -28 1 -19 1 -20 11 -3 11 19 8 43 -4 31z"/>
<path d="M363 38 c-13 -6 -23 -17 -23 -25 0 -10 9 -7 30 9 42 30 38 38 -7 16z"/>
<path d="M1272 28 c-20 -20 -14 -27 12 -15 13 7 22 15 20 19 -7 11 -18 10 -32
-4z"/>
<path d="M1350 20 c24 -24 30 -25 30 -6 0 8 -7 17 -16 20 -29 11 -34 6 -14
-14z"/>
<path d="M1660 30 c-12 -7 -11 -10 5 -16 11 -4 24 -9 29 -12 5 -3 6 0 2 6 -5
8 1 12 16 13 22 0 22 1 3 9 -27 11 -37 12 -55 0z"/>
<path d="M1970 19 c0 -11 5 -17 10 -14 6 3 10 13 10 21 0 8 -4 14 -10 14 -5 0
-10 -9 -10 -21z"/>
<path d="M2078 29 c-19 -12 -7 -16 32 -9 34 5 34 6 8 11 -15 3 -32 2 -40 -2z"/>
<path d="M2202 28 c7 -4 42 -7 78 -7 75 1 63 6 -28 12 -34 2 -57 0 -50 -5z"/>
<path d="M2762 20 c-8 -13 -8 -20 -2 -20 6 0 13 7 17 15 9 24 -1 27 -15 5z"/>
<path d="M399 13 c-12 -15 -12 -16 4 -10 10 4 23 7 28 7 6 0 7 5 4 10 -9 15
-21 12 -36 -7z"/>
<path d="M1052 18 c5 -15 28 -23 28 -10 0 5 -7 13 -16 16 -10 4 -14 1 -12 -6z"/>
<path d="M496 12 c-3 -5 16 -9 42 -9 37 -1 42 0 22 7 -34 11 -58 12 -64 2z"/>
<path d="M1858 3 c12 -2 30 -2 40 0 9 3 -1 5 -23 4 -22 0 -30 -2 -17 -4z"/>
</g>
</svg>
